SplineFontDB: 3.2
FontName: Orbitron-SemiBold
FullName: Orbitron SemiBold
FamilyName: Orbitron SemiBold
Weight: Demi
Copyright: Copyright 2018 The Orbitron Project Authors (https://github.com/theleagueof/orbitron), with Reserved Font Name: "Orbitron".
Version: 2.001
ItalicAngle: 0
UnderlinePosition: -125
UnderlineWidth: 50
Ascent: 800
Descent: 200
InvalidEm: 0
sfntRevision: 0x00020042
LayerCount: 2
Layer: 0 1 "Back" 1
Layer: 1 1 "Fore" 0
XUID: [1021 13 -2013206315 23922]
StyleMap: 0x0040
FSType: 0
OS2Version: 4
OS2_WeightWidthSlopeOnly: 0
OS2_UseTypoMetrics: 1
CreationTime: 1306352817
ModificationTime: 1771525645
PfmFamily: 81
TTFWeight: 600
TTFWidth: 5
LineGap: 0
VLineGap: 0
Panose: 0 0 0 0 0 0 0 0 0 0
OS2TypoAscent: 1011
OS2TypoAOffset: 0
OS2TypoDescent: -243
OS2TypoDOffset: 0
OS2TypoLinegap: 0
OS2WinAscent: 1011
OS2WinAOffset: 0
OS2WinDescent: 243
OS2WinDOffset: 0
HheadAscent: 1011
HheadAOffset: 0
HheadDescent: -243
HheadDOffset: 0
OS2SubXSize: 650
OS2SubYSize: 600
OS2SubXOff: 0
OS2SubYOff: 75
OS2SupXSize: 650
OS2SupYSize: 600
OS2SupXOff: 0
OS2SupYOff: 350
OS2StrikeYSize: 50
OS2StrikeYPos: 348
OS2CapHeight: 720
OS2XHeight: 580
OS2Vendor: 'NONE'
OS2CodePages: 00000001.00000000
OS2UnicodeRanges: 80000067.10000042.00000000.00000000
Lookup: 1 0 0 "'aalt' Access All Alternates in Latin lookup 0" { "'aalt' Access All Alternates in Latin lookup 0 subtable"  } ['aalt' ('DFLT' <'dflt' > 'latn' <'dflt' > ) ]
Lookup: 3 0 0 "'aalt' Access All Alternates in Latin lookup 1" { "'aalt' Access All Alternates in Latin lookup 1 subtable"  } ['aalt' ('DFLT' <'dflt' > 'latn' <'dflt' > ) ]
Lookup: 1 0 0 "'smcp' Lowercase to Small Capitals in Latin lookup 2" { "'smcp' Lowercase to Small Capitals in Latin lookup 2 subtable"  } ['smcp' ('DFLT' <'dflt' > 'latn' <'dflt' > ) ]
Lookup: 1 0 0 "'salt' Stylistic Alternatives in Latin lookup 3" { "'salt' Stylistic Alternatives in Latin lookup 3 subtable"  } ['salt' ('latn' <'dflt' > ) ]

StartChar: .notdef
Encoding: 65536 -1 0
Width: 500
GlyphClass: 1
Flags: W
LayerCount: 2
Fore
SplineSet
480 0 m 1,0,-1
 480 0 l 1,1,-1
 20 1 l 1,2,-1
 20 720 l 1,3,-1
 480 720 l 1,4,-1
 480 0 l 1,0,-1
449 31 m 1,5,-1
 449 31 l 1,6,-1
 449 689 l 1,7,-1
 51 689 l 1,8,-1
 51 31 l 1,9,-1
 449 31 l 1,5,-1
EndSplineSet
Validated: 5
EndChar

StartChar: A
Encoding: 65 65 1
Width: 836
GlyphClass: 2
Flags: W
AnchorPoint: "Anchor-1" 418 0 basechar 0
AnchorPoint: "Anchor-0" 418 720 basechar 0
LayerCount: 2
Fore
SplineSet
58 0 m 1,0,-1
 58 585 l 2,1,2
 58 622 58 622 76 653 c 128,-1,3
 94 684 94 684 125 702 c 128,-1,4
 156 720 156 720 193 720 c 2,5,-1
 643 720 l 2,6,7
 680 720 680 720 710.5 702 c 128,-1,8
 741 684 741 684 759.5 653 c 128,-1,9
 778 622 778 622 778 585 c 2,10,-1
 778 0 l 1,11,-1
 657 0 l 1,12,-1
 657 247 l 1,13,-1
 178 247 l 1,14,-1
 178 0 l 1,15,-1
 58 0 l 1,16,-1
 58 0 l 1,0,-1
178 367 m 1,17,-1
 657 367 l 1,18,-1
 657 581 l 2,19,20
 657 589 657 589 651.5 594 c 128,-1,21
 646 599 646 599 638 599 c 2,22,-1
 196 599 l 2,23,24
 189 599 189 599 183.5 594 c 128,-1,25
 178 589 178 589 178 581 c 2,26,-1
 178 367 l 1,27,-1
 178 367 l 1,17,-1
EndSplineSet
Validated: 5
Substitution2: "'ss02' Style Set 2 in Latin lookup 5 subtable" A.alt2
Substitution2: "'ss01' Style Set 1 in Latin lookup 4 subtable" A.alt
AlternateSubs2: "'aalt' Access All Alternates in Latin lookup 1 subtable" A.alt A.alt2
EndChar

StartChar: AE
Encoding: 198 198 8
Width: 1375
GlyphClass: 1
Flags: W
LayerCount: 2
Fore
SplineSet
54 0 m 1,0,-1
 54 0 l 1,1,-1
 54 585 l 2,2,3
 54 622 54 622 72.5 653 c 128,-1,4
 91 684 91 684 121.5 702 c 128,-1,5
 152 720 152 720 189 720 c 2,6,-1
 1315 720 l 1,7,-1
 1315 599 l 1,8,-1
 774 599 l 1,9,-1
 774 421 l 1,10,-1
 1209 421 l 1,11,-1
 1209 299 l 1,12,-1
 774 299 l 1,13,-1
 774 121 l 1,14,-1
 1315 121 l 1,15,-1
 1315 0 l 1,16,-1
 654 0 l 1,17,-1
 654 247 l 1,18,-1
 175 247 l 1,19,-1
 175 0 l 1,20,-1
 54 0 l 1,0,-1
175 367 m 1,21,-1
 175 367 l 1,22,-1
 654 367 l 1,23,-1
 654 581 l 2,24,25
 654 589 654 589 648.5 594 c 128,-1,26
 643 599 643 599 636 599 c 2,27,-1
 194 599 l 2,28,29
 186 599 186 599 180.5 594 c 128,-1,30
 175 589 175 589 175 581 c 2,31,-1
 175 367 l 1,21,-1
EndSplineSet
Validated: 5
EndChar

StartChar: B
Encoding: 66 66 9
Width: 832
GlyphClass: 1
Flags: W
LayerCount: 2
Fore
SplineSet
59 0 m 1,0,-1
 59 720 l 1,1,-1
 615 720 l 2,2,3
 652 720 652 720 682.5 702 c 128,-1,4
 713 684 713 684 731.5 653 c 128,-1,5
 750 622 750 622 750 585 c 2,6,-1
 750 442 l 2,7,8
 750 428 750 428 747.5 415.5 c 128,-1,9
 745 403 745 403 740 392 c 1,10,11
 758 367 758 367 768.5 342.5 c 128,-1,12
 779 318 779 318 779 293 c 2,13,-1
 779 135 l 2,14,15
 779 98 779 98 760.5 67 c 128,-1,16
 742 36 742 36 711.5 18 c 128,-1,17
 681 0 681 0 644 0 c 2,18,-1
 59 0 l 1,19,-1
 59 0 l 1,0,-1
197 121 m 2,20,-1
 639 121 l 2,21,22
 647 121 647 121 652.5 126 c 128,-1,23
 658 131 658 131 658 139 c 2,24,-1
 658 288 l 2,25,26
 658 296 658 296 652.5 301 c 128,-1,27
 647 306 647 306 639 306 c 2,28,-1
 197 306 l 2,29,30
 190 306 190 306 184.5 301 c 128,-1,31
 179 296 179 296 179 288 c 2,32,-1
 179 139 l 2,33,34
 179 131 179 131 184.5 126 c 128,-1,35
 190 121 190 121 197 121 c 2,20,-1
197 427 m 2,36,-1
 610 427 l 2,37,38
 618 427 618 427 623 432.5 c 128,-1,39
 628 438 628 438 628 445 c 2,40,-1
 628 581 l 2,41,42
 628 589 628 589 623 594 c 128,-1,43
 618 599 618 599 610 599 c 2,44,-1
 197 599 l 2,45,46
 190 599 190 599 184.5 594 c 128,-1,47
 179 589 179 589 179 581 c 2,48,-1
 179 445 l 2,49,50
 179 438 179 438 184.5 432.5 c 128,-1,51
 190 427 190 427 197 427 c 2,36,-1
EndSplineSet
Validated: 5
EndChar

StartChar: C
Encoding: 67 67 10
Width: 822
GlyphClass: 2
Flags: W
AnchorPoint: "Anchor-1" 441 0 basechar 0
AnchorPoint: "Anchor-0" 441 720 basechar 0
LayerCount: 2
Fore
SplineSet
191 0 m 2,0,1
 154 0 154 0 123 18 c 128,-1,2
 92 36 92 36 74 67 c 128,-1,3
 56 98 56 98 56 135 c 2,4,-1
 56 585 l 2,5,6
 56 622 56 622 74 653 c 128,-1,7
 92 684 92 684 123 702 c 128,-1,8
 154 720 154 720 191 720 c 2,9,-1
 774 720 l 1,10,-1
 774 599 l 1,11,-1
 212 599 l 2,12,13
 196 599 196 599 186 589.5 c 128,-1,14
 176 580 176 580 176 564 c 2,15,-1
 176 156 l 2,16,17
 176 140 176 140 186 130.5 c 128,-1,18
 196 121 196 121 212 121 c 2,19,-1
 774 121 l 1,20,-1
 774 0 l 1,21,-1
 191 0 l 2,0,1
EndSplineSet
Validated: 1
Substitution2: "'salt' Stylistic Alternatives in Latin lookup 3 subtable" C.alt
Substitution2: "'aalt' Access All Alternates in Latin lookup 0 subtable" C.alt
EndChar

StartChar: D
Encoding: 68 68 12
Width: 834
GlyphClass: 1
Flags: W
LayerCount: 2
Fore
SplineSet
58 0 m 1,0,-1
 58 720 l 1,1,-1
 643 720 l 2,2,3
 680 720 680 720 710.5 702 c 128,-1,4
 741 684 741 684 759.5 653 c 128,-1,5
 778 622 778 622 778 585 c 2,6,-1
 778 135 l 2,7,8
 778 98 778 98 759.5 67 c 128,-1,9
 741 36 741 36 710.5 18 c 128,-1,10
 680 0 680 0 643 0 c 2,11,-1
 58 0 l 1,0,-1
196 121 m 2,12,-1
 638 121 l 2,13,14
 646 121 646 121 651.5 126 c 128,-1,15
 657 131 657 131 657 139 c 2,16,-1
 657 581 l 2,17,18
 657 589 657 589 651.5 594 c 128,-1,19
 646 599 646 599 638 599 c 2,20,-1
 196 599 l 2,21,22
 188 599 188 599 182.5 594 c 128,-1,23
 177 589 177 589 177 581 c 2,24,-1
 177 139 l 2,25,26
 177 131 177 131 182.5 126 c 128,-1,27
 188 121 188 121 196 121 c 2,12,-1
EndSplineSet
Validated: 1
EndChar

StartChar: E
Encoding: 69 69 13
Width: 766
GlyphClass: 2
Flags: W
AnchorPoint: "Anchor-1" 399 0 basechar 0
AnchorPoint: "Anchor-0" 398 720 basechar 0
LayerCount: 2
Fore
SplineSet
58 0 m 1,0,-1
 58 720 l 1,1,-1
 719 720 l 1,2,-1
 719 599 l 1,3,-1
 179 599 l 1,4,-1
 179 421 l 1,5,-1
 614 421 l 1,6,-1
 614 299 l 1,7,-1
 179 299 l 1,8,-1
 179 121 l 1,9,-1
 719 121 l 1,10,-1
 719 0 l 1,11,-1
 58 0 l 1,0,-1
EndSplineSet
Validated: 1
EndChar

StartChar: F
Encoding: 70 70 18
Width: 723
GlyphClass: 1
Flags: W
LayerCount: 2
Fore
SplineSet
58 0 m 1,0,-1
 58 720 l 1,1,-1
 719 720 l 1,2,-1
 719 599 l 1,3,-1
 179 599 l 1,4,-1
 179 421 l 1,5,-1
 614 421 l 1,6,-1
 614 299 l 1,7,-1
 179 299 l 1,8,-1
 179 0 l 1,9,-1
 58 0 l 1,0,-1
EndSplineSet
Validated: 1
EndChar

StartChar: G
Encoding: 71 71 19
Width: 830
GlyphClass: 1
Flags: W
LayerCount: 2
Fore
SplineSet
191 0 m 2,0,1
 154 0 154 0 123 18 c 128,-1,2
 92 36 92 36 74 67 c 128,-1,3
 56 98 56 98 56 135 c 2,4,-1
 56 585 l 2,5,6
 56 622 56 622 74 653 c 128,-1,7
 92 684 92 684 123 702 c 128,-1,8
 154 720 154 720 191 720 c 2,9,-1
 641 720 l 2,10,11
 678 720 678 720 708.5 702 c 128,-1,12
 739 684 739 684 757.5 653 c 128,-1,13
 776 622 776 622 776 585 c 2,14,-1
 776 536 l 1,15,-1
 655 536 l 1,16,-1
 655 581 l 2,17,18
 655 589 655 589 649.5 594 c 128,-1,19
 644 599 644 599 636 599 c 2,20,-1
 194 599 l 2,21,22
 187 599 187 599 181.5 594 c 128,-1,23
 176 589 176 589 176 581 c 2,24,-1
 176 139 l 2,25,26
 176 131 176 131 181.5 126 c 128,-1,27
 187 121 187 121 194 121 c 2,28,-1
 636 121 l 2,29,30
 644 121 644 121 649.5 126 c 128,-1,31
 655 131 655 131 655 139 c 2,32,-1
 655 280 l 1,33,-1
 489 280 l 1,34,-1
 489 401 l 1,35,-1
 776 401 l 1,36,-1
 776 135 l 2,37,38
 776 98 776 98 757.5 67 c 128,-1,39
 739 36 739 36 708.5 18 c 128,-1,40
 678 0 678 0 641 0 c 2,41,-1
 191 0 l 2,0,1
EndSplineSet
Validated: 1
EndChar

StartChar: H
Encoding: 72 72 20
Width: 851
GlyphClass: 1
Flags: W
LayerCount: 2
Fore
SplineSet
57 0 m 1,0,-1
 57 720 l 1,1,-1
 177 720 l 1,2,-1
 177 421 l 1,3,-1
 673 421 l 1,4,-1
 673 720 l 1,5,-1
 793 720 l 1,6,-1
 793 0 l 1,7,-1
 673 0 l 1,8,-1
 673 299 l 1,9,-1
 177 299 l 1,10,-1
 177 0 l 1,11,-1
 57 0 l 1,0,-1
EndSplineSet
Validated: 1
EndChar

StartChar: I
Encoding: 73 73 21
Width: 214
GlyphClass: 2
Flags: W
AnchorPoint: "Anchor-1" 108 0 basechar 0
AnchorPoint: "Anchor-0" 109 720 basechar 0
LayerCount: 2
Fore
SplineSet
48 0 m 1,0,-1
 48 720 l 1,1,-1
 167 720 l 1,2,-1
 167 0 l 1,3,-1
 48 0 l 1,0,-1
EndSplineSet
Validated: 1
Substitution2: "'salt' Stylistic Alternatives in Latin lookup 3 subtable" I.alt
Substitution2: "'aalt' Access All Alternates in Latin lookup 0 subtable" I.alt
EndChar

StartChar: J
Encoding: 74 74 26
Width: 780
GlyphClass: 1
Flags: W
LayerCount: 2
Fore
SplineSet
139 0 m 2,0,1
 102 0 102 0 71 18 c 128,-1,2
 40 36 40 36 22 67 c 128,-1,3
 4 98 4 98 4 135 c 2,4,-1
 4 211 l 1,5,-1
 124 211 l 1,6,-1
 124 139 l 2,7,8
 124 131 124 131 129.5 126 c 128,-1,9
 135 121 135 121 142 121 c 2,10,-1
 584 121 l 2,11,12
 592 121 592 121 597.5 126 c 128,-1,13
 603 131 603 131 603 139 c 2,14,-1
 603 720 l 1,15,-1
 724 720 l 1,16,-1
 724 135 l 2,17,18
 724 98 724 98 705.5 67 c 128,-1,19
 687 36 687 36 656.5 18 c 128,-1,20
 626 0 626 0 589 0 c 2,21,-1
 139 0 l 2,0,1
EndSplineSet
Validated: 1
Substitution2: "'salt' Stylistic Alternatives in Latin lookup 3 subtable" J.alt
Substitution2: "'aalt' Access All Alternates in Latin lookup 0 subtable" J.alt
EndChar

StartChar: K
Encoding: 75 75 27
Width: 797
GlyphClass: 1
Flags: W
LayerCount: 2
Fore
SplineSet
57 0 m 1,0,-1
 57 720 l 1,1,-1
 178 720 l 1,2,-1
 178 421 l 1,3,-1
 362 421 l 1,4,-1
 613 720 l 1,5,-1
 748 720 l 1,6,-1
 748 691 l 1,7,-1
 470 360 l 1,8,-1
 748 29 l 1,9,-1
 748 0 l 1,10,-1
 613 0 l 1,11,-1
 362 299 l 1,12,-1
 178 299 l 1,13,-1
 178 0 l 1,14,-1
 57 0 l 1,0,-1
EndSplineSet
Validated: 1
Substitution2: "'salt' Stylistic Alternatives in Latin lookup 3 subtable" K.alt
Substitution2: "'aalt' Access All Alternates in Latin lookup 0 subtable" K.alt
EndChar

StartChar: L
Encoding: 76 76 28
Width: 779
GlyphClass: 1
Flags: W
LayerCount: 2
Fore
SplineSet
57 0 m 1,0,-1
 57 721 l 1,1,-1
 177 721 l 1,2,-1
 177 121 l 1,3,-1
 777 121 l 1,4,-1
 777 0 l 1,5,-1
 57 0 l 1,0,-1
EndSplineSet
Validated: 1
EndChar

StartChar: M
Encoding: 77 77 29
Width: 928
GlyphClass: 1
Flags: W
LayerCount: 2
Fore
SplineSet
56 0 m 1,0,-1
 56 720 l 1,1,-1
 193 720 l 1,2,-1
 463 398 l 1,3,-1
 732 720 l 1,4,-1
 870 720 l 1,5,-1
 870 0 l 1,6,-1
 749 0 l 1,7,-1
 749 552 l 1,8,-1
 463 211 l 1,9,-1
 176 551 l 1,10,-1
 176 0 l 1,11,-1
 56 0 l 1,0,-1
EndSplineSet
Validated: 1
Substitution2: "'salt' Stylistic Alternatives in Latin lookup 3 subtable" M.alt
Substitution2: "'aalt' Access All Alternates in Latin lookup 0 subtable" M.alt
EndChar

StartChar: N
Encoding: 78 78 30
Width: 832
GlyphClass: 2
Flags: W
AnchorPoint: "Anchor-1" 403 0 basechar 0
AnchorPoint: "Anchor-0" 403 720 basechar 0
LayerCount: 2
Fore
SplineSet
56 0 m 1,0,-1
 56 720 l 1,1,-1
 193 720 l 1,2,-1
 655 170 l 1,3,-1
 655 720 l 1,4,-1
 776 720 l 1,5,-1
 776 0 l 1,6,-1
 639 0 l 1,7,-1
 176 551 l 1,8,-1
 176 0 l 1,9,-1
 56 0 l 1,0,-1
EndSplineSet
Validated: 1
Substitution2: "'salt' Stylistic Alternatives in Latin lookup 3 subtable" N.alt
Substitution2: "'aalt' Access All Alternates in Latin lookup 0 subtable" N.alt
EndChar

StartChar: O
Encoding: 79 79 32
Width: 828
GlyphClass: 2
Flags: W
AnchorPoint: "Anchor-1" 414 0 basechar 0
AnchorPoint: "Anchor-0" 414 720 basechar 0
LayerCount: 2
Fore
SplineSet
189 0 m 2,0,1
 152 0 152 0 121 18 c 128,-1,2
 90 36 90 36 72 67 c 128,-1,3
 54 98 54 98 54 135 c 2,4,-1
 54 585 l 2,5,6
 54 622 54 622 72 653 c 128,-1,7
 90 684 90 684 121 702 c 128,-1,8
 152 720 152 720 189 720 c 2,9,-1
 639 720 l 2,10,11
 676 720 676 720 706.5 702 c 128,-1,12
 737 684 737 684 755.5 653 c 128,-1,13
 774 622 774 622 774 585 c 2,14,-1
 774 135 l 2,15,16
 774 98 774 98 755.5 67 c 128,-1,17
 737 36 737 36 706.5 18 c 128,-1,18
 676 0 676 0 639 0 c 2,19,-1
 189 0 l 2,0,1
192 121 m 2,20,-1
 634 121 l 2,21,22
 642 121 642 121 647.5 126 c 128,-1,23
 653 131 653 131 653 139 c 2,24,-1
 653 581 l 2,25,26
 653 589 653 589 647.5 594 c 128,-1,27
 642 599 642 599 634 599 c 2,28,-1
 192 599 l 2,29,30
 185 599 185 599 179.5 594 c 128,-1,31
 174 589 174 589 174 581 c 2,32,-1
 174 139 l 2,33,34
 174 131 174 131 179.5 126 c 128,-1,35
 185 121 185 121 192 121 c 2,20,-1
EndSplineSet
Validated: 1
Substitution2: "'salt' Stylistic Alternatives in Latin lookup 3 subtable" O.alt
Substitution2: "'aalt' Access All Alternates in Latin lookup 0 subtable" O.alt
EndChar

StartChar: OE
Encoding: 338 338 38
Width: 1374
GlyphClass: 1
Flags: W
LayerCount: 2
Fore
SplineSet
188 0 m 2,0,1
 151 0 151 0 120 18 c 128,-1,2
 89 36 89 36 71 67 c 128,-1,3
 53 98 53 98 53 135 c 2,4,-1
 53 585 l 2,5,6
 53 622 53 622 71 653 c 128,-1,7
 89 684 89 684 120 702 c 128,-1,8
 151 720 151 720 188 720 c 2,9,-1
 1314 720 l 1,10,-1
 1314 599 l 1,11,-1
 773 599 l 1,12,-1
 773 421 l 1,13,-1
 1208 421 l 1,14,-1
 1208 299 l 1,15,-1
 773 299 l 1,16,-1
 773 121 l 1,17,-1
 1314 121 l 1,18,-1
 1314 0 l 1,19,-1
 188 0 l 2,0,1
193 121 m 2,20,-1
 635 121 l 2,21,22
 642 121 642 121 647.5 126 c 128,-1,23
 653 131 653 131 653 139 c 2,24,-1
 653 581 l 2,25,26
 653 589 653 589 647.5 594 c 128,-1,27
 642 599 642 599 635 599 c 2,28,-1
 193 599 l 2,29,30
 185 599 185 599 179.5 594 c 128,-1,31
 174 589 174 589 174 581 c 2,32,-1
 174 139 l 2,33,34
 174 131 174 131 179.5 126 c 128,-1,35
 185 121 185 121 193 121 c 2,20,-1
EndSplineSet
Validated: 1
EndChar

StartChar: P
Encoding: 80 80 39
Width: 791
GlyphClass: 1
Flags: W
LayerCount: 2
Fore
SplineSet
56 0 m 1,0,-1
 56 719 l 1,1,-1
 641 719 l 2,2,3
 678 719 678 719 708.5 700.5 c 128,-1,4
 739 682 739 682 757.5 651.5 c 128,-1,5
 776 621 776 621 776 584 c 2,6,-1
 776 386 l 2,7,8
 776 350 776 350 757.5 319 c 128,-1,9
 739 288 739 288 708.5 270 c 128,-1,10
 678 252 678 252 641 252 c 2,11,-1
 176 251 l 1,12,-1
 176 0 l 1,13,-1
 56 0 l 1,0,-1
194 373 m 2,14,-1
 636 373 l 2,15,16
 644 373 644 373 649.5 378 c 128,-1,17
 655 383 655 383 655 391 c 2,18,-1
 655 581 l 2,19,20
 655 588 655 588 649.5 593.5 c 128,-1,21
 644 599 644 599 636 599 c 2,22,-1
 194 599 l 2,23,24
 187 599 187 599 181.5 593.5 c 128,-1,25
 176 588 176 588 176 581 c 2,26,-1
 176 391 l 2,27,28
 176 383 176 383 181.5 378 c 128,-1,29
 187 373 187 373 194 373 c 2,14,-1
EndSplineSet
Validated: 1
EndChar

StartChar: Q
Encoding: 81 81 40
Width: 884
GlyphClass: 2
Flags: W
AnchorPoint: "Anchor-1" 414 0 basechar 0
AnchorPoint: "Anchor-0" 414 720 basechar 0
LayerCount: 2
Fore
SplineSet
632 0 m 1,0,-1
 632 93 l 1,1,-1
 774 140 l 1,2,-1
 774 121 l 1,3,-1
 862 121 l 1,4,-1
 862 0 l 1,5,-1
 632 0 l 1,0,-1
189 0 m 2,6,7
 152 0 152 0 121 18 c 128,-1,8
 90 36 90 36 72 67 c 128,-1,9
 54 98 54 98 54 135 c 2,10,-1
 54 585 l 2,11,12
 54 622 54 622 72 653 c 128,-1,13
 90 684 90 684 121 702 c 128,-1,14
 152 720 152 720 189 720 c 2,15,-1
 639 720 l 2,16,17
 676 720 676 720 706.5 702 c 128,-1,18
 737 684 737 684 755.5 653 c 128,-1,19
 774 622 774 622 774 585 c 2,20,-1
 774 135 l 2,21,22
 774 98 774 98 755.5 67 c 128,-1,23
 737 36 737 36 706.5 18 c 128,-1,24
 676 0 676 0 639 0 c 2,25,-1
 189 0 l 2,6,7
192 121 m 2,26,-1
 634 121 l 2,27,28
 642 121 642 121 647.5 126 c 128,-1,29
 653 131 653 131 653 139 c 2,30,-1
 653 581 l 2,31,32
 653 589 653 589 647.5 594 c 128,-1,33
 642 599 642 599 634 599 c 2,34,-1
 192 599 l 2,35,36
 185 599 185 599 179.5 594 c 128,-1,37
 174 589 174 589 174 581 c 2,38,-1
 174 139 l 2,39,40
 174 131 174 131 179.5 126 c 128,-1,41
 185 121 185 121 192 121 c 2,26,-1
EndSplineSet
Validated: 5
Substitution2: "'salt' Stylistic Alternatives in Latin lookup 3 subtable" Q.alt
Substitution2: "'aalt' Access All Alternates in Latin lookup 0 subtable" Q.alt
EndChar

StartChar: R
Encoding: 82 82 41
Width: 825
GlyphClass: 1
Flags: W
LayerCount: 2
Fore
SplineSet
638 0 m 1,0,-1
 417 264 l 1,1,-1
 574 264 l 1,2,-1
 773 28 l 1,3,-1
 773 0 l 1,4,-1
 638 0 l 1,0,-1
56 0 m 1,5,-1
 56 719 l 1,6,-1
 641 719 l 2,7,8
 678 719 678 719 708.5 700.5 c 128,-1,9
 739 682 739 682 757.5 651.5 c 128,-1,10
 776 621 776 621 776 584 c 2,11,-1
 776 386 l 2,12,13
 776 350 776 350 757.5 319 c 128,-1,14
 739 288 739 288 708.5 270 c 128,-1,15
 678 252 678 252 641 252 c 2,16,-1
 176 251 l 1,17,-1
 176 0 l 1,18,-1
 56 0 l 1,5,-1
194 373 m 2,19,-1
 636 373 l 2,20,21
 644 373 644 373 649.5 378 c 128,-1,22
 655 383 655 383 655 391 c 2,23,-1
 655 581 l 2,24,25
 655 588 655 588 649.5 593.5 c 128,-1,26
 644 599 644 599 636 599 c 2,27,-1
 194 599 l 2,28,29
 187 599 187 599 181.5 593.5 c 128,-1,30
 176 588 176 588 176 581 c 2,31,-1
 176 391 l 2,32,33
 176 383 176 383 181.5 378 c 128,-1,34
 187 373 187 373 194 373 c 2,19,-1
EndSplineSet
Validated: 5
Substitution2: "'salt' Stylistic Alternatives in Latin lookup 3 subtable" R.alt
Substitution2: "'aalt' Access All Alternates in Latin lookup 0 subtable" R.alt
EndChar

StartChar: S
Encoding: 83 83 42
Width: 825
GlyphClass: 2
Flags: W
AnchorPoint: "Anchor-1" 414 0 basechar 0
AnchorPoint: "Anchor-0" 414 720 basechar 0
LayerCount: 2
Fore
SplineSet
187 0 m 2,0,1
 150 0 150 0 119.5 18 c 128,-1,2
 89 36 89 36 71 67 c 128,-1,3
 53 98 53 98 53 135 c 2,4,-1
 53 183 l 1,5,-1
 173 183 l 1,6,-1
 173 139 l 2,7,8
 173 131 173 131 178 126 c 128,-1,9
 183 121 183 121 191 121 c 2,10,-1
 633 121 l 2,11,12
 641 121 641 121 646.5 126 c 128,-1,13
 652 131 652 131 652 139 c 2,14,-1
 652 282 l 2,15,16
 652 289 652 289 646.5 294 c 128,-1,17
 641 299 641 299 633 299 c 2,18,-1
 187 299 l 2,19,20
 150 299 150 299 119.5 317.5 c 128,-1,21
 89 336 89 336 71 366.5 c 128,-1,22
 53 397 53 397 53 434 c 2,23,-1
 53 585 l 2,24,25
 53 622 53 622 71 653 c 128,-1,26
 89 684 89 684 119.5 702 c 128,-1,27
 150 720 150 720 187 720 c 2,28,-1
 638 720 l 2,29,30
 675 720 675 720 705.5 702 c 128,-1,31
 736 684 736 684 754.5 653 c 128,-1,32
 773 622 773 622 773 585 c 2,33,-1
 773 537 l 1,34,-1
 652 537 l 1,35,-1
 652 581 l 2,36,37
 652 589 652 589 646.5 594 c 128,-1,38
 641 599 641 599 633 599 c 2,39,-1
 191 599 l 2,40,41
 183 599 183 599 178 594 c 128,-1,42
 173 589 173 589 173 581 c 2,43,-1
 173 438 l 2,44,45
 173 431 173 431 178 426 c 128,-1,46
 183 421 183 421 191 421 c 2,47,-1
 638 421 l 2,48,49
 675 421 675 421 705.5 402.5 c 128,-1,50
 736 384 736 384 754.5 353.5 c 128,-1,51
 773 323 773 323 773 286 c 2,52,-1
 773 135 l 2,53,54
 773 98 773 98 754.5 67 c 128,-1,55
 736 36 736 36 705.5 18 c 128,-1,56
 675 0 675 0 638 0 c 2,57,-1
 187 0 l 2,0,1
EndSplineSet
Validated: 1
Substitution2: "'salt' Stylistic Alternatives in Latin lookup 3 subtable" S.alt
Substitution2: "'aalt' Access All Alternates in Latin lookup 0 subtable" S.alt
EndChar

StartChar: T
Encoding: 84 84 44
Width: 759
GlyphClass: 1
Flags: W
LayerCount: 2
Fore
SplineSet
320 0 m 1,0,-1
 320 0 l 1,1,-1
 320 599 l 1,2,-1
 20 599 l 1,3,-1
 20 720 l 1,4,-1
 740 720 l 1,5,-1
 740 599 l 1,6,-1
 441 599 l 1,7,-1
 441 0 l 1,8,-1
 320 0 l 1,0,-1
EndSplineSet
Validated: 5
EndChar

StartChar: U
Encoding: 85 85 45
Width: 828
GlyphClass: 2
Flags: W
AnchorPoint: "Anchor-1" 414 0 basechar 0
AnchorPoint: "Anchor-0" 414 720 basechar 0
LayerCount: 2
Fore
SplineSet
189 0 m 1,0,1
 152 0 152 0 121 18 c 128,-1,2
 90 36 90 36 72 67 c 128,-1,3
 54 98 54 98 54 135 c 2,4,-1
 54 720 l 1,5,-1
 174 720 l 1,6,-1
 174 139 l 2,7,8
 174 131 174 131 179.5 126 c 128,-1,9
 185 121 185 121 192 121 c 2,10,-1
 634 121 l 2,11,12
 642 121 642 121 647.5 126 c 128,-1,13
 653 131 653 131 653 139 c 2,14,-1
 653 720 l 1,15,-1
 774 720 l 1,16,-1
 774 135 l 2,17,18
 774 98 774 98 755.5 67 c 128,-1,19
 737 36 737 36 706.5 18 c 128,-1,20
 676 0 676 0 639 0 c 2,21,-1
 189 0 l 1,22,-1
 189 0 l 1,0,1
EndSplineSet
Validated: 5
EndChar

StartChar: V
Encoding: 86 86 50
Width: 1003
GlyphClass: 1
Flags: W
LayerCount: 2
Fore
SplineSet
452 0 m 1,0,-1
 452 0 l 1,1,-1
 35 720 l 1,2,-1
 175 720 l 1,3,-1
 508 141 l 1,4,-1
 842 720 l 1,5,-1
 981 720 l 1,6,-1
 564 0 l 1,7,-1
 452 0 l 1,0,-1
EndSplineSet
Validated: 5
Substitution2: "'ss02' Style Set 2 in Latin lookup 5 subtable" V.alt2
Substitution2: "'ss01' Style Set 1 in Latin lookup 4 subtable" V.alt
Substitution2: "'salt' Stylistic Alternatives in Latin lookup 3 subtable" V.alt3
AlternateSubs2: "'aalt' Access All Alternates in Latin lookup 1 subtable" V.alt V.alt2 V.alt3
EndChar

StartChar: W
Encoding: 87 87 51
Width: 1179
GlyphClass: 1
Flags: W
LayerCount: 2
Fore
SplineSet
297 0 m 1,0,-1
 297 0 l 1,1,-1
 35 720 l 1,2,-1
 163 720 l 1,3,-1
 345 221 l 1,4,-1
 527 720 l 1,5,-1
 649 720 l 1,6,-1
 832 221 l 1,7,-1
 1014 720 l 1,8,-1
 1142 720 l 1,9,-1
 880 0 l 1,10,-1
 783 0 l 1,11,-1
 588 535 l 1,12,-1
 393 0 l 1,13,-1
 297 0 l 1,0,-1
EndSplineSet
Validated: 5
Substitution2: "'ss02' Style Set 2 in Latin lookup 5 subtable" W.alt2
Substitution2: "'ss01' Style Set 1 in Latin lookup 4 subtable" W.alt
Substitution2: "'salt' Stylistic Alternatives in Latin lookup 3 subtable" W.alt4
AlternateSubs2: "'aalt' Access All Alternates in Latin lookup 1 subtable" W.alt W.alt2 W.alt4
EndChar

StartChar: X
Encoding: 88 88 52
Width: 812
GlyphClass: 1
Flags: W
LayerCount: 2
Fore
SplineSet
46 0 m 1,0,-1
 46 0 l 1,1,-1
 46 28 l 1,2,-1
 324 360 l 1,3,-1
 46 692 l 1,4,-1
 46 720 l 1,5,-1
 180 720 l 1,6,-1
 404 455 l 1,7,-1
 627 720 l 1,8,-1
 761 720 l 1,9,-1
 761 692 l 1,10,-1
 482 360 l 1,11,-1
 761 29 l 1,12,-1
 761 0 l 1,13,-1
 627 0 l 1,14,-1
 403 265 l 1,15,-1
 180 0 l 1,16,-1
 46 0 l 1,0,-1
EndSplineSet
Validated: 5
Substitution2: "'salt' Stylistic Alternatives in Latin lookup 3 subtable" X.alt
Substitution2: "'aalt' Access All Alternates in Latin lookup 0 subtable" X.alt
EndChar

StartChar: Y
Encoding: 89 89 53
Width: 806
GlyphClass: 2
Flags: W
AnchorPoint: "Anchor-0" 402 720 basechar 0
LayerCount: 2
Fore
SplineSet
342 0 m 1,0,-1
 342 0 l 1,1,-1
 342 270 l 1,2,-1
 10 720 l 1,3,-1
 152 720 l 1,4,-1
 403 404 l 1,5,-1
 652 720 l 1,6,-1
 796 720 l 1,7,-1
 463 269 l 1,8,-1
 463 0 l 1,9,-1
 342 0 l 1,0,-1
EndSplineSet
Validated: 1048581
Substitution2: "'salt' Stylistic Alternatives in Latin lookup 3 subtable" Y.alt
Substitution2: "'aalt' Access All Alternates in Latin lookup 0 subtable" Y.alt
EndChar

StartChar: Z
Encoding: 90 90 56
Width: 821
GlyphClass: 2
Flags: W
AnchorPoint: "Anchor-0" 411 720 basechar 0
LayerCount: 2
Fore
SplineSet
51 0 m 1,0,-1
 51 0 l 1,1,-1
 51 136 l 1,2,-1
 602 599 l 1,3,-1
 51 599 l 1,4,-1
 51 720 l 1,5,-1
 771 720 l 1,6,-1
 771 584 l 1,7,-1
 220 121 l 1,8,-1
 771 121 l 1,9,-1
 771 0 l 1,10,-1
 51 0 l 1,0,-1
EndSplineSet
Validated: 1048581
Substitution2: "'salt' Stylistic Alternatives in Latin lookup 3 subtable" Z.alt
Substitution2: "'aalt' Access All Alternates in Latin lookup 0 subtable" Z.alt
EndChar

StartChar: A.alt
Encoding: 65537 -1 58
Width: 774
GlyphClass: 1
Flags: W
LayerCount: 2
Fore
SplineSet
2 0 m 1,0,-1
 2 0 l 1,1,-1
 2 27 l 1,2,-1
 581 720 l 1,3,-1
 716 720 l 1,4,-1
 716 0 l 1,5,-1
 596 0 l 1,6,-1
 596 187 l 1,7,-1
 292 187 l 1,8,-1
 135 0 l 1,9,-1
 2 0 l 1,0,-1
393 307 m 1,10,-1
 393 307 l 1,11,-1
 596 307 l 1,12,-1
 596 546 l 1,13,-1
 393 307 l 1,10,-1
EndSplineSet
Validated: 5
EndChar

StartChar: C.alt
Encoding: 65538 -1 59
Width: 822
GlyphClass: 1
Flags: W
LayerCount: 2
Fore
SplineSet
187 0 m 1,0,1
 150 0 150 0 119 18 c 128,-1,2
 88 36 88 36 70 67 c 128,-1,3
 52 98 52 98 52 135 c 2,4,-1
 52 585 l 2,5,6
 52 622 52 622 70 653 c 128,-1,7
 88 684 88 684 119 702 c 128,-1,8
 150 720 150 720 187 720 c 2,9,-1
 637 720 l 2,10,11
 669 720 669 720 696.5 704.5 c 128,-1,12
 724 689 724 689 744 664 c 128,-1,13
 764 639 764 639 772 609 c 1,14,-1
 773 494 l 1,15,-1
 652 494 l 1,16,-1
 652 599 l 1,17,-1
 208 599 l 2,18,19
 193 599 193 599 182.5 589 c 128,-1,20
 172 579 172 579 172 564 c 2,21,-1
 172 156 l 2,22,23
 172 141 172 141 182.5 131 c 128,-1,24
 193 121 193 121 208 121 c 2,25,-1
 652 121 l 1,26,-1
 652 226 l 1,27,-1
 770 226 l 1,28,-1
 770 112 l 1,29,30
 764 82 764 82 744 56.5 c 128,-1,31
 724 31 724 31 696.5 15.5 c 128,-1,32
 669 0 669 0 637 0 c 2,33,-1
 187 0 l 1,34,-1
 187 0 l 1,0,1
EndSplineSet
Validated: 5
EndChar

StartChar: I.alt
Encoding: 65539 -1 60
Width: 818
GlyphClass: 1
Flags: W
LayerCount: 2
Fore
SplineSet
49 0 m 1,0,-1
 49 0 l 1,1,-1
 49 121 l 1,2,-1
 348 121 l 1,3,-1
 348 599 l 1,4,-1
 49 599 l 1,5,-1
 49 720 l 1,6,-1
 769 720 l 1,7,-1
 769 599 l 1,8,-1
 470 599 l 1,9,-1
 470 121 l 1,10,-1
 769 121 l 1,11,-1
 769 0 l 1,12,-1
 49 0 l 1,0,-1
EndSplineSet
Validated: 5
EndChar

StartChar: J.alt
Encoding: 65540 -1 61
Width: 645
GlyphClass: 1
Flags: W
LayerCount: 2
Fore
SplineSet
3 0 m 1,0,-1
 3 0 l 1,1,-1
 3 121 l 1,2,-1
 457 121 l 2,3,4
 464 121 464 121 469.5 126 c 128,-1,5
 475 131 475 131 475 139 c 2,6,-1
 475 720 l 1,7,-1
 596 720 l 1,8,-1
 596 135 l 2,9,10
 596 98 596 98 577.5 67 c 128,-1,11
 559 36 559 36 528.5 18 c 128,-1,12
 498 0 498 0 461 0 c 2,13,-1
 3 0 l 1,0,-1
EndSplineSet
Validated: 5
EndChar

StartChar: K.alt
Encoding: 65541 -1 62
Width: 829
GlyphClass: 1
Flags: W
LayerCount: 2
Fore
SplineSet
54 0 m 1,0,-1
 54 0 l 1,1,-1
 54 720 l 1,2,-1
 174 720 l 1,3,-1
 174 435 l 2,4,5
 174 428 174 428 179.5 423 c 128,-1,6
 185 418 185 418 192 418 c 2,7,-1
 635 418 l 2,8,9
 643 418 643 418 648.5 423 c 128,-1,10
 654 428 654 428 654 435 c 2,11,-1
 654 720 l 1,12,-1
 775 720 l 1,13,-1
 775 451 l 2,14,15
 775 418 775 418 756 394 c 128,-1,16
 737 370 737 370 698 357 c 1,17,18
 736 344 736 344 755 320 c 128,-1,19
 774 296 774 296 774 263 c 2,20,-1
 774 0 l 1,21,-1
 653 0 l 1,22,-1
 653 279 l 2,23,24
 653 286 653 286 648 291 c 128,-1,25
 643 296 643 296 635 296 c 2,26,-1
 192 296 l 2,27,28
 185 296 185 296 179.5 291 c 128,-1,29
 174 286 174 286 174 279 c 2,30,-1
 174 0 l 1,31,-1
 54 0 l 1,0,-1
EndSplineSet
Validated: 5
EndChar

StartChar: M.alt
Encoding: 65542 -1 63
Width: 1155
GlyphClass: 1
Flags: W
LayerCount: 2
Fore
SplineSet
54 0 m 1,0,-1
 54 0 l 1,1,-1
 54 720 l 1,2,-1
 961 720 l 2,3,4
 998 720 998 720 1028.5 702 c 128,-1,5
 1059 684 1059 684 1077 653 c 128,-1,6
 1095 622 1095 622 1095 585 c 2,7,-1
 1095 0 l 1,8,-1
 974 0 l 1,9,-1
 974 581 l 2,10,11
 974 589 974 589 969 594 c 128,-1,12
 964 599 964 599 956 599 c 2,13,-1
 623 599 l 1,14,-1
 623 0 l 1,15,-1
 502 0 l 1,16,-1
 502 581 l 2,17,18
 502 589 502 589 497 594 c 128,-1,19
 492 599 492 599 485 599 c 2,20,-1
 174 599 l 1,21,-1
 174 0 l 1,22,-1
 54 0 l 1,0,-1
EndSplineSet
Validated: 5
EndChar

StartChar: N.alt
Encoding: 65543 -1 64
Width: 827
GlyphClass: 1
Flags: W
LayerCount: 2
Fore
SplineSet
54 0 m 1,0,-1
 54 0 l 1,1,-1
 54 720 l 1,2,-1
 639 720 l 2,3,4
 676 720 676 720 707 702 c 128,-1,5
 738 684 738 684 756 653 c 128,-1,6
 774 622 774 622 774 585 c 2,7,-1
 774 0 l 1,8,-1
 653 0 l 1,9,-1
 653 581 l 2,10,11
 653 589 653 589 647.5 594 c 128,-1,12
 642 599 642 599 634 599 c 2,13,-1
 174 599 l 1,14,-1
 174 0 l 1,15,-1
 54 0 l 1,0,-1
EndSplineSet
Validated: 5
EndChar

StartChar: O.alt
Encoding: 65544 -1 65
Width: 824
GlyphClass: 2
Flags: W
AnchorPoint: "Anchor-1" 414 0 basechar 0
AnchorPoint: "Anchor-0" 414 720 basechar 0
LayerCount: 2
Fore
SplineSet
351 299 m 1,0,-1
 351 299 l 1,1,-1
 351 421 l 1,2,-1
 473 421 l 1,3,-1
 473 299 l 1,4,-1
 351 299 l 1,0,-1
189 0 m 2,5,6
 152 0 152 0 121 18 c 128,-1,7
 90 36 90 36 72 67 c 128,-1,8
 54 98 54 98 54 135 c 2,9,-1
 54 585 l 2,10,11
 54 622 54 622 72 653 c 128,-1,12
 90 684 90 684 121 702 c 128,-1,13
 152 720 152 720 189 720 c 2,14,-1
 639 720 l 2,15,16
 676 720 676 720 706.5 702 c 128,-1,17
 737 684 737 684 755.5 653 c 128,-1,18
 774 622 774 622 774 585 c 2,19,-1
 774 135 l 2,20,21
 774 98 774 98 755.5 67 c 128,-1,22
 737 36 737 36 706.5 18 c 128,-1,23
 676 0 676 0 639 0 c 2,24,-1
 189 0 l 2,5,6
192 121 m 2,25,-1
 634 121 l 2,26,27
 642 121 642 121 647.5 126 c 128,-1,28
 653 131 653 131 653 139 c 2,29,-1
 653 581 l 2,30,31
 653 589 653 589 647.5 594 c 128,-1,32
 642 599 642 599 634 599 c 2,33,-1
 192 599 l 2,34,35
 185 599 185 599 179.5 594 c 128,-1,36
 174 589 174 589 174 581 c 2,37,-1
 174 139 l 2,38,39
 174 131 174 131 179.5 126 c 128,-1,40
 185 121 185 121 192 121 c 2,25,-1
EndSplineSet
Validated: 5
EndChar

StartChar: Q.alt
Encoding: 65545 -1 66
Width: 868
GlyphClass: 2
Flags: W
AnchorPoint: "Anchor-1" 414 0 basechar 0
AnchorPoint: "Anchor-0" 414 720 basechar 0
LayerCount: 2
Fore
SplineSet
353 -117 m 1,0,-1
 353 16 l 1,1,-1
 475 16 l 1,2,-1
 475 -117 l 1,3,-1
 353 -117 l 1,0,-1
189 0 m 2,4,5
 152 0 152 0 121 18 c 128,-1,6
 90 36 90 36 72 67 c 128,-1,7
 54 98 54 98 54 135 c 2,8,-1
 54 585 l 2,9,10
 54 622 54 622 72 653 c 128,-1,11
 90 684 90 684 121 702 c 128,-1,12
 152 720 152 720 189 720 c 2,13,-1
 639 720 l 2,14,15
 676 720 676 720 706.5 702 c 128,-1,16
 737 684 737 684 755.5 653 c 128,-1,17
 774 622 774 622 774 585 c 2,18,-1
 774 135 l 2,19,20
 774 98 774 98 755.5 67 c 128,-1,21
 737 36 737 36 706.5 18 c 128,-1,22
 676 0 676 0 639 0 c 2,23,-1
 189 0 l 2,4,5
192 121 m 2,24,-1
 634 121 l 2,25,26
 642 121 642 121 647.5 126 c 128,-1,27
 653 131 653 131 653 139 c 2,28,-1
 653 581 l 2,29,30
 653 589 653 589 647.5 594 c 128,-1,31
 642 599 642 599 634 599 c 2,32,-1
 192 599 l 2,33,34
 185 599 185 599 179.5 594 c 128,-1,35
 174 589 174 589 174 581 c 2,36,-1
 174 139 l 2,37,38
 174 131 174 131 179.5 126 c 128,-1,39
 185 121 185 121 192 121 c 2,24,-1
EndSplineSet
Validated: 5
EndChar

StartChar: R.alt
Encoding: 65546 -1 67
Width: 826
GlyphClass: 1
Flags: W
LayerCount: 2
Fore
SplineSet
54 0 m 1,0,-1
 54 721 l 1,1,-1
 639 720 l 2,2,3
 676 720 676 720 707 701 c 128,-1,4
 738 682 738 682 756 651.5 c 128,-1,5
 774 621 774 621 774 584 c 2,6,-1
 774 386 l 2,7,8
 774 370 774 370 767 357.5 c 128,-1,9
 760 345 760 345 749 336 c 128,-1,10
 738 327 738 327 726 321 c 128,-1,11
 714 315 714 315 705 312 c 1,12,13
 715 309 715 309 726.5 303 c 128,-1,14
 738 297 738 297 749 288 c 128,-1,15
 760 279 760 279 767 266.5 c 128,-1,16
 774 254 774 254 774 238 c 2,17,-1
 774 0 l 1,18,-1
 653 0 l 1,19,-1
 653 234 l 2,20,21
 653 241 653 241 647.5 246.5 c 128,-1,22
 642 252 642 252 634 252 c 2,23,-1
 192 252 l 2,24,25
 185 252 185 252 179.5 246.5 c 128,-1,26
 174 241 174 241 174 234 c 2,27,-1
 174 0 l 1,28,-1
 54 0 l 1,0,-1
192 373 m 2,29,-1
 634 373 l 2,30,31
 642 373 642 373 647.5 378 c 128,-1,32
 653 383 653 383 653 391 c 2,33,-1
 653 581 l 2,34,35
 653 588 653 588 647.5 593.5 c 128,-1,36
 642 599 642 599 634 599 c 2,37,-1
 192 599 l 2,38,39
 185 599 185 599 179.5 593.5 c 128,-1,40
 174 588 174 588 174 581 c 2,41,-1
 174 391 l 2,42,43
 174 383 174 383 179.5 378 c 128,-1,44
 185 373 185 373 192 373 c 2,29,-1
EndSplineSet
Validated: 1
EndChar

StartChar: S.alt
Encoding: 65547 -1 68
Width: 812
GlyphClass: 1
Flags: W
LayerCount: 2
Fore
SplineSet
46 0 m 1,0,-1
 46 121 l 1,1,-1
 627 121 l 2,2,3
 635 121 635 121 640 126 c 128,-1,4
 645 131 645 131 645 139 c 2,5,-1
 645 282 l 2,6,7
 645 289 645 289 640 294 c 128,-1,8
 635 299 635 299 627 299 c 2,9,-1
 181 299 l 2,10,11
 144 299 144 299 113 317.5 c 128,-1,12
 82 336 82 336 64 366.5 c 128,-1,13
 46 397 46 397 46 434 c 2,14,-1
 46 585 l 2,15,16
 46 622 46 622 64 653 c 128,-1,17
 82 684 82 684 113 702 c 128,-1,18
 144 720 144 720 181 720 c 2,19,-1
 766 720 l 1,20,-1
 766 599 l 1,21,-1
 185 599 l 2,22,23
 177 599 177 599 172 594 c 128,-1,24
 167 589 167 589 167 581 c 2,25,-1
 167 438 l 2,26,27
 167 431 167 431 172 426 c 128,-1,28
 177 421 177 421 185 421 c 2,29,-1
 631 421 l 2,30,31
 668 421 668 421 699 402.5 c 128,-1,32
 730 384 730 384 748 353.5 c 128,-1,33
 766 323 766 323 766 286 c 2,34,-1
 766 135 l 2,35,36
 766 98 766 98 748 67 c 128,-1,37
 730 36 730 36 699 18 c 128,-1,38
 668 0 668 0 631 0 c 2,39,-1
 46 0 l 1,0,-1
EndSplineSet
Validated: 1
EndChar

StartChar: V.alt
Encoding: 65548 -1 69
Width: 774
GlyphClass: 1
Flags: W
LayerCount: 2
Fore
SplineSet
54 0 m 1,0,-1
 54 0 l 1,1,-1
 54 720 l 1,2,-1
 174 720 l 1,3,-1
 174 167 l 1,4,-1
 636 720 l 1,5,-1
 769 720 l 1,6,-1
 769 686 l 1,7,-1
 190 0 l 1,8,-1
 54 0 l 1,0,-1
EndSplineSet
Validated: 5
EndChar

StartChar: W.alt
Encoding: 65549 -1 70
Width: 1159
GlyphClass: 1
Flags: W
LayerCount: 2
Fore
SplineSet
65 0 m 1,0,-1
 65 0 l 1,1,-1
 65 720 l 1,2,-1
 186 720 l 1,3,-1
 186 169 l 1,4,-1
 652 720 l 1,5,-1
 786 720 l 1,6,-1
 786 692 l 1,7,-1
 559 427 l 1,8,-1
 559 169 l 1,9,-1
 1024 720 l 1,10,-1
 1159 720 l 1,11,-1
 1159 692 l 1,12,-1
 575 0 l 1,13,-1
 438 0 l 1,14,-1
 438 281 l 1,15,-1
 203 0 l 1,16,-1
 65 0 l 1,0,-1
EndSplineSet
Validated: 5
EndChar

StartChar: X.alt
Encoding: 65550 -1 71
Width: 829
GlyphClass: 1
Flags: W
LayerCount: 2
Fore
SplineSet
55 0 m 1,0,-1
 55 263 l 2,1,2
 55 285 55 285 68 304.5 c 128,-1,3
 81 324 81 324 102 338 c 128,-1,4
 123 352 123 352 149 357 c 1,5,6
 124 362 124 362 102 376.5 c 128,-1,7
 80 391 80 391 67 410.5 c 128,-1,8
 54 430 54 430 54 451 c 2,9,-1
 54 720 l 1,10,-1
 174 720 l 1,11,-1
 174 435 l 2,12,13
 174 428 174 428 179.5 423 c 128,-1,14
 185 418 185 418 192 418 c 2,15,-1
 637 418 l 2,16,17
 644 418 644 418 649.5 423 c 128,-1,18
 655 428 655 428 655 435 c 2,19,-1
 655 720 l 1,20,-1
 775 720 l 1,21,-1
 775 451 l 2,22,23
 775 429 775 429 762 409.5 c 128,-1,24
 749 390 749 390 727.5 376 c 128,-1,25
 706 362 706 362 680 357 c 1,26,27
 706 352 706 352 727.5 338 c 128,-1,28
 749 324 749 324 762 304.5 c 128,-1,29
 775 285 775 285 775 263 c 2,30,-1
 775 0 l 1,31,-1
 655 0 l 1,32,-1
 655 279 l 2,33,34
 655 286 655 286 649.5 291 c 128,-1,35
 644 296 644 296 636 296 c 2,36,-1
 193 296 l 2,37,38
 185 296 185 296 179.5 291 c 128,-1,39
 174 286 174 286 174 279 c 2,40,-1
 175 0 l 1,41,-1
 55 0 l 1,0,-1
EndSplineSet
Validated: 1
EndChar

StartChar: Y.alt
Encoding: 65551 -1 72
Width: 824
GlyphClass: 1
Flags: W
LayerCount: 2
Fore
SplineSet
51 0 m 1,0,-1
 51 0 l 1,1,-1
 51 121 l 1,2,-1
 631 121 l 2,3,4
 639 121 639 121 644.5 126 c 128,-1,5
 650 131 650 131 650 139 c 2,6,-1
 650 282 l 2,7,8
 650 289 650 289 644.5 294 c 128,-1,9
 639 299 639 299 631 299 c 2,10,-1
 186 299 l 2,11,12
 149 299 149 299 118 317.5 c 128,-1,13
 87 336 87 336 69 366.5 c 128,-1,14
 51 397 51 397 51 434 c 2,15,-1
 51 720 l 1,16,-1
 171 720 l 1,17,-1
 171 438 l 2,18,19
 171 431 171 431 176.5 426 c 128,-1,20
 182 421 182 421 189 421 c 2,21,-1
 650 421 l 1,22,-1
 650 720 l 1,23,-1
 771 720 l 1,24,-1
 771 135 l 2,25,26
 771 98 771 98 753 67 c 128,-1,27
 735 36 735 36 704 18 c 128,-1,28
 673 0 673 0 636 0 c 2,29,-1
 51 0 l 1,0,-1
EndSplineSet
Validated: 5
EndChar

StartChar: Z.alt
Encoding: 65552 -1 73
Width: 818
GlyphClass: 1
Flags: W
LayerCount: 2
Fore
SplineSet
184 0 m 2,0,1
 147 0 147 0 116 18 c 128,-1,2
 85 36 85 36 67 67 c 128,-1,3
 49 98 49 98 49 135 c 2,4,-1
 49 286 l 2,5,6
 49 323 49 323 67 353.5 c 128,-1,7
 85 384 85 384 116 402.5 c 128,-1,8
 147 421 147 421 184 421 c 2,9,-1
 630 421 l 2,10,11
 638 421 638 421 643 426 c 128,-1,12
 648 431 648 431 648 438 c 2,13,-1
 648 581 l 2,14,15
 648 589 648 589 643 594 c 128,-1,16
 638 599 638 599 630 599 c 2,17,-1
 49 599 l 1,18,-1
 49 720 l 1,19,-1
 634 720 l 2,20,21
 671 720 671 720 702 702 c 128,-1,22
 733 684 733 684 751 653 c 128,-1,23
 769 622 769 622 769 585 c 2,24,-1
 769 434 l 2,25,26
 769 397 769 397 751 366.5 c 128,-1,27
 733 336 733 336 702 317.5 c 128,-1,28
 671 299 671 299 634 299 c 2,29,-1
 188 299 l 2,30,31
 180 299 180 299 175 294 c 128,-1,32
 170 289 170 289 170 282 c 2,33,-1
 170 139 l 2,34,35
 170 131 170 131 175 126 c 128,-1,36
 180 121 180 121 188 121 c 2,37,-1
 769 121 l 1,38,-1
 769 0 l 1,39,-1
 184 0 l 2,0,1
EndSplineSet
Validated: 1
EndChar

StartChar: A.alt2
Encoding: 65553 -1 74
Width: 774
GlyphClass: 1
Flags: W
LayerCount: 2
Fore
SplineSet
54 0 m 1,0,-1
 54 0 l 1,1,-1
 54 720 l 1,2,-1
 190 720 l 1,3,-1
 769 27 l 1,4,-1
 769 0 l 1,5,-1
 635 0 l 1,6,-1
 477 187 l 1,7,-1
 174 187 l 1,8,-1
 174 0 l 1,9,-1
 54 0 l 1,0,-1
174 307 m 1,10,-1
 174 307 l 1,11,-1
 378 307 l 1,12,-1
 174 546 l 1,13,-1
 174 307 l 1,10,-1
EndSplineSet
Validated: 5
EndChar

StartChar: V.alt2
Encoding: 65554 -1 75
Width: 774
GlyphClass: 1
Flags: W
LayerCount: 2
Fore
SplineSet
582 0 m 1,0,-1
 582 0 l 1,1,-1
 0 692 l 1,2,-1
 0 720 l 1,3,-1
 135 720 l 1,4,-1
 597 170 l 1,5,-1
 597 720 l 1,6,-1
 718 720 l 1,7,-1
 718 0 l 1,8,-1
 582 0 l 1,0,-1
EndSplineSet
Validated: 5
EndChar

StartChar: W.alt2
Encoding: 65555 -1 76
Width: 1148
GlyphClass: 1
Flags: W
LayerCount: 2
Fore
SplineSet
585 0 m 1,0,-1
 585 0 l 1,1,-1
 -1 692 l 1,2,-1
 -1 720 l 1,3,-1
 135 720 l 1,4,-1
 600 170 l 1,5,-1
 600 427 l 1,6,-1
 373 692 l 1,7,-1
 373 720 l 1,8,-1
 507 720 l 1,9,-1
 973 169 l 1,10,-1
 973 720 l 1,11,-1
 1094 720 l 1,12,-1
 1094 0 l 1,13,-1
 958 0 l 1,14,-1
 721 281 l 1,15,-1
 721 0 l 1,16,-1
 585 0 l 1,0,-1
EndSplineSet
Validated: 5
EndChar

StartChar: V.alt3
Encoding: 65556 -1 77
Width: 827
GlyphClass: 1
Flags: W
LayerCount: 2
Fore
SplineSet
188 0 m 1,0,1
 151 0 151 0 120 18 c 128,-1,2
 89 36 89 36 71 67 c 128,-1,3
 53 98 53 98 53 135 c 2,4,-1
 53 720 l 1,5,-1
 173 720 l 1,6,-1
 173 139 l 2,7,8
 173 131 173 131 178.5 126 c 128,-1,9
 184 121 184 121 191 121 c 2,10,-1
 652 121 l 1,11,-1
 652 720 l 1,12,-1
 773 720 l 1,13,-1
 773 0 l 1,14,-1
 188 0 l 1,15,-1
 188 0 l 1,0,1
EndSplineSet
Validated: 5
EndChar

StartChar: W.alt4
Encoding: 65557 -1 78
Width: 1155
GlyphClass: 1
Flags: W
LayerCount: 2
Fore
SplineSet
188 0 m 1,0,1
 151 0 151 0 120.5 18 c 128,-1,2
 90 36 90 36 71.5 67 c 128,-1,3
 53 98 53 98 53 135 c 2,4,-1
 53 720 l 1,5,-1
 173 720 l 1,6,-1
 173 139 l 2,7,8
 173 131 173 131 178.5 126 c 128,-1,9
 184 121 184 121 191 121 c 2,10,-1
 525 121 l 1,11,-1
 525 720 l 1,12,-1
 646 720 l 1,13,-1
 646 139 l 2,14,15
 646 131 646 131 651 126 c 128,-1,16
 656 121 656 121 664 121 c 2,17,-1
 973 121 l 1,18,-1
 973 720 l 1,19,-1
 1094 720 l 1,20,-1
 1094 0 l 1,21,-1
 188 0 l 1,22,-1
 188 0 l 1,0,1
EndSplineSet
Validated: 5
EndChar

StartChar: a
Encoding: 97 97 79
Width: 694
GlyphClass: 2
Flags: W
AnchorPoint: "Anchor-1" 364 0 basechar 0
AnchorPoint: "Anchor-0" 367 580 basechar 0
LayerCount: 2
Fore
SplineSet
186 0 m 2,0,1
 149 0 149 0 118.5 18.5 c 128,-1,2
 88 37 88 37 70 67 c 128,-1,3
 52 97 52 97 52 134 c 2,4,-1
 52 350 l 1,5,-1
 522 350 l 1,6,-1
 522 442 l 2,7,8
 522 450 522 450 516.5 455.5 c 128,-1,9
 511 461 511 461 503 461 c 2,10,-1
 52 461 l 1,11,-1
 52 580 l 1,12,-1
 507 580 l 2,13,14
 545 580 545 580 575 561.5 c 128,-1,15
 605 543 605 543 623 513 c 128,-1,16
 641 483 641 483 641 446 c 2,17,-1
 641 0 l 1,18,-1
 186 0 l 2,0,1
190 119 m 2,19,-1
 522 119 l 1,20,-1
 522 241 l 1,21,-1
 171 241 l 1,22,-1
 171 138 l 2,23,24
 171 130 171 130 176.5 124.5 c 128,-1,25
 182 119 182 119 190 119 c 2,19,-1
EndSplineSet
Validated: 1
Substitution2: "'salt' Stylistic Alternatives in Latin lookup 3 subtable" a.alt
Substitution2: "'smcp' Lowercase to Small Capitals in Latin lookup 2 subtable" a.sc
AlternateSubs2: "'aalt' Access All Alternates in Latin lookup 1 subtable" a.alt a.sc
EndChar

StartChar: ae
Encoding: 230 230 86
Width: 1178
GlyphClass: 1
Flags: W
LayerCount: 2
Fore
SplineSet
186 0 m 2,0,1
 149 0 149 0 118.5 18.5 c 128,-1,2
 88 37 88 37 70 67 c 128,-1,3
 52 97 52 97 52 134 c 2,4,-1
 52 350 l 1,5,-1
 522 350 l 1,6,-1
 522 442 l 2,7,8
 522 450 522 450 516.5 455.5 c 128,-1,9
 511 461 511 461 504 461 c 2,10,-1
 52 461 l 1,11,-1
 52 580 l 1,12,-1
 978 580 l 2,13,14
 1016 580 1016 580 1046 561.5 c 128,-1,15
 1076 543 1076 543 1094 513 c 128,-1,16
 1112 483 1112 483 1112 446 c 2,17,-1
 1112 230 l 1,18,-1
 642 230 l 1,19,-1
 642 136 l 2,20,21
 643 129 643 129 648.5 124 c 128,-1,22
 654 119 654 119 661 119 c 2,23,-1
 1112 119 l 1,24,-1
 1112 0 l 1,25,-1
 186 0 l 2,0,1
190 119 m 2,26,-1
 522 119 l 1,27,-1
 522 241 l 1,28,-1
 172 241 l 1,29,-1
 172 138 l 2,30,31
 172 130 172 130 177.5 124.5 c 128,-1,32
 183 119 183 119 190 119 c 2,26,-1
642 339 m 1,33,-1
 993 339 l 1,34,-1
 993 442 l 2,35,36
 993 450 993 450 987.5 455.5 c 128,-1,37
 982 461 982 461 974 461 c 2,38,-1
 661 461 l 2,39,40
 653 461 653 461 647.5 455.5 c 128,-1,41
 642 450 642 450 642 442 c 2,42,-1
 642 339 l 1,33,-1
EndSplineSet
Validated: 1
EndChar

StartChar: b
Encoding: 98 98 87
Width: 667
GlyphClass: 1
Flags: W
LayerCount: 2
Fore
SplineSet
54 0 m 1,0,-1
 54 0 l 1,1,-1
 54 770 l 1,2,-1
 173 770 l 1,3,-1
 173 580 l 1,4,-1
 510 580 l 2,5,6
 546 580 546 580 576.5 561.5 c 128,-1,7
 607 543 607 543 625 513 c 128,-1,8
 643 483 643 483 643 446 c 2,9,-1
 643 134 l 2,10,11
 643 97 643 97 625 67 c 128,-1,12
 607 37 607 37 576.5 18.5 c 128,-1,13
 546 0 546 0 510 0 c 2,14,-1
 54 0 l 1,0,-1
192 119 m 2,15,-1
 506 119 l 2,16,17
 513 119 513 119 518.5 124.5 c 128,-1,18
 524 130 524 130 524 138 c 2,19,-1
 524 442 l 2,20,21
 524 450 524 450 518.5 455.5 c 128,-1,22
 513 461 513 461 506 461 c 2,23,-1
 192 461 l 2,24,25
 185 461 185 461 179 455.5 c 128,-1,26
 173 450 173 450 173 442 c 2,27,-1
 173 138 l 2,28,29
 173 130 173 130 179 124.5 c 128,-1,30
 185 119 185 119 192 119 c 2,15,-1
EndSplineSet
Validated: 5
Substitution2: "'smcp' Lowercase to Small Capitals in Latin lookup 2 subtable" b.sc
Substitution2: "'aalt' Access All Alternates in Latin lookup 0 subtable" b.sc
EndChar

StartChar: c
Encoding: 99 99 88
Width: 695
GlyphClass: 2
Flags: W
AnchorPoint: "Anchor-1" 364 0 basechar 0
AnchorPoint: "Anchor-0" 367 580 basechar 0
LayerCount: 2
Fore
SplineSet
185 0 m 1,0,1
 148 0 148 0 118 18.5 c 128,-1,2
 88 37 88 37 69.5 67 c 128,-1,3
 51 97 51 97 51 134 c 2,4,-1
 51 446 l 2,5,6
 51 483 51 483 69.5 513 c 128,-1,7
 88 543 88 543 118 561.5 c 128,-1,8
 148 580 148 580 185 580 c 2,9,-1
 639 580 l 1,10,-1
 639 461 l 1,11,-1
 189 461 l 2,12,13
 181 461 181 461 175.5 455.5 c 128,-1,14
 170 450 170 450 170 442 c 2,15,-1
 170 138 l 2,16,17
 170 130 170 130 175.5 124.5 c 128,-1,18
 181 119 181 119 189 119 c 2,19,-1
 640 119 l 1,20,-1
 640 0 l 1,21,-1
 185 0 l 1,22,-1
 185 0 l 1,0,1
EndSplineSet
Validated: 5
Substitution2: "'smcp' Lowercase to Small Capitals in Latin lookup 2 subtable" c.sc
Substitution2: "'aalt' Access All Alternates in Latin lookup 0 subtable" c.sc
EndChar

StartChar: d
Encoding: 100 100 90
Width: 667
GlyphClass: 1
Flags: W
LayerCount: 2
Fore
SplineSet
157 0 m 1,0,1
 120 0 120 0 89.5 18.5 c 128,-1,2
 59 37 59 37 41 67 c 128,-1,3
 23 97 23 97 23 134 c 2,4,-1
 23 446 l 2,5,6
 23 483 23 483 41 513 c 128,-1,7
 59 543 59 543 89.5 561.5 c 128,-1,8
 120 580 120 580 157 580 c 2,9,-1
 494 580 l 1,10,-1
 494 770 l 1,11,-1
 613 770 l 1,12,-1
 613 0 l 1,13,-1
 157 0 l 1,14,-1
 157 0 l 1,0,1
162 119 m 2,15,-1
 475 119 l 2,16,17
 483 119 483 119 488.5 124.5 c 128,-1,18
 494 130 494 130 494 138 c 2,19,-1
 494 442 l 2,20,21
 494 450 494 450 488.5 455.5 c 128,-1,22
 483 461 483 461 475 461 c 2,23,-1
 162 461 l 2,24,25
 154 461 154 461 148.5 455.5 c 128,-1,26
 143 450 143 450 143 442 c 2,27,-1
 143 138 l 2,28,29
 143 130 143 130 148.5 124.5 c 128,-1,30
 154 119 154 119 162 119 c 2,15,-1
EndSplineSet
Validated: 5
Substitution2: "'smcp' Lowercase to Small Capitals in Latin lookup 2 subtable" d.sc
Substitution2: "'aalt' Access All Alternates in Latin lookup 0 subtable" d.sc
EndChar

StartChar: e
Encoding: 101 101 91
Width: 692
GlyphClass: 2
Flags: W
AnchorPoint: "Anchor-1" 346 0 basechar 0
AnchorPoint: "Anchor-0" 346 580 basechar 0
LayerCount: 2
Fore
SplineSet
185 0 m 1,0,1
 148 0 148 0 118 18.5 c 128,-1,2
 88 37 88 37 69.5 67 c 128,-1,3
 51 97 51 97 51 134 c 2,4,-1
 51 446 l 2,5,6
 51 483 51 483 69.5 513 c 128,-1,7
 88 543 88 543 118 561.5 c 128,-1,8
 148 580 148 580 185 580 c 2,9,-1
 506 580 l 2,10,11
 544 580 544 580 574 561.5 c 128,-1,12
 604 543 604 543 622 513 c 128,-1,13
 640 483 640 483 640 446 c 2,14,-1
 640 230 l 1,15,-1
 170 230 l 1,16,-1
 170 138 l 2,17,18
 170 130 170 130 175.5 124.5 c 128,-1,19
 181 119 181 119 189 119 c 2,20,-1
 640 119 l 1,21,-1
 640 0 l 1,22,-1
 185 0 l 1,23,-1
 185 0 l 1,0,1
170 339 m 1,24,-1
 521 339 l 1,25,-1
 521 442 l 2,26,27
 521 450 521 450 515.5 455.5 c 128,-1,28
 510 461 510 461 502 461 c 2,29,-1
 189 461 l 2,30,31
 181 461 181 461 175.5 455.5 c 128,-1,32
 170 450 170 450 170 442 c 2,33,-1
 170 339 l 1,24,-1
EndSplineSet
Validated: 5
Substitution2: "'smcp' Lowercase to Small Capitals in Latin lookup 2 subtable" e.sc
Substitution2: "'aalt' Access All Alternates in Latin lookup 0 subtable" e.sc
EndChar

StartChar: f
Encoding: 102 102 96
Width: 424
GlyphClass: 1
Flags: W
LayerCount: 2
Fore
SplineSet
53 0 m 1,0,-1
 53 0 l 1,1,-1
 53 636 l 2,2,3
 53 673 53 673 71 703.5 c 128,-1,4
 89 734 89 734 119.5 752 c 128,-1,5
 150 770 150 770 187 770 c 2,6,-1
 404 770 l 1,7,-1
 404 650 l 1,8,-1
 191 650 l 2,9,10
 183 650 183 650 177.5 644.5 c 128,-1,11
 172 639 172 639 172 632 c 2,12,-1
 172 580 l 1,13,-1
 404 580 l 1,14,-1
 404 461 l 1,15,-1
 172 461 l 1,16,-1
 172 0 l 1,17,-1
 53 0 l 1,0,-1
EndSplineSet
Validated: 5
Substitution2: "'smcp' Lowercase to Small Capitals in Latin lookup 2 subtable" f.sc
Substitution2: "'aalt' Access All Alternates in Latin lookup 0 subtable" f.sc
EndChar

StartChar: g
Encoding: 103 103 97
Width: 683
GlyphClass: 1
Flags: W
LayerCount: 2
Fore
SplineSet
140 -229 m 1,0,-1
 140 -229 l 1,1,-1
 140 -109 l 1,2,-1
 493 -109 l 2,3,4
 500 -109 500 -109 505.5 -103.5 c 128,-1,5
 511 -98 511 -98 511 -90 c 2,6,-1
 511 0 l 1,7,-1
 175 0 l 2,8,9
 139 0 139 0 108.5 18.5 c 128,-1,10
 78 37 78 37 59.5 67 c 128,-1,11
 41 97 41 97 41 134 c 2,12,-1
 41 446 l 2,13,14
 41 483 41 483 59.5 513 c 128,-1,15
 78 543 78 543 108.5 561.5 c 128,-1,16
 139 580 139 580 175 580 c 2,17,-1
 497 580 l 2,18,19
 534 580 534 580 564.5 561.5 c 128,-1,20
 595 543 595 543 612.5 513 c 128,-1,21
 630 483 630 483 630 446 c 2,22,-1
 630 -95 l 2,23,24
 630 -132 630 -132 612.5 -162.5 c 128,-1,25
 595 -193 595 -193 564.5 -211 c 128,-1,26
 534 -229 534 -229 497 -229 c 2,27,-1
 140 -229 l 1,0,-1
179 119 m 2,28,-1
 493 119 l 2,29,30
 500 119 500 119 505.5 124.5 c 128,-1,31
 511 130 511 130 511 138 c 2,32,-1
 511 442 l 2,33,34
 511 450 511 450 505.5 455.5 c 128,-1,35
 500 461 500 461 493 461 c 2,36,-1
 179 461 l 2,37,38
 171 461 171 461 165.5 455.5 c 128,-1,39
 160 450 160 450 160 442 c 2,40,-1
 160 138 l 2,41,42
 160 130 160 130 165.5 124.5 c 128,-1,43
 171 119 171 119 179 119 c 2,28,-1
EndSplineSet
Validated: 5
Substitution2: "'smcp' Lowercase to Small Capitals in Latin lookup 2 subtable" g.sc
Substitution2: "'aalt' Access All Alternates in Latin lookup 0 subtable" g.sc
EndChar

StartChar: h
Encoding: 104 104 98
Width: 668
GlyphClass: 1
Flags: W
LayerCount: 2
Fore
SplineSet
54 0 m 1,0,-1
 54 0 l 1,1,-1
 54 770 l 1,2,-1
 173 770 l 1,3,-1
 173 580 l 1,4,-1
 510 580 l 2,5,6
 546 580 546 580 576.5 561.5 c 128,-1,7
 607 543 607 543 625 513 c 128,-1,8
 643 483 643 483 643 446 c 2,9,-1
 643 0 l 1,10,-1
 524 0 l 1,11,-1
 524 442 l 2,12,13
 524 450 524 450 518.5 455.5 c 128,-1,14
 513 461 513 461 506 461 c 2,15,-1
 192 461 l 2,16,17
 185 461 185 461 179 455.5 c 128,-1,18
 173 450 173 450 173 442 c 2,19,-1
 173 0 l 1,20,-1
 54 0 l 1,0,-1
EndSplineSet
Validated: 5
Substitution2: "'smcp' Lowercase to Small Capitals in Latin lookup 2 subtable" h.sc
Substitution2: "'aalt' Access All Alternates in Latin lookup 0 subtable" h.sc
EndChar

StartChar: i
Encoding: 105 105 99
Width: 219
GlyphClass: 1
Flags: W
LayerCount: 2
Fore
SplineSet
52 0 m 1,0,-1
 52 0 l 1,1,-1
 52 580 l 1,2,-1
 171 580 l 1,3,-1
 171 0 l 1,4,-1
 52 0 l 1,0,-1
52 650 m 1,5,-1
 52 650 l 1,6,-1
 52 770 l 1,7,-1
 171 770 l 1,8,-1
 171 650 l 1,9,-1
 52 650 l 1,5,-1
EndSplineSet
Validated: 5
Substitution2: "'smcp' Lowercase to Small Capitals in Latin lookup 2 subtable" i.sc
Substitution2: "'aalt' Access All Alternates in Latin lookup 0 subtable" i.sc
EndChar

StartChar: dotlessi
Encoding: 305 305 100
Width: 214
GlyphClass: 2
Flags: W
AnchorPoint: "Anchor-0" 107 580 basechar 0
LayerCount: 2
Fore
SplineSet
48 0 m 1,0,-1
 48 0 l 1,1,-1
 48 580 l 1,2,-1
 167 580 l 1,3,-1
 167 0 l 1,4,-1
 48 0 l 1,0,-1
EndSplineSet
Validated: 1048581
EndChar

StartChar: j
Encoding: 106 106 105
Width: 239
GlyphClass: 1
Flags: W
LayerCount: 2
Fore
SplineSet
-187 -225 m 1,0,-1
 -187 -225 l 1,1,-1
 -187 -104 l 1,2,-1
 58 -104 l 2,3,4
 66 -104 66 -104 71 -98.5 c 128,-1,5
 76 -93 76 -93 76 -86 c 2,6,-1
 76 580 l 1,7,-1
 196 580 l 1,8,-1
 196 -90 l 2,9,10
 196 -128 196 -128 178 -158 c 128,-1,11
 160 -188 160 -188 129.5 -206.5 c 128,-1,12
 99 -225 99 -225 62 -225 c 2,13,-1
 -187 -225 l 1,0,-1
76 650 m 1,14,-1
 76 650 l 1,15,-1
 76 770 l 1,16,-1
 196 770 l 1,17,-1
 196 650 l 1,18,-1
 76 650 l 1,14,-1
EndSplineSet
Validated: 5
Substitution2: "'smcp' Lowercase to Small Capitals in Latin lookup 2 subtable" j.sc
Substitution2: "'aalt' Access All Alternates in Latin lookup 0 subtable" j.sc
EndChar

StartChar: k
Encoding: 107 107 106
Width: 646
GlyphClass: 1
Flags: W
LayerCount: 2
Fore
SplineSet
54 0 m 1,0,-1
 54 0 l 1,1,-1
 54 770 l 1,2,-1
 173 770 l 1,3,-1
 173 350 l 1,4,-1
 290 350 l 1,5,-1
 502 580 l 1,6,-1
 634 580 l 1,7,-1
 634 552 l 1,8,-1
 396 290 l 1,9,-1
 634 28 l 1,10,-1
 634 0 l 1,11,-1
 502 0 l 1,12,-1
 290 230 l 1,13,-1
 173 230 l 1,14,-1
 173 0 l 1,15,-1
 54 0 l 1,0,-1
EndSplineSet
Validated: 5
Substitution2: "'salt' Stylistic Alternatives in Latin lookup 3 subtable" k.alt
Substitution2: "'smcp' Lowercase to Small Capitals in Latin lookup 2 subtable" k.sc
AlternateSubs2: "'aalt' Access All Alternates in Latin lookup 1 subtable" k.alt k.sc
EndChar

StartChar: l
Encoding: 108 108 107
Width: 320
GlyphClass: 1
Flags: W
LayerCount: 2
Fore
SplineSet
186 0 m 1,0,1
 149 0 149 0 119 18.5 c 128,-1,2
 89 37 89 37 70.5 67 c 128,-1,3
 52 97 52 97 52 134 c 2,4,-1
 52 771 l 1,5,-1
 172 771 l 1,6,-1
 172 138 l 2,7,8
 172 130 172 130 177.5 124.5 c 128,-1,9
 183 119 183 119 190 119 c 2,10,-1
 298 119 l 1,11,-1
 298 0 l 1,12,-1
 186 0 l 1,13,-1
 186 0 l 1,0,1
EndSplineSet
Validated: 5
Substitution2: "'smcp' Lowercase to Small Capitals in Latin lookup 2 subtable" l.sc
Substitution2: "'aalt' Access All Alternates in Latin lookup 0 subtable" l.sc
EndChar

StartChar: m
Encoding: 109 109 108
Width: 978
GlyphClass: 1
Flags: W
LayerCount: 2
Fore
SplineSet
54 0 m 1,0,-1
 54 0 l 1,1,-1
 54 580 l 1,2,-1
 784 580 l 2,3,4
 822 580 822 580 852 561.5 c 128,-1,5
 882 543 882 543 900 513 c 128,-1,6
 918 483 918 483 918 446 c 2,7,-1
 918 0 l 1,8,-1
 799 0 l 1,9,-1
 799 442 l 2,10,11
 799 450 799 450 793.5 455.5 c 128,-1,12
 788 461 788 461 780 461 c 2,13,-1
 565 461 l 2,14,15
 558 461 558 461 552.5 455.5 c 128,-1,16
 547 450 547 450 547 442 c 2,17,-1
 547 0 l 1,18,-1
 426 0 l 1,19,-1
 426 442 l 2,20,21
 426 450 426 450 421 455.5 c 128,-1,22
 416 461 416 461 408 461 c 2,23,-1
 192 461 l 2,24,25
 185 461 185 461 179.5 455.5 c 128,-1,26
 174 450 174 450 174 442 c 2,27,-1
 174 0 l 1,28,-1
 54 0 l 1,0,-1
EndSplineSet
Validated: 5
Substitution2: "'smcp' Lowercase to Small Capitals in Latin lookup 2 subtable" m.sc
Substitution2: "'aalt' Access All Alternates in Latin lookup 0 subtable" m.sc
EndChar

StartChar: n
Encoding: 110 110 109
Width: 696
GlyphClass: 2
Flags: W
AnchorPoint: "Anchor-1" 347 0 basechar 0
AnchorPoint: "Anchor-0" 341 580 basechar 0
LayerCount: 2
Fore
SplineSet
54 0 m 1,0,-1
 54 0 l 1,1,-1
 54 580 l 1,2,-1
 510 580 l 2,3,4
 546 580 546 580 576.5 561.5 c 128,-1,5
 607 543 607 543 625 513 c 128,-1,6
 643 483 643 483 643 446 c 2,7,-1
 643 0 l 1,8,-1
 524 0 l 1,9,-1
 524 442 l 2,10,11
 524 450 524 450 518.5 455.5 c 128,-1,12
 513 461 513 461 506 461 c 2,13,-1
 192 461 l 2,14,15
 185 461 185 461 179 455.5 c 128,-1,16
 173 450 173 450 173 442 c 2,17,-1
 173 0 l 1,18,-1
 54 0 l 1,0,-1
EndSplineSet
Validated: 5
Substitution2: "'smcp' Lowercase to Small Capitals in Latin lookup 2 subtable" n.sc
Substitution2: "'aalt' Access All Alternates in Latin lookup 0 subtable" n.sc
EndChar

StartChar: o
Encoding: 111 111 111
Width: 692
GlyphClass: 2
Flags: W
AnchorPoint: "Anchor-1" 345 -2 basechar 0
AnchorPoint: "Anchor-0" 345 578 basechar 0
LayerCount: 2
Fore
SplineSet
185 0 m 1,0,1
 148 0 148 0 118 18.5 c 128,-1,2
 88 37 88 37 69.5 67 c 128,-1,3
 51 97 51 97 51 134 c 2,4,-1
 51 446 l 2,5,6
 51 483 51 483 69.5 513 c 128,-1,7
 88 543 88 543 118 561.5 c 128,-1,8
 148 580 148 580 185 580 c 2,9,-1
 506 580 l 2,10,11
 544 580 544 580 574 561.5 c 128,-1,12
 604 543 604 543 622 513 c 128,-1,13
 640 483 640 483 640 446 c 2,14,-1
 640 134 l 2,15,16
 640 97 640 97 622 67 c 128,-1,17
 604 37 604 37 574 18.5 c 128,-1,18
 544 0 544 0 506 0 c 2,19,-1
 185 0 l 1,20,-1
 185 0 l 1,0,1
189 119 m 2,21,-1
 502 119 l 2,22,23
 510 119 510 119 515.5 124.5 c 128,-1,24
 521 130 521 130 521 138 c 2,25,-1
 521 442 l 2,26,27
 521 450 521 450 515.5 455.5 c 128,-1,28
 510 461 510 461 502 461 c 2,29,-1
 189 461 l 2,30,31
 181 461 181 461 175.5 455.5 c 128,-1,32
 170 450 170 450 170 442 c 2,33,-1
 170 138 l 2,34,35
 170 130 170 130 175.5 124.5 c 128,-1,36
 181 119 181 119 189 119 c 2,21,-1
EndSplineSet
Validated: 5
Substitution2: "'smcp' Lowercase to Small Capitals in Latin lookup 2 subtable" o.sc
Substitution2: "'aalt' Access All Alternates in Latin lookup 0 subtable" o.sc
EndChar

StartChar: oe
Encoding: 339 339 117
Width: 1177
GlyphClass: 1
Flags: W
LayerCount: 2
Fore
SplineSet
186 0 m 1,0,1
 149 0 149 0 118.5 18.5 c 128,-1,2
 88 37 88 37 70 67 c 128,-1,3
 52 97 52 97 52 134 c 2,4,-1
 52 446 l 2,5,6
 52 483 52 483 70 513 c 128,-1,7
 88 543 88 543 118.5 561.5 c 128,-1,8
 149 580 149 580 186 580 c 2,9,-1
 978 580 l 2,10,11
 1015 580 1015 580 1045 561.5 c 128,-1,12
 1075 543 1075 543 1093 513 c 128,-1,13
 1111 483 1111 483 1111 446 c 2,14,-1
 1111 230 l 1,15,-1
 641 230 l 1,16,-1
 641 138 l 2,17,18
 641 130 641 130 646.5 124.5 c 128,-1,19
 652 119 652 119 660 119 c 2,20,-1
 1111 119 l 1,21,-1
 1111 0 l 1,22,-1
 186 0 l 1,23,-1
 186 0 l 1,0,1
190 119 m 1,24,-1
 190 119 l 1,25,-1
 504 119 l 2,26,27
 511 119 511 119 516.5 124.5 c 128,-1,28
 522 130 522 130 522 138 c 2,29,-1
 522 442 l 2,30,31
 522 450 522 450 516.5 455.5 c 128,-1,32
 511 461 511 461 504 461 c 2,33,-1
 190 461 l 2,34,35
 182 461 182 461 176.5 455.5 c 128,-1,36
 171 450 171 450 171 442 c 2,37,-1
 171 138 l 2,38,39
 171 130 171 130 176.5 124.5 c 128,-1,40
 182 119 182 119 190 119 c 1,24,-1
641 339 m 1,41,-1
 641 339 l 1,42,-1
 992 339 l 1,43,-1
 992 442 l 2,44,45
 992 450 992 450 986.5 455.5 c 128,-1,46
 981 461 981 461 973 461 c 2,47,-1
 660 461 l 2,48,49
 652 461 652 461 646.5 455.5 c 128,-1,50
 641 450 641 450 641 442 c 2,51,-1
 641 339 l 1,41,-1
EndSplineSet
Validated: 5
EndChar

StartChar: p
Encoding: 112 112 118
Width: 664
GlyphClass: 1
Flags: W
LayerCount: 2
Fore
SplineSet
54 -230 m 1,0,-1
 54 -230 l 1,1,-1
 54 580 l 1,2,-1
 510 580 l 2,3,4
 546 580 546 580 576.5 561.5 c 128,-1,5
 607 543 607 543 625 513 c 128,-1,6
 643 483 643 483 643 446 c 2,7,-1
 643 134 l 2,8,9
 643 97 643 97 625 67 c 128,-1,10
 607 37 607 37 576.5 18.5 c 128,-1,11
 546 0 546 0 510 0 c 2,12,-1
 173 0 l 1,13,-1
 173 -230 l 1,14,-1
 54 -230 l 1,0,-1
192 119 m 2,15,-1
 506 119 l 2,16,17
 513 119 513 119 518.5 124.5 c 128,-1,18
 524 130 524 130 524 138 c 2,19,-1
 524 442 l 2,20,21
 524 450 524 450 518.5 455.5 c 128,-1,22
 513 461 513 461 506 461 c 2,23,-1
 192 461 l 2,24,25
 185 461 185 461 179 455.5 c 128,-1,26
 173 450 173 450 173 442 c 2,27,-1
 173 138 l 2,28,29
 173 130 173 130 179 124.5 c 128,-1,30
 185 119 185 119 192 119 c 2,15,-1
EndSplineSet
Validated: 5
Substitution2: "'smcp' Lowercase to Small Capitals in Latin lookup 2 subtable" p.sc
Substitution2: "'aalt' Access All Alternates in Latin lookup 0 subtable" p.sc
EndChar

StartChar: q
Encoding: 113 113 119
Width: 664
GlyphClass: 1
Flags: W
LayerCount: 2
Fore
SplineSet
491 -230 m 1,0,-1
 491 -230 l 1,1,-1
 491 0 l 1,2,-1
 154 0 l 2,3,4
 117 0 117 0 86.5 18.5 c 128,-1,5
 56 37 56 37 38 67 c 128,-1,6
 20 97 20 97 20 134 c 2,7,-1
 20 446 l 2,8,9
 20 483 20 483 38 513 c 128,-1,10
 56 543 56 543 86.5 561.5 c 128,-1,11
 117 580 117 580 154 580 c 2,12,-1
 610 580 l 1,13,-1
 610 -230 l 1,14,-1
 491 -230 l 1,0,-1
159 119 m 2,15,-1
 472 119 l 2,16,17
 480 119 480 119 485.5 124.5 c 128,-1,18
 491 130 491 130 491 138 c 2,19,-1
 491 442 l 2,20,21
 491 450 491 450 485.5 455.5 c 128,-1,22
 480 461 480 461 472 461 c 2,23,-1
 159 461 l 2,24,25
 151 461 151 461 145.5 455.5 c 128,-1,26
 140 450 140 450 140 442 c 2,27,-1
 140 138 l 2,28,29
 140 130 140 130 145.5 124.5 c 128,-1,30
 151 119 151 119 159 119 c 2,15,-1
EndSplineSet
Validated: 5
Substitution2: "'smcp' Lowercase to Small Capitals in Latin lookup 2 subtable" q.sc
Substitution2: "'aalt' Access All Alternates in Latin lookup 0 subtable" q.sc
EndChar

StartChar: r
Encoding: 114 114 120
Width: 519
GlyphClass: 1
Flags: W
LayerCount: 2
Fore
SplineSet
52 0 m 1,0,-1
 52 0 l 1,1,-1
 52 446 l 2,2,3
 52 483 52 483 70.5 513 c 128,-1,4
 89 543 89 543 119.5 561.5 c 128,-1,5
 150 580 150 580 186 580 c 2,6,-1
 509 580 l 1,7,-1
 509 461 l 1,8,-1
 190 461 l 2,9,10
 182 461 182 461 176.5 455.5 c 128,-1,11
 171 450 171 450 171 442 c 2,12,-1
 171 0 l 1,13,-1
 52 0 l 1,0,-1
EndSplineSet
Validated: 5
Substitution2: "'smcp' Lowercase to Small Capitals in Latin lookup 2 subtable" r.sc
Substitution2: "'aalt' Access All Alternates in Latin lookup 0 subtable" r.sc
EndChar

StartChar: s
Encoding: 115 115 121
Width: 686
GlyphClass: 2
Flags: W
AnchorPoint: "Anchor-1" 349 0 basechar 0
AnchorPoint: "Anchor-0" 340 580 basechar 0
LayerCount: 2
Fore
SplineSet
182 0 m 1,0,1
 145 0 145 0 115 18.5 c 128,-1,2
 85 37 85 37 66.5 67 c 128,-1,3
 48 97 48 97 48 134 c 2,4,-1
 48 153 l 1,5,-1
 167 153 l 1,6,-1
 167 138 l 2,7,8
 167 130 167 130 172.5 124.5 c 128,-1,9
 178 119 178 119 186 119 c 2,10,-1
 499 119 l 2,11,12
 507 119 507 119 512.5 124.5 c 128,-1,13
 518 130 518 130 518 138 c 2,14,-1
 518 212 l 2,15,16
 518 219 518 219 512.5 224.5 c 128,-1,17
 507 230 507 230 499 230 c 2,18,-1
 182 230 l 2,19,20
 145 230 145 230 115 248.5 c 128,-1,21
 85 267 85 267 66.5 297 c 128,-1,22
 48 327 48 327 48 364 c 2,23,-1
 48 446 l 2,24,25
 48 483 48 483 66.5 513 c 128,-1,26
 85 543 85 543 115 561.5 c 128,-1,27
 145 580 145 580 182 580 c 2,28,-1
 503 580 l 2,29,30
 541 580 541 580 571 561.5 c 128,-1,31
 601 543 601 543 619.5 513 c 128,-1,32
 638 483 638 483 638 446 c 2,33,-1
 638 427 l 1,34,-1
 518 427 l 1,35,-1
 518 442 l 2,36,37
 518 450 518 450 512.5 455.5 c 128,-1,38
 507 461 507 461 499 461 c 2,39,-1
 186 461 l 2,40,41
 178 461 178 461 172.5 455.5 c 128,-1,42
 167 450 167 450 167 442 c 2,43,-1
 167 368 l 2,44,45
 167 361 167 361 172.5 355.5 c 128,-1,46
 178 350 178 350 186 350 c 2,47,-1
 503 350 l 2,48,49
 541 350 541 350 571 331.5 c 128,-1,50
 601 313 601 313 619.5 283 c 128,-1,51
 638 253 638 253 638 216 c 2,52,-1
 638 134 l 2,53,54
 638 97 638 97 619.5 67 c 128,-1,55
 601 37 601 37 571 18.5 c 128,-1,56
 541 0 541 0 503 0 c 2,57,-1
 182 0 l 1,58,-1
 182 0 l 1,0,1
EndSplineSet
Validated: 5
Substitution2: "'smcp' Lowercase to Small Capitals in Latin lookup 2 subtable" s.sc
Substitution2: "'aalt' Access All Alternates in Latin lookup 0 subtable" s.sc
EndChar

StartChar: germandbls
Encoding: 223 223 123
Width: 833
GlyphClass: 1
Flags: W
LayerCount: 2
Fore
SplineSet
57 0 m 1,0,-1
 57 0 l 1,1,-1
 57 586 l 2,2,3
 57 623 57 623 75 653.5 c 128,-1,4
 93 684 93 684 123.5 702 c 128,-1,5
 154 720 154 720 191 720 c 2,6,-1
 639 720 l 2,7,8
 671 720 671 720 699.5 705 c 128,-1,9
 728 690 728 690 747.5 664.5 c 128,-1,10
 767 639 767 639 773 609 c 1,11,-1
 773 442 l 2,12,13
 773 404 773 404 750 368 c 1,14,15
 773 333 773 333 773 294 c 2,16,-1
 773 134 l 2,17,18
 773 97 773 97 755 67 c 128,-1,19
 737 37 737 37 706.5 18.5 c 128,-1,20
 676 0 676 0 639 0 c 2,21,-1
 278 0 l 1,22,-1
 278 119 l 1,23,-1
 636 119 l 2,24,25
 643 119 643 119 648.5 124.5 c 128,-1,26
 654 130 654 130 654 138 c 2,27,-1
 654 289 l 2,28,29
 654 297 654 297 648.5 302.5 c 128,-1,30
 643 308 643 308 636 308 c 2,31,-1
 278 308 l 1,32,-1
 278 417 l 1,33,-1
 636 417 l 2,34,35
 643 417 643 417 648.5 422.5 c 128,-1,36
 654 428 654 428 654 436 c 2,37,-1
 654 581 l 2,38,39
 654 588 654 588 648.5 593.5 c 128,-1,40
 643 599 643 599 636 599 c 2,41,-1
 195 599 l 2,42,43
 187 599 187 599 181.5 593.5 c 128,-1,44
 176 588 176 588 176 581 c 2,45,-1
 176 0 l 1,46,-1
 57 0 l 1,0,-1
EndSplineSet
Validated: 5
EndChar

StartChar: t
Encoding: 116 116 124
Width: 432
GlyphClass: 1
Flags: W
LayerCount: 2
Fore
SplineSet
187 0 m 1,0,1
 150 0 150 0 119.5 18.5 c 128,-1,2
 89 37 89 37 71 67 c 128,-1,3
 53 97 53 97 53 134 c 2,4,-1
 53 761 l 1,5,-1
 172 761 l 1,6,-1
 172 580 l 1,7,-1
 404 580 l 1,8,-1
 404 461 l 1,9,-1
 172 461 l 1,10,-1
 172 138 l 2,11,12
 172 130 172 130 177.5 124.5 c 128,-1,13
 183 119 183 119 191 119 c 2,14,-1
 404 119 l 1,15,-1
 404 0 l 1,16,-1
 187 0 l 1,17,-1
 187 0 l 1,0,1
EndSplineSet
Validated: 5
Substitution2: "'smcp' Lowercase to Small Capitals in Latin lookup 2 subtable" t.sc
Substitution2: "'aalt' Access All Alternates in Latin lookup 0 subtable" t.sc
EndChar

StartChar: u
Encoding: 117 117 125
Width: 695
GlyphClass: 2
Flags: W
AnchorPoint: "Anchor-0" 348 579 basechar 0
LayerCount: 2
Fore
SplineSet
187 0 m 1,0,1
 150 0 150 0 119.5 18.5 c 128,-1,2
 89 37 89 37 71 67 c 128,-1,3
 53 97 53 97 53 134 c 2,4,-1
 53 580 l 1,5,-1
 172 580 l 1,6,-1
 172 138 l 2,7,8
 172 130 172 130 177.5 124.5 c 128,-1,9
 183 119 183 119 191 119 c 2,10,-1
 504 119 l 2,11,12
 512 119 512 119 517.5 124.5 c 128,-1,13
 523 130 523 130 523 138 c 2,14,-1
 523 580 l 1,15,-1
 642 580 l 1,16,-1
 642 134 l 2,17,18
 642 97 642 97 624 67 c 128,-1,19
 606 37 606 37 576 18.5 c 128,-1,20
 546 0 546 0 508 0 c 2,21,-1
 187 0 l 1,22,-1
 187 0 l 1,0,1
EndSplineSet
Validated: 1048581
Substitution2: "'smcp' Lowercase to Small Capitals in Latin lookup 2 subtable" u.sc
Substitution2: "'aalt' Access All Alternates in Latin lookup 0 subtable" u.sc
EndChar

StartChar: v
Encoding: 118 118 130
Width: 790
GlyphClass: 1
Flags: W
LayerCount: 2
Fore
SplineSet
340 0 m 1,0,-1
 340 0 l 1,1,-1
 21 580 l 1,2,-1
 159 580 l 1,3,-1
 398 141 l 1,4,-1
 637 580 l 1,5,-1
 775 580 l 1,6,-1
 454 0 l 1,7,-1
 340 0 l 1,0,-1
EndSplineSet
Validated: 5
Substitution2: "'salt' Stylistic Alternatives in Latin lookup 3 subtable" v.alt
Substitution2: "'smcp' Lowercase to Small Capitals in Latin lookup 2 subtable" v.sc
AlternateSubs2: "'aalt' Access All Alternates in Latin lookup 1 subtable" v.alt v.sc
EndChar

StartChar: w
Encoding: 119 119 131
Width: 1062
GlyphClass: 1
Flags: W
LayerCount: 2
Fore
SplineSet
263 0 m 1,0,-1
 263 0 l 1,1,-1
 35 580 l 1,2,-1
 162 580 l 1,3,-1
 311 217 l 1,4,-1
 469 580 l 1,5,-1
 598 580 l 1,6,-1
 766 215 l 1,7,-1
 904 580 l 1,8,-1
 1032 580 l 1,9,-1
 813 0 l 1,10,-1
 719 0 l 1,11,-1
 534 409 l 1,12,-1
 358 0 l 1,13,-1
 263 0 l 1,0,-1
EndSplineSet
Validated: 5
Substitution2: "'salt' Stylistic Alternatives in Latin lookup 3 subtable" w.alt
Substitution2: "'smcp' Lowercase to Small Capitals in Latin lookup 2 subtable" w.sc
AlternateSubs2: "'aalt' Access All Alternates in Latin lookup 1 subtable" w.alt w.sc
EndChar

StartChar: x
Encoding: 120 120 132
Width: 692
GlyphClass: 1
Flags: W
LayerCount: 2
Fore
SplineSet
46 0 m 1,0,-1
 46 0 l 1,1,-1
 46 27 l 1,2,-1
 266 295 l 1,3,-1
 46 553 l 1,4,-1
 46 580 l 1,5,-1
 180 580 l 1,6,-1
 344 387 l 1,7,-1
 507 580 l 1,8,-1
 641 580 l 1,9,-1
 641 553 l 1,10,-1
 421 295 l 1,11,-1
 642 27 l 1,12,-1
 642 0 l 1,13,-1
 508 0 l 1,14,-1
 344 201 l 1,15,-1
 180 0 l 1,16,-1
 46 0 l 1,0,-1
EndSplineSet
Validated: 5
Substitution2: "'salt' Stylistic Alternatives in Latin lookup 3 subtable" x.alt
Substitution2: "'smcp' Lowercase to Small Capitals in Latin lookup 2 subtable" x.sc
AlternateSubs2: "'aalt' Access All Alternates in Latin lookup 1 subtable" x.alt x.sc
EndChar

StartChar: y
Encoding: 121 121 133
Width: 685
GlyphClass: 2
Flags: W
AnchorPoint: "Anchor-0" 336 580 basechar 0
LayerCount: 2
Fore
SplineSet
141 -218 m 1,0,-1
 141 -218 l 1,1,-1
 141 -98 l 1,2,-1
 494 -98 l 2,3,4
 501 -98 501 -98 506.5 -92.5 c 128,-1,5
 512 -87 512 -87 512 -80 c 2,6,-1
 512 0 l 1,7,-1
 176 0 l 2,8,9
 140 0 140 0 109.5 18.5 c 128,-1,10
 79 37 79 37 60.5 67 c 128,-1,11
 42 97 42 97 42 134 c 2,12,-1
 42 578 l 1,13,-1
 161 578 l 1,14,-1
 161 138 l 2,15,16
 161 130 161 130 166.5 124.5 c 128,-1,17
 172 119 172 119 180 119 c 2,18,-1
 494 119 l 2,19,20
 501 119 501 119 506.5 124.5 c 128,-1,21
 512 130 512 130 512 138 c 2,22,-1
 512 578 l 1,23,-1
 631 578 l 1,24,-1
 631 -84 l 2,25,26
 631 -122 631 -122 613.5 -152 c 128,-1,27
 596 -182 596 -182 565.5 -200 c 128,-1,28
 535 -218 535 -218 498 -218 c 2,29,-1
 141 -218 l 1,0,-1
EndSplineSet
Validated: 1048581
Substitution2: "'smcp' Lowercase to Small Capitals in Latin lookup 2 subtable" y.sc
Substitution2: "'aalt' Access All Alternates in Latin lookup 0 subtable" y.sc
EndChar

StartChar: z
Encoding: 122 122 136
Width: 698
GlyphClass: 2
Flags: W
AnchorPoint: "Anchor-0" 345 580 basechar 0
LayerCount: 2
Fore
SplineSet
54 0 m 1,0,-1
 54 0 l 1,1,-1
 54 136 l 1,2,-1
 475 461 l 1,3,-1
 54 461 l 1,4,-1
 54 580 l 1,5,-1
 643 580 l 1,6,-1
 643 444 l 1,7,-1
 223 119 l 1,8,-1
 643 119 l 1,9,-1
 643 0 l 1,10,-1
 54 0 l 1,0,-1
EndSplineSet
Validated: 1048581
Substitution2: "'salt' Stylistic Alternatives in Latin lookup 3 subtable" z.alt
Substitution2: "'smcp' Lowercase to Small Capitals in Latin lookup 2 subtable" z.sc
AlternateSubs2: "'aalt' Access All Alternates in Latin lookup 1 subtable" z.alt z.sc
EndChar

StartChar: a.alt
Encoding: 65558 -1 138
Width: 693
GlyphClass: 1
Flags: W
LayerCount: 2
Fore
SplineSet
185 0 m 1,0,1
 148 0 148 0 118 18.5 c 128,-1,2
 88 37 88 37 69.5 67 c 128,-1,3
 51 97 51 97 51 134 c 2,4,-1
 51 446 l 2,5,6
 51 483 51 483 69.5 513 c 128,-1,7
 88 543 88 543 118 561.5 c 128,-1,8
 148 580 148 580 185 580 c 2,9,-1
 506 580 l 2,10,11
 544 580 544 580 574 561.5 c 128,-1,12
 604 543 604 543 622 513 c 128,-1,13
 640 483 640 483 640 446 c 2,14,-1
 640 0 l 1,15,-1
 185 0 l 1,16,-1
 185 0 l 1,0,1
189 119 m 2,17,-1
 521 119 l 1,18,-1
 521 442 l 2,19,20
 521 450 521 450 515.5 455.5 c 128,-1,21
 510 461 510 461 502 461 c 2,22,-1
 189 461 l 2,23,24
 181 461 181 461 175.5 455.5 c 128,-1,25
 170 450 170 450 170 442 c 2,26,-1
 170 138 l 2,27,28
 170 130 170 130 175.5 124.5 c 128,-1,29
 181 119 181 119 189 119 c 2,17,-1
EndSplineSet
Validated: 5
EndChar

StartChar: k.alt
Encoding: 65559 -1 139
Width: 669
GlyphClass: 1
Flags: W
LayerCount: 2
Fore
SplineSet
54 0 m 1,0,-1
 54 0 l 1,1,-1
 54 761 l 1,2,-1
 173 761 l 1,3,-1
 173 350 l 1,4,-1
 506 350 l 2,5,6
 513 350 513 350 518.5 355.5 c 128,-1,7
 524 361 524 361 524 368 c 2,8,-1
 524 580 l 1,9,-1
 643 580 l 1,10,-1
 643 364 l 2,11,12
 643 346 643 346 635 327 c 128,-1,13
 627 308 627 308 615 290 c 1,14,15
 626 273 626 273 634.5 253.5 c 128,-1,16
 643 234 643 234 643 216 c 2,17,-1
 643 0 l 1,18,-1
 524 0 l 1,19,-1
 524 212 l 2,20,21
 524 219 524 219 518.5 224.5 c 128,-1,22
 513 230 513 230 506 230 c 2,23,-1
 173 230 l 1,24,-1
 173 0 l 1,25,-1
 54 0 l 1,0,-1
EndSplineSet
Validated: 5
EndChar

StartChar: v.alt
Encoding: 65560 -1 140
Width: 697
GlyphClass: 1
Flags: W
LayerCount: 2
Fore
SplineSet
187 0 m 1,0,1
 150 0 150 0 119.5 18.5 c 128,-1,2
 89 37 89 37 71 67 c 128,-1,3
 53 97 53 97 53 134 c 2,4,-1
 53 580 l 1,5,-1
 172 580 l 1,6,-1
 172 138 l 2,7,8
 172 130 172 130 177.5 124.5 c 128,-1,9
 183 119 183 119 191 119 c 2,10,-1
 523 119 l 1,11,-1
 523 580 l 1,12,-1
 642 580 l 1,13,-1
 642 0 l 1,14,-1
 187 0 l 1,15,-1
 187 0 l 1,0,1
EndSplineSet
Validated: 5
EndChar

StartChar: w.alt
Encoding: 65561 -1 141
Width: 978
GlyphClass: 1
Flags: W
LayerCount: 2
Fore
SplineSet
188 0 m 1,0,1
 150 0 150 0 120 18.5 c 128,-1,2
 90 37 90 37 71.5 67 c 128,-1,3
 53 97 53 97 53 134 c 2,4,-1
 53 580 l 1,5,-1
 172 580 l 1,6,-1
 172 138 l 2,7,8
 172 130 172 130 177.5 124.5 c 128,-1,9
 183 119 183 119 191 119 c 2,10,-1
 406 119 l 2,11,12
 414 119 414 119 419 124.5 c 128,-1,13
 424 130 424 130 424 138 c 2,14,-1
 424 580 l 1,15,-1
 544 580 l 1,16,-1
 544 138 l 2,17,18
 544 130 544 130 549.5 124.5 c 128,-1,19
 555 119 555 119 563 119 c 2,20,-1
 779 119 l 2,21,22
 787 119 787 119 792 124.5 c 128,-1,23
 797 130 797 130 797 138 c 2,24,-1
 797 580 l 1,25,-1
 917 580 l 1,26,-1
 917 0 l 1,27,-1
 188 0 l 1,28,-1
 188 0 l 1,0,1
EndSplineSet
Validated: 5
EndChar

StartChar: x.alt
Encoding: 65562 -1 142
Width: 698
GlyphClass: 1
Flags: W
LayerCount: 2
Fore
SplineSet
54 0 m 1,0,-1
 54 0 l 1,1,-1
 54 216 l 2,2,3
 54 234 54 234 63 253.5 c 128,-1,4
 72 273 72 273 82 290 c 1,5,6
 69 312 69 312 61.5 329 c 128,-1,7
 54 346 54 346 54 364 c 2,8,-1
 54 580 l 1,9,-1
 173 580 l 1,10,-1
 173 368 l 2,11,12
 173 361 173 361 179 355.5 c 128,-1,13
 185 350 185 350 192 350 c 2,14,-1
 506 350 l 2,15,16
 513 350 513 350 518.5 355.5 c 128,-1,17
 524 361 524 361 524 368 c 2,18,-1
 524 580 l 1,19,-1
 643 580 l 1,20,-1
 643 364 l 2,21,22
 643 346 643 346 635 328 c 128,-1,23
 627 310 627 310 615 290 c 1,24,25
 626 273 626 273 634.5 253.5 c 128,-1,26
 643 234 643 234 643 216 c 2,27,-1
 643 0 l 1,28,-1
 524 0 l 1,29,-1
 524 212 l 2,30,31
 524 219 524 219 518.5 224.5 c 128,-1,32
 513 230 513 230 506 230 c 2,33,-1
 192 230 l 2,34,35
 185 230 185 230 179 224.5 c 128,-1,36
 173 219 173 219 173 212 c 2,37,-1
 173 0 l 1,38,-1
 54 0 l 1,0,-1
EndSplineSet
Validated: 5
EndChar

StartChar: z.alt
Encoding: 65563 -1 143
Width: 692
GlyphClass: 1
Flags: W
LayerCount: 2
Fore
SplineSet
185 0 m 1,0,1
 148 0 148 0 118 18.5 c 128,-1,2
 88 37 88 37 69.5 67 c 128,-1,3
 51 97 51 97 51 134 c 2,4,-1
 51 216 l 2,5,6
 51 253 51 253 69.5 283 c 128,-1,7
 88 313 88 313 118 331.5 c 128,-1,8
 148 350 148 350 185 350 c 2,9,-1
 502 350 l 2,10,11
 510 350 510 350 515.5 355.5 c 128,-1,12
 521 361 521 361 521 368 c 2,13,-1
 521 442 l 2,14,15
 521 450 521 450 515.5 455.5 c 128,-1,16
 510 461 510 461 502 461 c 2,17,-1
 51 461 l 1,18,-1
 51 580 l 1,19,-1
 506 580 l 2,20,21
 544 580 544 580 574 561.5 c 128,-1,22
 604 543 604 543 622 513 c 128,-1,23
 640 483 640 483 640 446 c 2,24,-1
 640 364 l 2,25,26
 640 327 640 327 622 297 c 128,-1,27
 604 267 604 267 574 248.5 c 128,-1,28
 544 230 544 230 506 230 c 2,29,-1
 189 230 l 2,30,31
 181 230 181 230 175.5 224.5 c 128,-1,32
 170 219 170 219 170 212 c 2,33,-1
 170 138 l 2,34,35
 170 130 170 130 175.5 124.5 c 128,-1,36
 181 119 181 119 189 119 c 2,37,-1
 640 119 l 1,38,-1
 640 0 l 1,39,-1
 185 0 l 1,40,-1
 185 0 l 1,0,1
EndSplineSet
Validated: 5
EndChar

StartChar: a.sc
Encoding: 65564 -1 144
Width: 725
GlyphClass: 1
Flags: W
LayerCount: 2
Fore
SplineSet
53 0 m 1,0,-1
 53 0 l 1,1,-1
 53 446 l 2,2,3
 53 483 53 483 71.5 513 c 128,-1,4
 90 543 90 543 120.5 561.5 c 128,-1,5
 151 580 151 580 187 580 c 2,6,-1
 538 580 l 2,7,8
 575 580 575 580 605.5 561.5 c 128,-1,9
 636 543 636 543 654 513 c 128,-1,10
 672 483 672 483 672 446 c 2,11,-1
 672 0 l 1,12,-1
 552 0 l 1,13,-1
 552 148 l 1,14,-1
 172 148 l 1,15,-1
 172 0 l 1,16,-1
 53 0 l 1,0,-1
172 268 m 1,17,-1
 172 268 l 1,18,-1
 552 268 l 1,19,-1
 552 442 l 2,20,21
 552 450 552 450 547 455.5 c 128,-1,22
 542 461 542 461 534 461 c 2,23,-1
 191 461 l 2,24,25
 183 461 183 461 177.5 455.5 c 128,-1,26
 172 450 172 450 172 442 c 2,27,-1
 172 268 l 1,17,-1
EndSplineSet
Validated: 5
EndChar

StartChar: b.sc
Encoding: 65565 -1 145
Width: 700
GlyphClass: 1
Flags: W
LayerCount: 2
Fore
SplineSet
54 0 m 1,0,-1
 54 0 l 1,1,-1
 54 581 l 1,2,-1
 490 581 l 2,3,4
 527 581 527 581 557.5 562.5 c 128,-1,5
 588 544 588 544 606 513.5 c 128,-1,6
 624 483 624 483 624 447 c 2,7,-1
 624 361 l 2,8,9
 624 348 624 348 621.5 335.5 c 128,-1,10
 619 323 619 323 615 312 c 1,11,12
 634 286 634 286 643.5 262.5 c 128,-1,13
 653 239 653 239 653 213 c 2,14,-1
 653 134 l 2,15,16
 653 97 653 97 635 67 c 128,-1,17
 617 37 617 37 586.5 18.5 c 128,-1,18
 556 0 556 0 520 0 c 2,19,-1
 54 0 l 1,0,-1
192 119 m 2,20,-1
 516 119 l 2,21,22
 523 119 523 119 528.5 124.5 c 128,-1,23
 534 130 534 130 534 138 c 2,24,-1
 534 214 l 2,25,26
 534 222 534 222 528.5 227.5 c 128,-1,27
 523 233 523 233 516 233 c 2,28,-1
 192 233 l 2,29,30
 184 233 184 233 178.5 227.5 c 128,-1,31
 173 222 173 222 173 214 c 2,32,-1
 173 138 l 2,33,34
 173 130 173 130 178.5 124.5 c 128,-1,35
 184 119 184 119 192 119 c 2,20,-1
192 347 m 2,36,-1
 486 347 l 2,37,38
 493 347 493 347 498.5 352.5 c 128,-1,39
 504 358 504 358 504 365 c 2,40,-1
 504 448 l 2,41,42
 504 456 504 456 498.5 461.5 c 128,-1,43
 493 467 493 467 486 467 c 2,44,-1
 192 467 l 2,45,46
 184 467 184 467 178.5 461.5 c 128,-1,47
 173 456 173 456 173 448 c 2,48,-1
 173 365 l 2,49,50
 173 358 173 358 178.5 352.5 c 128,-1,51
 184 347 184 347 192 347 c 2,36,-1
EndSplineSet
Validated: 5
EndChar

StartChar: c.sc
Encoding: 65566 -1 146
Width: 693
GlyphClass: 1
Flags: W
LayerCount: 2
Fore
SplineSet
185 0 m 1,0,1
 148 0 148 0 117.5 18.5 c 128,-1,2
 87 37 87 37 69 67 c 128,-1,3
 51 97 51 97 51 134 c 2,4,-1
 51 447 l 2,5,6
 51 483 51 483 69 513.5 c 128,-1,7
 87 544 87 544 117.5 562.5 c 128,-1,8
 148 581 148 581 185 581 c 2,9,-1
 639 581 l 1,10,-1
 639 462 l 1,11,-1
 189 462 l 2,12,13
 181 462 181 462 175.5 456.5 c 128,-1,14
 170 451 170 451 170 443 c 2,15,-1
 170 138 l 2,16,17
 170 130 170 130 175.5 124.5 c 128,-1,18
 181 119 181 119 189 119 c 2,19,-1
 639 119 l 1,20,-1
 639 0 l 1,21,-1
 185 0 l 1,22,-1
 185 0 l 1,0,1
EndSplineSet
Validated: 5
EndChar

StartChar: d.sc
Encoding: 65567 -1 147
Width: 705
GlyphClass: 1
Flags: W
LayerCount: 2
Fore
SplineSet
54 0 m 1,0,-1
 54 0 l 1,1,-1
 54 581 l 1,2,-1
 520 581 l 2,3,4
 556 581 556 581 586.5 562.5 c 128,-1,5
 617 544 617 544 635 513.5 c 128,-1,6
 653 483 653 483 653 447 c 2,7,-1
 653 134 l 2,8,9
 653 97 653 97 635 67 c 128,-1,10
 617 37 617 37 586.5 18.5 c 128,-1,11
 556 0 556 0 520 0 c 2,12,-1
 54 0 l 1,0,-1
192 119 m 2,13,-1
 516 119 l 2,14,15
 523 119 523 119 528.5 124.5 c 128,-1,16
 534 130 534 130 534 138 c 2,17,-1
 534 443 l 2,18,19
 534 451 534 451 528.5 456.5 c 128,-1,20
 523 462 523 462 516 462 c 2,21,-1
 192 462 l 2,22,23
 184 462 184 462 178.5 456.5 c 128,-1,24
 173 451 173 451 173 443 c 2,25,-1
 173 138 l 2,26,27
 173 130 173 130 178.5 124.5 c 128,-1,28
 184 119 184 119 192 119 c 2,13,-1
EndSplineSet
Validated: 5
EndChar

StartChar: e.sc
Encoding: 65568 -1 148
Width: 638
GlyphClass: 1
Flags: W
LayerCount: 2
Fore
SplineSet
54 0 m 1,0,-1
 54 0 l 1,1,-1
 54 581 l 1,2,-1
 585 581 l 1,3,-1
 585 462 l 1,4,-1
 173 462 l 1,5,-1
 173 350 l 1,6,-1
 480 350 l 1,7,-1
 480 230 l 1,8,-1
 173 230 l 1,9,-1
 173 119 l 1,10,-1
 585 119 l 1,11,-1
 585 0 l 1,12,-1
 54 0 l 1,0,-1
EndSplineSet
Validated: 5
EndChar

StartChar: f.sc
Encoding: 65569 -1 149
Width: 591
GlyphClass: 1
Flags: W
LayerCount: 2
Fore
SplineSet
54 0 m 1,0,-1
 54 0 l 1,1,-1
 54 581 l 1,2,-1
 585 581 l 1,3,-1
 585 462 l 1,4,-1
 173 462 l 1,5,-1
 173 350 l 1,6,-1
 480 350 l 1,7,-1
 480 230 l 1,8,-1
 173 230 l 1,9,-1
 173 0 l 1,10,-1
 54 0 l 1,0,-1
EndSplineSet
Validated: 5
EndChar

StartChar: g.sc
Encoding: 65570 -1 150
Width: 690
GlyphClass: 1
Flags: W
LayerCount: 2
Fore
SplineSet
185 0 m 1,0,1
 148 0 148 0 118 18.5 c 128,-1,2
 88 37 88 37 69.5 67 c 128,-1,3
 51 97 51 97 51 134 c 2,4,-1
 51 447 l 2,5,6
 51 483 51 483 69.5 513.5 c 128,-1,7
 88 544 88 544 118 562.5 c 128,-1,8
 148 581 148 581 185 581 c 2,9,-1
 506 581 l 2,10,11
 544 581 544 581 574 562.5 c 128,-1,12
 604 544 604 544 622 513.5 c 128,-1,13
 640 483 640 483 640 447 c 2,14,-1
 640 423 l 1,15,-1
 521 423 l 1,16,-1
 521 443 l 2,17,18
 521 451 521 451 515.5 456.5 c 128,-1,19
 510 462 510 462 502 462 c 2,20,-1
 189 462 l 2,21,22
 181 462 181 462 175.5 456.5 c 128,-1,23
 170 451 170 451 170 443 c 2,24,-1
 170 138 l 2,25,26
 170 130 170 130 175.5 124.5 c 128,-1,27
 181 119 181 119 189 119 c 2,28,-1
 502 119 l 2,29,30
 510 119 510 119 515.5 124.5 c 128,-1,31
 521 130 521 130 521 138 c 2,32,-1
 521 206 l 1,33,-1
 360 206 l 1,34,-1
 360 320 l 1,35,-1
 640 320 l 1,36,-1
 640 134 l 2,37,38
 640 97 640 97 622 67 c 128,-1,39
 604 37 604 37 574 18.5 c 128,-1,40
 544 0 544 0 506 0 c 2,41,-1
 185 0 l 1,42,-1
 185 0 l 1,0,1
EndSplineSet
Validated: 5
EndChar

StartChar: h.sc
Encoding: 65571 -1 151
Width: 716
GlyphClass: 1
Flags: W
LayerCount: 2
Fore
SplineSet
55 0 m 1,0,-1
 55 0 l 1,1,-1
 55 580 l 1,2,-1
 174 580 l 1,3,-1
 174 350 l 1,4,-1
 542 350 l 1,5,-1
 542 580 l 1,6,-1
 661 580 l 1,7,-1
 661 0 l 1,8,-1
 542 0 l 1,9,-1
 542 230 l 1,10,-1
 174 230 l 1,11,-1
 174 0 l 1,12,-1
 55 0 l 1,0,-1
EndSplineSet
Validated: 5
EndChar

StartChar: i.sc
Encoding: 65572 -1 152
Width: 214
GlyphClass: 1
Flags: W
LayerCount: 2
Fore
SplineSet
54 0 m 1,0,-1
 54 0 l 1,1,-1
 54 580 l 1,2,-1
 173 580 l 1,3,-1
 173 0 l 1,4,-1
 54 0 l 1,0,-1
EndSplineSet
Validated: 5
EndChar

StartChar: j.sc
Encoding: 65573 -1 153
Width: 657
GlyphClass: 1
Flags: W
LayerCount: 2
Fore
SplineSet
139 0 m 1,0,1
 103 0 103 0 72.5 18.5 c 128,-1,2
 42 37 42 37 23.5 67 c 128,-1,3
 5 97 5 97 5 134 c 2,4,-1
 5 200 l 1,5,-1
 124 200 l 1,6,-1
 124 138 l 2,7,8
 124 130 124 130 129.5 124.5 c 128,-1,9
 135 119 135 119 143 119 c 2,10,-1
 467 119 l 2,11,12
 474 119 474 119 479.5 124.5 c 128,-1,13
 485 130 485 130 485 138 c 2,14,-1
 485 580 l 1,15,-1
 604 580 l 1,16,-1
 604 134 l 2,17,18
 604 97 604 97 586 67 c 128,-1,19
 568 37 568 37 537.5 18.5 c 128,-1,20
 507 0 507 0 471 0 c 2,21,-1
 139 0 l 1,22,-1
 139 0 l 1,0,1
EndSplineSet
Validated: 5
EndChar

StartChar: k.sc
Encoding: 65574 -1 154
Width: 682
GlyphClass: 1
Flags: W
LayerCount: 2
Fore
SplineSet
54 0 m 1,0,-1
 54 0 l 1,1,-1
 54 580 l 1,2,-1
 173 580 l 1,3,-1
 173 350 l 1,4,-1
 290 350 l 1,5,-1
 502 580 l 1,6,-1
 634 580 l 1,7,-1
 634 552 l 1,8,-1
 396 290 l 1,9,-1
 634 28 l 1,10,-1
 634 0 l 1,11,-1
 502 0 l 1,12,-1
 290 230 l 1,13,-1
 173 230 l 1,14,-1
 173 0 l 1,15,-1
 54 0 l 1,0,-1
EndSplineSet
Validated: 5
EndChar

StartChar: l.sc
Encoding: 65575 -1 155
Width: 659
GlyphClass: 1
Flags: W
LayerCount: 2
Fore
SplineSet
54 0 m 1,0,-1
 54 0 l 1,1,-1
 54 580 l 1,2,-1
 173 580 l 1,3,-1
 173 119 l 1,4,-1
 653 119 l 1,5,-1
 653 0 l 1,6,-1
 54 0 l 1,0,-1
EndSplineSet
Validated: 5
EndChar

StartChar: m.sc
Encoding: 65576 -1 156
Width: 824
GlyphClass: 1
Flags: W
LayerCount: 2
Fore
SplineSet
54 0 m 1,0,-1
 54 0 l 1,1,-1
 54 581 l 1,2,-1
 190 581 l 1,3,-1
 410 266 l 1,4,-1
 629 581 l 1,5,-1
 767 581 l 1,6,-1
 767 0 l 1,7,-1
 647 0 l 1,8,-1
 647 419 l 1,9,-1
 410 82 l 1,10,-1
 173 419 l 1,11,-1
 173 0 l 1,12,-1
 54 0 l 1,0,-1
EndSplineSet
Validated: 5
EndChar

StartChar: n.sc
Encoding: 65577 -1 157
Width: 708
GlyphClass: 1
Flags: W
LayerCount: 2
Fore
SplineSet
54 0 m 1,0,-1
 54 0 l 1,1,-1
 54 580 l 1,2,-1
 190 580 l 1,3,-1
 534 169 l 1,4,-1
 534 580 l 1,5,-1
 653 580 l 1,6,-1
 653 0 l 1,7,-1
 517 0 l 1,8,-1
 173 413 l 1,9,-1
 173 0 l 1,10,-1
 54 0 l 1,0,-1
EndSplineSet
Validated: 5
EndChar

StartChar: o.sc
Encoding: 65578 -1 158
Width: 692
GlyphClass: 1
Flags: W
LayerCount: 2
Fore
SplineSet
185 0 m 1,0,1
 148 0 148 0 118 18.5 c 128,-1,2
 88 37 88 37 69.5 67 c 128,-1,3
 51 97 51 97 51 134 c 2,4,-1
 51 446 l 2,5,6
 51 483 51 483 69.5 513 c 128,-1,7
 88 543 88 543 118 561.5 c 128,-1,8
 148 580 148 580 185 580 c 2,9,-1
 506 580 l 2,10,11
 544 580 544 580 574 561.5 c 128,-1,12
 604 543 604 543 622 513 c 128,-1,13
 640 483 640 483 640 446 c 2,14,-1
 640 134 l 2,15,16
 640 97 640 97 622 67 c 128,-1,17
 604 37 604 37 574 18.5 c 128,-1,18
 544 0 544 0 506 0 c 2,19,-1
 185 0 l 1,20,-1
 185 0 l 1,0,1
189 119 m 2,21,-1
 502 119 l 2,22,23
 510 119 510 119 515.5 124.5 c 128,-1,24
 521 130 521 130 521 138 c 2,25,-1
 521 442 l 2,26,27
 521 450 521 450 515.5 455.5 c 128,-1,28
 510 461 510 461 502 461 c 2,29,-1
 189 461 l 2,30,31
 181 461 181 461 175.5 455.5 c 128,-1,32
 170 450 170 450 170 442 c 2,33,-1
 170 138 l 2,34,35
 170 130 170 130 175.5 124.5 c 128,-1,36
 181 119 181 119 189 119 c 2,21,-1
EndSplineSet
Validated: 5
EndChar

StartChar: p.sc
Encoding: 65579 -1 159
Width: 660
GlyphClass: 1
Flags: W
LayerCount: 2
Fore
SplineSet
54 0 m 1,0,-1
 54 0 l 1,1,-1
 54 580 l 1,2,-1
 510 580 l 2,3,4
 546 580 546 580 576.5 561.5 c 128,-1,5
 607 543 607 543 625 513 c 128,-1,6
 643 483 643 483 643 446 c 2,7,-1
 643 326 l 2,8,9
 643 289 643 289 625 259 c 128,-1,10
 607 229 607 229 576.5 210.5 c 128,-1,11
 546 192 546 192 510 192 c 2,12,-1
 173 192 l 1,13,-1
 173 0 l 1,14,-1
 54 0 l 1,0,-1
192 312 m 2,15,-1
 506 312 l 2,16,17
 513 312 513 312 518.5 317.5 c 128,-1,18
 524 323 524 323 524 331 c 2,19,-1
 524 442 l 2,20,21
 524 450 524 450 518.5 455.5 c 128,-1,22
 513 461 513 461 506 461 c 2,23,-1
 192 461 l 2,24,25
 185 461 185 461 179 455.5 c 128,-1,26
 173 450 173 450 173 442 c 2,27,-1
 173 331 l 2,28,29
 173 323 173 323 179 317.5 c 128,-1,30
 185 312 185 312 192 312 c 2,15,-1
EndSplineSet
Validated: 5
EndChar

StartChar: q.sc
Encoding: 65580 -1 160
Width: 770
GlyphClass: 1
Flags: W
LayerCount: 2
Fore
SplineSet
478 0 m 1,0,-1
 594 119 l 1,1,-1
 729 119 l 1,2,-1
 729 0 l 1,3,-1
 478 0 l 1,0,-1
185 0 m 1,4,5
 148 0 148 0 118 18.5 c 128,-1,6
 88 37 88 37 69.5 67 c 128,-1,7
 51 97 51 97 51 134 c 2,8,-1
 51 446 l 2,9,10
 51 483 51 483 69.5 513 c 128,-1,11
 88 543 88 543 118 561.5 c 128,-1,12
 148 580 148 580 185 580 c 2,13,-1
 506 580 l 2,14,15
 544 580 544 580 574 561.5 c 128,-1,16
 604 543 604 543 622 513 c 128,-1,17
 640 483 640 483 640 446 c 2,18,-1
 640 134 l 2,19,20
 640 97 640 97 622 67 c 128,-1,21
 604 37 604 37 574 18.5 c 128,-1,22
 544 0 544 0 506 0 c 2,23,-1
 185 0 l 1,24,-1
 185 0 l 1,4,5
189 119 m 2,25,-1
 502 119 l 2,26,27
 510 119 510 119 515.5 124.5 c 128,-1,28
 521 130 521 130 521 138 c 2,29,-1
 521 442 l 2,30,31
 521 450 521 450 515.5 455.5 c 128,-1,32
 510 461 510 461 502 461 c 2,33,-1
 189 461 l 2,34,35
 181 461 181 461 175.5 455.5 c 128,-1,36
 170 450 170 450 170 442 c 2,37,-1
 170 138 l 2,38,39
 170 130 170 130 175.5 124.5 c 128,-1,40
 181 119 181 119 189 119 c 2,25,-1
EndSplineSet
Validated: 5
EndChar

StartChar: r.sc
Encoding: 65581 -1 161
Width: 700
GlyphClass: 1
Flags: W
LayerCount: 2
Fore
SplineSet
54 0 m 1,0,-1
 54 0 l 1,1,-1
 54 580 l 1,2,-1
 509 580 l 2,3,4
 547 580 547 580 577 561.5 c 128,-1,5
 607 543 607 543 625 513 c 128,-1,6
 643 483 643 483 643 446 c 2,7,-1
 643 326 l 2,8,9
 643 290 643 290 626.5 261 c 128,-1,10
 610 232 610 232 581 213 c 128,-1,11
 552 194 552 194 517 192 c 2,12,-1
 464 192 l 1,13,-1
 650 29 l 1,14,-1
 650 0 l 1,15,-1
 518 0 l 1,16,-1
 308 192 l 1,17,-1
 173 192 l 1,18,-1
 173 0 l 1,19,-1
 54 0 l 1,0,-1
192 312 m 2,20,-1
 505 312 l 2,21,22
 513 312 513 312 518.5 317.5 c 128,-1,23
 524 323 524 323 524 331 c 2,24,-1
 524 442 l 2,25,26
 524 450 524 450 518.5 455.5 c 128,-1,27
 513 461 513 461 505 461 c 2,28,-1
 192 461 l 2,29,30
 184 461 184 461 178.5 455.5 c 128,-1,31
 173 450 173 450 173 442 c 2,32,-1
 173 331 l 2,33,34
 173 323 173 323 178.5 317.5 c 128,-1,35
 184 312 184 312 192 312 c 2,20,-1
EndSplineSet
Validated: 5
EndChar

StartChar: s.sc
Encoding: 65582 -1 162
Width: 687
GlyphClass: 1
Flags: W
LayerCount: 2
Fore
SplineSet
183 0 m 1,0,1
 146 0 146 0 116 18.5 c 128,-1,2
 86 37 86 37 67.5 67 c 128,-1,3
 49 97 49 97 49 134 c 2,4,-1
 49 157 l 1,5,-1
 168 157 l 1,6,-1
 168 138 l 2,7,8
 168 130 168 130 173.5 124.5 c 128,-1,9
 179 119 179 119 187 119 c 2,10,-1
 500 119 l 2,11,12
 508 119 508 119 513.5 124.5 c 128,-1,13
 519 130 519 130 519 138 c 2,14,-1
 519 212 l 2,15,16
 519 219 519 219 513.5 224.5 c 128,-1,17
 508 230 508 230 500 230 c 2,18,-1
 183 230 l 2,19,20
 146 230 146 230 116 248.5 c 128,-1,21
 86 267 86 267 67.5 297 c 128,-1,22
 49 327 49 327 49 364 c 2,23,-1
 49 446 l 2,24,25
 49 483 49 483 67.5 513 c 128,-1,26
 86 543 86 543 116 561.5 c 128,-1,27
 146 580 146 580 183 580 c 2,28,-1
 504 580 l 2,29,30
 542 580 542 580 572 561.5 c 128,-1,31
 602 543 602 543 620.5 513 c 128,-1,32
 639 483 639 483 639 446 c 2,33,-1
 639 423 l 1,34,-1
 519 423 l 1,35,-1
 519 442 l 2,36,37
 519 450 519 450 513.5 455.5 c 128,-1,38
 508 461 508 461 500 461 c 2,39,-1
 187 461 l 2,40,41
 179 461 179 461 173.5 455.5 c 128,-1,42
 168 450 168 450 168 442 c 2,43,-1
 168 368 l 2,44,45
 168 361 168 361 173.5 355.5 c 128,-1,46
 179 350 179 350 187 350 c 2,47,-1
 504 350 l 2,48,49
 542 350 542 350 572 331.5 c 128,-1,50
 602 313 602 313 620.5 283 c 128,-1,51
 639 253 639 253 639 216 c 2,52,-1
 639 134 l 2,53,54
 639 97 639 97 620.5 67 c 128,-1,55
 602 37 602 37 572 18.5 c 128,-1,56
 542 0 542 0 504 0 c 2,57,-1
 183 0 l 1,58,-1
 183 0 l 1,0,1
EndSplineSet
Validated: 5
EndChar

StartChar: t.sc
Encoding: 65583 -1 163
Width: 644
GlyphClass: 1
Flags: W
LayerCount: 2
Fore
SplineSet
261 0 m 1,0,-1
 261 0 l 1,1,-1
 261 461 l 1,2,-1
 22 461 l 1,3,-1
 22 580 l 1,4,-1
 621 580 l 1,5,-1
 621 461 l 1,6,-1
 381 461 l 1,7,-1
 381 0 l 1,8,-1
 261 0 l 1,0,-1
EndSplineSet
Validated: 5
EndChar

StartChar: u.sc
Encoding: 65584 -1 164
Width: 695
GlyphClass: 1
Flags: W
LayerCount: 2
Fore
SplineSet
187 0 m 1,0,1
 150 0 150 0 119.5 18.5 c 128,-1,2
 89 37 89 37 71 67 c 128,-1,3
 53 97 53 97 53 134 c 2,4,-1
 53 580 l 1,5,-1
 172 580 l 1,6,-1
 172 138 l 2,7,8
 172 130 172 130 177.5 124.5 c 128,-1,9
 183 119 183 119 191 119 c 2,10,-1
 504 119 l 2,11,12
 512 119 512 119 517.5 124.5 c 128,-1,13
 523 130 523 130 523 138 c 2,14,-1
 523 580 l 1,15,-1
 642 580 l 1,16,-1
 642 134 l 2,17,18
 642 97 642 97 624 67 c 128,-1,19
 606 37 606 37 576 18.5 c 128,-1,20
 546 0 546 0 508 0 c 2,21,-1
 187 0 l 1,22,-1
 187 0 l 1,0,1
EndSplineSet
Validated: 5
EndChar

StartChar: v.sc
Encoding: 65585 -1 165
Width: 801
GlyphClass: 1
Flags: W
LayerCount: 2
Fore
SplineSet
347 0 m 1,0,-1
 347 0 l 1,1,-1
 21 580 l 1,2,-1
 160 580 l 1,3,-1
 403 141 l 1,4,-1
 647 580 l 1,5,-1
 784 580 l 1,6,-1
 460 0 l 1,7,-1
 347 0 l 1,0,-1
EndSplineSet
Validated: 5
EndChar

StartChar: w.sc
Encoding: 65586 -1 166
Width: 1079
GlyphClass: 1
Flags: W
LayerCount: 2
Fore
SplineSet
266 0 m 1,0,-1
 266 0 l 1,1,-1
 34 580 l 1,2,-1
 161 580 l 1,3,-1
 314 216 l 1,4,-1
 476 580 l 1,5,-1
 597 580 l 1,6,-1
 769 216 l 1,7,-1
 911 580 l 1,8,-1
 1039 580 l 1,9,-1
 817 0 l 1,10,-1
 722 0 l 1,11,-1
 537 400 l 1,12,-1
 361 0 l 1,13,-1
 266 0 l 1,0,-1
EndSplineSet
Validated: 5
EndChar

StartChar: x.sc
Encoding: 65587 -1 167
Width: 692
GlyphClass: 1
Flags: W
LayerCount: 2
Fore
SplineSet
46 0 m 1,0,-1
 46 0 l 1,1,-1
 46 27 l 1,2,-1
 265 296 l 1,3,-1
 46 553 l 1,4,-1
 46 580 l 1,5,-1
 180 580 l 1,6,-1
 344 388 l 1,7,-1
 507 580 l 1,8,-1
 641 580 l 1,9,-1
 641 553 l 1,10,-1
 421 296 l 1,11,-1
 642 27 l 1,12,-1
 642 0 l 1,13,-1
 508 0 l 1,14,-1
 344 202 l 1,15,-1
 180 0 l 1,16,-1
 46 0 l 1,0,-1
EndSplineSet
Validated: 5
EndChar

StartChar: y.sc
Encoding: 65588 -1 168
Width: 688
GlyphClass: 1
Flags: W
LayerCount: 2
Fore
SplineSet
290 0 m 1,0,-1
 290 0 l 1,1,-1
 290 200 l 1,2,-1
 18 580 l 1,3,-1
 159 580 l 1,4,-1
 350 332 l 1,5,-1
 540 580 l 1,6,-1
 682 580 l 1,7,-1
 410 200 l 1,8,-1
 410 0 l 1,9,-1
 290 0 l 1,0,-1
EndSplineSet
Validated: 5
EndChar

StartChar: z.sc
Encoding: 65589 -1 169
Width: 698
GlyphClass: 1
Flags: W
LayerCount: 2
Fore
SplineSet
54 0 m 1,0,-1
 54 0 l 1,1,-1
 54 136 l 1,2,-1
 475 461 l 1,3,-1
 54 461 l 1,4,-1
 54 580 l 1,5,-1
 643 580 l 1,6,-1
 643 444 l 1,7,-1
 223 119 l 1,8,-1
 643 119 l 1,9,-1
 643 0 l 1,10,-1
 54 0 l 1,0,-1
EndSplineSet
Validated: 5
EndChar

StartChar: zero
Encoding: 48 48 170
Width: 834
GlyphClass: 1
Flags: W
LayerCount: 2
Fore
SplineSet
191 0 m 1,0,1
 154 0 154 0 123.5 19.5 c 128,-1,2
 93 39 93 39 75 71 c 128,-1,3
 57 103 57 103 57 139 c 2,4,-1
 57 584 l 2,5,6
 57 621 57 621 75 652 c 128,-1,7
 93 683 93 683 123.5 701.5 c 128,-1,8
 154 720 154 720 191 720 c 2,9,-1
 639 720 l 2,10,11
 676 720 676 720 706.5 701.5 c 128,-1,12
 737 683 737 683 755 652 c 128,-1,13
 773 621 773 621 773 584 c 2,14,-1
 773 139 l 2,15,16
 773 103 773 103 755 71 c 128,-1,17
 737 39 737 39 706.5 19.5 c 128,-1,18
 676 0 676 0 639 0 c 2,19,-1
 191 0 l 1,20,-1
 191 0 l 1,0,1
224 125 m 1,21,-1
 224 125 l 1,22,-1
 636 125 l 2,23,24
 643 125 643 125 648.5 130.5 c 128,-1,25
 654 136 654 136 654 143 c 2,26,-1
 654 482 l 1,27,-1
 224 125 l 1,21,-1
176 241 m 1,28,-1
 176 241 l 1,29,-1
 606 598 l 1,30,-1
 195 598 l 2,31,32
 187 598 187 598 181.5 592.5 c 128,-1,33
 176 587 176 587 176 580 c 2,34,-1
 176 241 l 1,28,-1
EndSplineSet
Validated: 5
EndChar

StartChar: one
Encoding: 49 49 171
Width: 391
GlyphClass: 1
Flags: W
LayerCount: 2
Fore
SplineSet
228 0 m 1,0,-1
 228 0 l 1,1,-1
 228 554 l 1,2,-1
 159 469 l 1,3,-1
 1 469 l 1,4,-1
 212 720 l 1,5,-1
 348 720 l 1,6,-1
 348 0 l 1,7,-1
 228 0 l 1,0,-1
EndSplineSet
Validated: 5
EndChar

StartChar: two
Encoding: 50 50 172
Width: 830
GlyphClass: 1
Flags: W
LayerCount: 2
Fore
SplineSet
57 0 m 1,0,-1
 57 0 l 1,1,-1
 57 275 l 2,2,3
 57 312 57 312 75 342.5 c 128,-1,4
 93 373 93 373 123.5 390.5 c 128,-1,5
 154 408 154 408 191 408 c 2,6,-1
 636 408 l 2,7,8
 643 408 643 408 648.5 413.5 c 128,-1,9
 654 419 654 419 654 427 c 2,10,-1
 654 582 l 2,11,12
 654 590 654 590 648.5 595.5 c 128,-1,13
 643 601 643 601 636 601 c 2,14,-1
 195 601 l 2,15,16
 187 601 187 601 181.5 595.5 c 128,-1,17
 176 590 176 590 176 582 c 2,18,-1
 176 538 l 1,19,-1
 57 538 l 1,20,-1
 57 586 l 2,21,22
 57 624 57 624 75 654 c 128,-1,23
 93 684 93 684 123.5 702 c 128,-1,24
 154 720 154 720 191 720 c 2,25,-1
 639 720 l 2,26,27
 676 720 676 720 706.5 702 c 128,-1,28
 737 684 737 684 755 654 c 128,-1,29
 773 624 773 624 773 586 c 2,30,-1
 773 423 l 2,31,32
 773 386 773 386 755 355.5 c 128,-1,33
 737 325 737 325 706.5 306.5 c 128,-1,34
 676 288 676 288 639 288 c 2,35,-1
 195 288 l 2,36,37
 187 288 187 288 181.5 283 c 128,-1,38
 176 278 176 278 176 270 c 2,39,-1
 176 138 l 2,40,41
 176 130 176 130 181.5 124.5 c 128,-1,42
 187 119 187 119 195 119 c 2,43,-1
 773 119 l 1,44,-1
 773 0 l 1,45,-1
 57 0 l 1,0,-1
EndSplineSet
Validated: 5
Substitution2: "'ss03' Style Set 3 in Latin lookup 6 subtable" two.alt
Substitution2: "'aalt' Access All Alternates in Latin lookup 0 subtable" two.alt
EndChar

StartChar: three
Encoding: 51 51 173
Width: 826
GlyphClass: 1
Flags: W
LayerCount: 2
Fore
SplineSet
188 0 m 1,0,1
 150 0 150 0 120 18.5 c 128,-1,2
 90 37 90 37 71.5 67 c 128,-1,3
 53 97 53 97 53 134 c 2,4,-1
 53 171 l 1,5,-1
 173 171 l 1,6,-1
 173 138 l 2,7,8
 173 130 173 130 178.5 124.5 c 128,-1,9
 184 119 184 119 191 119 c 2,10,-1
 632 119 l 2,11,12
 640 119 640 119 645.5 124.5 c 128,-1,13
 651 130 651 130 651 138 c 2,14,-1
 651 287 l 2,15,16
 651 295 651 295 645.5 300 c 128,-1,17
 640 305 640 305 632 305 c 2,18,-1
 180 305 l 1,19,-1
 180 425 l 1,20,-1
 603 425 l 2,21,22
 610 425 610 425 615.5 430.5 c 128,-1,23
 621 436 621 436 621 443 c 2,24,-1
 621 582 l 2,25,26
 621 590 621 590 615.5 595.5 c 128,-1,27
 610 601 610 601 603 601 c 2,28,-1
 191 601 l 2,29,30
 184 601 184 601 178.5 595.5 c 128,-1,31
 173 590 173 590 173 582 c 2,32,-1
 173 540 l 1,33,-1
 53 540 l 1,34,-1
 53 586 l 2,35,36
 53 624 53 624 71.5 654 c 128,-1,37
 90 684 90 684 120 702 c 128,-1,38
 150 720 150 720 188 720 c 2,39,-1
 607 720 l 2,40,41
 644 720 644 720 674.5 702 c 128,-1,42
 705 684 705 684 723 654 c 128,-1,43
 741 624 741 624 741 586 c 2,44,-1
 741 439 l 2,45,46
 741 427 741 427 738.5 414 c 128,-1,47
 736 401 736 401 732 390 c 1,48,49
 751 369 751 369 760.5 343 c 128,-1,50
 770 317 770 317 770 291 c 2,51,-1
 770 134 l 2,52,53
 770 97 770 97 752 67 c 128,-1,54
 734 37 734 37 703.5 18.5 c 128,-1,55
 673 0 673 0 636 0 c 2,56,-1
 188 0 l 1,57,-1
 188 0 l 1,0,1
EndSplineSet
Validated: 5
EndChar

StartChar: four
Encoding: 52 52 174
Width: 730
GlyphClass: 1
Flags: W
LayerCount: 2
Fore
SplineSet
471 0 m 1,0,-1
 471 0 l 1,1,-1
 471 182 l 1,2,-1
 6 182 l 1,3,-1
 6 298 l 1,4,-1
 474 720 l 1,5,-1
 590 720 l 1,6,-1
 590 302 l 1,7,-1
 694 302 l 1,8,-1
 694 182 l 1,9,-1
 590 182 l 1,10,-1
 590 0 l 1,11,-1
 471 0 l 1,0,-1
187 302 m 1,12,-1
 187 302 l 1,13,-1
 471 302 l 1,14,-1
 471 542 l 1,15,-1
 187 302 l 1,12,-1
EndSplineSet
Validated: 5
Substitution2: "'ss03' Style Set 3 in Latin lookup 6 subtable" four.alt
Substitution2: "'aalt' Access All Alternates in Latin lookup 0 subtable" four.alt
EndChar

StartChar: five
Encoding: 53 53 175
Width: 830
GlyphClass: 1
Flags: W
LayerCount: 2
Fore
SplineSet
191 0 m 1,0,1
 154 0 154 0 123.5 18.5 c 128,-1,2
 93 37 93 37 75 67 c 128,-1,3
 57 97 57 97 57 134 c 2,4,-1
 57 177 l 1,5,-1
 176 177 l 1,6,-1
 176 138 l 2,7,8
 176 130 176 130 181.5 124.5 c 128,-1,9
 187 119 187 119 195 119 c 2,10,-1
 636 119 l 2,11,12
 643 119 643 119 648.5 124.5 c 128,-1,13
 654 130 654 130 654 138 c 2,14,-1
 654 289 l 2,15,16
 654 297 654 297 648.5 302.5 c 128,-1,17
 643 308 643 308 636 308 c 2,18,-1
 57 308 l 1,19,-1
 57 720 l 1,20,-1
 773 720 l 1,21,-1
 773 601 l 1,22,-1
 195 601 l 2,23,24
 187 601 187 601 181.5 595.5 c 128,-1,25
 176 590 176 590 176 582 c 2,26,-1
 176 447 l 2,27,28
 176 439 176 439 181.5 433.5 c 128,-1,29
 187 428 187 428 195 428 c 2,30,-1
 639 428 l 2,31,32
 676 428 676 428 706.5 410 c 128,-1,33
 737 392 737 392 755 361.5 c 128,-1,34
 773 331 773 331 773 294 c 2,35,-1
 773 134 l 2,36,37
 773 97 773 97 755 67 c 128,-1,38
 737 37 737 37 706.5 18.5 c 128,-1,39
 676 0 676 0 639 0 c 2,40,-1
 191 0 l 1,41,-1
 191 0 l 1,0,1
EndSplineSet
Validated: 5
EndChar

StartChar: six
Encoding: 54 54 176
Width: 820
GlyphClass: 1
Flags: W
LayerCount: 2
Fore
SplineSet
191 0 m 1,0,1
 154 0 154 0 123.5 18.5 c 128,-1,2
 93 37 93 37 75 67 c 128,-1,3
 57 97 57 97 57 134 c 2,4,-1
 57 586 l 2,5,6
 57 624 57 624 75 654 c 128,-1,7
 93 684 93 684 123.5 702 c 128,-1,8
 154 720 154 720 191 720 c 2,9,-1
 656 720 l 1,10,-1
 656 601 l 1,11,-1
 195 601 l 2,12,13
 187 601 187 601 181.5 595.5 c 128,-1,14
 176 590 176 590 176 582 c 2,15,-1
 176 448 l 2,16,17
 176 441 176 441 181.5 435 c 128,-1,18
 187 429 187 429 195 429 c 2,19,-1
 639 429 l 2,20,21
 676 429 676 429 706.5 411.5 c 128,-1,22
 737 394 737 394 755 363.5 c 128,-1,23
 773 333 773 333 773 296 c 2,24,-1
 773 134 l 2,25,26
 773 97 773 97 755 67 c 128,-1,27
 737 37 737 37 706.5 18.5 c 128,-1,28
 676 0 676 0 639 0 c 2,29,-1
 191 0 l 1,30,-1
 191 0 l 1,0,1
195 119 m 2,31,-1
 636 119 l 2,32,33
 643 119 643 119 648.5 124.5 c 128,-1,34
 654 130 654 130 654 138 c 2,35,-1
 654 291 l 2,36,37
 654 298 654 298 648.5 303.5 c 128,-1,38
 643 309 643 309 636 309 c 2,39,-1
 176 309 l 1,40,-1
 176 138 l 2,41,42
 176 130 176 130 181.5 124.5 c 128,-1,43
 187 119 187 119 195 119 c 2,31,-1
EndSplineSet
Validated: 5
EndChar

StartChar: seven
Encoding: 55 55 177
Width: 660
GlyphClass: 1
Flags: W
LayerCount: 2
Fore
SplineSet
483 0 m 1,0,-1
 483 0 l 1,1,-1
 483 583 l 2,2,3
 483 590 483 590 477.5 595.5 c 128,-1,4
 472 601 472 601 465 601 c 2,5,-1
 3 601 l 1,6,-1
 3 721 l 1,7,-1
 469 721 l 2,8,9
 505 721 505 721 535.5 703 c 128,-1,10
 566 685 566 685 584 654.5 c 128,-1,11
 602 624 602 624 602 587 c 2,12,-1
 602 0 l 1,13,-1
 483 0 l 1,0,-1
EndSplineSet
Validated: 5
Substitution2: "'ss03' Style Set 3 in Latin lookup 6 subtable" seven.alt
Substitution2: "'aalt' Access All Alternates in Latin lookup 0 subtable" seven.alt
EndChar

StartChar: eight
Encoding: 56 56 178
Width: 834
GlyphClass: 1
Flags: W
LayerCount: 2
Fore
SplineSet
191 0 m 1,0,1
 154 0 154 0 123.5 18.5 c 128,-1,2
 93 37 93 37 75 67 c 128,-1,3
 57 97 57 97 57 134 c 2,4,-1
 57 294 l 2,5,6
 57 313 57 313 63.5 331.5 c 128,-1,7
 70 350 70 350 80 368 c 1,8,9
 70 385 70 385 63.5 404.5 c 128,-1,10
 57 424 57 424 57 443 c 2,11,-1
 57 586 l 2,12,13
 57 624 57 624 75 654 c 128,-1,14
 93 684 93 684 123.5 702 c 128,-1,15
 154 720 154 720 191 720 c 2,16,-1
 639 720 l 2,17,18
 671 720 671 720 699 705 c 128,-1,19
 727 690 727 690 747 665 c 128,-1,20
 767 640 767 640 773 610 c 1,21,-1
 773 443 l 2,22,23
 773 405 773 405 750 368 c 1,24,25
 773 334 773 334 773 294 c 2,26,-1
 773 134 l 2,27,28
 773 97 773 97 755 67 c 128,-1,29
 737 37 737 37 706.5 18.5 c 128,-1,30
 676 0 676 0 639 0 c 2,31,-1
 191 0 l 1,32,-1
 191 0 l 1,0,1
195 119 m 1,33,-1
 195 119 l 1,34,-1
 636 119 l 2,35,36
 643 119 643 119 648.5 124.5 c 128,-1,37
 654 130 654 130 654 138 c 2,38,-1
 654 289 l 2,39,40
 654 297 654 297 648.5 302.5 c 128,-1,41
 643 308 643 308 636 308 c 2,42,-1
 195 308 l 2,43,44
 187 308 187 308 181.5 302.5 c 128,-1,45
 176 297 176 297 176 289 c 2,46,-1
 176 138 l 2,47,48
 176 130 176 130 181.5 124.5 c 128,-1,49
 187 119 187 119 195 119 c 1,33,-1
195 417 m 1,50,-1
 195 417 l 1,51,-1
 636 417 l 2,52,53
 643 417 643 417 648.5 422.5 c 128,-1,54
 654 428 654 428 654 436 c 2,55,-1
 654 581 l 2,56,57
 654 589 654 589 648.5 594.5 c 128,-1,58
 643 600 643 600 636 600 c 2,59,-1
 195 600 l 2,60,61
 187 600 187 600 181.5 594.5 c 128,-1,62
 176 589 176 589 176 581 c 2,63,-1
 176 436 l 2,64,65
 176 428 176 428 181.5 422.5 c 128,-1,66
 187 417 187 417 195 417 c 1,50,-1
EndSplineSet
Validated: 5
EndChar

StartChar: nine
Encoding: 57 57 179
Width: 828
GlyphClass: 1
Flags: W
LayerCount: 2
Fore
SplineSet
187 0 m 1,0,1
 156 0 156 0 128.5 16 c 128,-1,2
 101 32 101 32 81.5 58.5 c 128,-1,3
 62 85 62 85 54 119 c 1,4,-1
 632 119 l 2,5,6
 639 119 639 119 644.5 124.5 c 128,-1,7
 650 130 650 130 650 138 c 2,8,-1
 650 274 l 2,9,10
 650 281 650 281 644.5 286.5 c 128,-1,11
 639 292 639 292 632 292 c 2,12,-1
 187 292 l 2,13,14
 150 292 150 292 119.5 310.5 c 128,-1,15
 89 329 89 329 71 359.5 c 128,-1,16
 53 390 53 390 53 427 c 2,17,-1
 53 586 l 2,18,19
 53 624 53 624 71 654 c 128,-1,20
 89 684 89 684 119.5 702 c 128,-1,21
 150 720 150 720 187 720 c 2,22,-1
 636 720 l 2,23,24
 672 720 672 720 702.5 702 c 128,-1,25
 733 684 733 684 751.5 654 c 128,-1,26
 770 624 770 624 770 586 c 2,27,-1
 770 134 l 2,28,29
 770 97 770 97 751.5 67 c 128,-1,30
 733 37 733 37 702.5 18.5 c 128,-1,31
 672 0 672 0 636 0 c 2,32,-1
 187 0 l 1,33,-1
 187 0 l 1,0,1
191 412 m 1,34,-1
 191 412 l 1,35,-1
 650 412 l 1,36,-1
 650 582 l 2,37,38
 650 590 650 590 644.5 595.5 c 128,-1,39
 639 601 639 601 632 601 c 2,40,-1
 191 601 l 2,41,42
 184 601 184 601 178.5 595.5 c 128,-1,43
 173 590 173 590 173 582 c 2,44,-1
 173 431 l 2,45,46
 173 423 173 423 178.5 417.5 c 128,-1,47
 184 412 184 412 191 412 c 1,34,-1
EndSplineSet
Validated: 5
Substitution2: "'ss03' Style Set 3 in Latin lookup 6 subtable" nine.alt
Substitution2: "'aalt' Access All Alternates in Latin lookup 0 subtable" nine.alt
EndChar

StartChar: two.alt
Encoding: 65590 -1 180
Width: 815
GlyphClass: 1
Flags: W
LayerCount: 2
Fore
SplineSet
182 0 m 1,0,1
 134 0 134 0 97.5 30.5 c 128,-1,2
 61 61 61 61 50 104 c 1,3,-1
 49 230 l 1,4,-1
 645 542 l 1,5,-1
 645 600 l 1,6,-1
 188 600 l 2,7,8
 180 600 180 600 174.5 594.5 c 128,-1,9
 169 589 169 589 169 582 c 2,10,-1
 169 525 l 1,11,-1
 49 525 l 1,12,-1
 49 586 l 2,13,14
 49 623 49 623 67.5 653.5 c 128,-1,15
 86 684 86 684 116 702 c 128,-1,16
 146 720 146 720 184 720 c 2,17,-1
 632 720 l 2,18,19
 664 720 664 720 691.5 705 c 128,-1,20
 719 690 719 690 738.5 664.5 c 128,-1,21
 758 639 758 639 764 609 c 1,22,-1
 764 470 l 1,23,-1
 169 157 l 1,24,-1
 169 119 l 1,25,-1
 764 119 l 1,26,-1
 764 0 l 1,27,-1
 182 0 l 1,28,-1
 182 0 l 1,0,1
EndSplineSet
Validated: 5
EndChar

StartChar: four.alt
Encoding: 65591 -1 181
Width: 723
GlyphClass: 1
Flags: W
LayerCount: 2
Fore
SplineSet
474 0 m 1,0,-1
 474 0 l 1,1,-1
 474 181 l 1,2,-1
 9 181 l 1,3,-1
 9 296 l 1,4,-1
 370 719 l 1,5,-1
 485 719 l 1,6,-1
 485 661 l 1,7,-1
 159 301 l 1,8,-1
 474 301 l 1,9,-1
 474 447 l 1,10,-1
 593 447 l 1,11,-1
 593 301 l 1,12,-1
 697 301 l 1,13,-1
 697 181 l 1,14,-1
 593 181 l 1,15,-1
 593 0 l 1,16,-1
 474 0 l 1,0,-1
EndSplineSet
Validated: 5
EndChar

StartChar: seven.alt
Encoding: 65592 -1 182
Width: 771
GlyphClass: 1
Flags: W
LayerCount: 2
Fore
SplineSet
48 0 m 1,0,-1
 48 0 l 1,1,-1
 48 27 l 1,2,-1
 527 601 l 1,3,-1
 46 601 l 1,4,-1
 46 720 l 1,5,-1
 761 720 l 1,6,-1
 761 693 l 1,7,-1
 181 0 l 1,8,-1
 48 0 l 1,0,-1
EndSplineSet
Validated: 5
EndChar

StartChar: nine.alt
Encoding: 65593 -1 183
Width: 784
GlyphClass: 1
Flags: W
LayerCount: 2
Fore
SplineSet
610 0 m 1,0,-1
 610 0 l 1,1,-1
 610 272 l 2,2,3
 610 280 610 280 604.5 285.5 c 128,-1,4
 599 291 599 291 591 291 c 2,5,-1
 147 291 l 2,6,7
 109 291 109 291 79 309 c 128,-1,8
 49 327 49 327 30.5 357.5 c 128,-1,9
 12 388 12 388 12 425 c 2,10,-1
 12 584 l 2,11,12
 12 622 12 622 30.5 652 c 128,-1,13
 49 682 49 682 79 700.5 c 128,-1,14
 109 719 109 719 147 719 c 2,15,-1
 595 719 l 2,16,17
 632 719 632 719 662.5 700.5 c 128,-1,18
 693 682 693 682 711 652 c 128,-1,19
 729 622 729 622 729 584 c 2,20,-1
 729 0 l 1,21,-1
 610 0 l 1,0,-1
151 410 m 1,22,-1
 151 410 l 1,23,-1
 610 410 l 1,24,-1
 610 580 l 2,25,26
 610 588 610 588 604.5 593.5 c 128,-1,27
 599 599 599 599 591 599 c 2,28,-1
 151 599 l 2,29,30
 143 599 143 599 137.5 593.5 c 128,-1,31
 132 588 132 588 132 580 c 2,32,-1
 132 429 l 2,33,34
 132 421 132 421 137.5 415.5 c 128,-1,35
 143 410 143 410 151 410 c 1,22,-1
EndSplineSet
Validated: 5
EndChar

StartChar: period
Encoding: 46 46 184
Width: 224
GlyphClass: 1
Flags: W
LayerCount: 2
Fore
SplineSet
54 0 m 1,0,-1
 54 0 l 1,1,-1
 54 119 l 1,2,-1
 173 119 l 1,3,-1
 173 0 l 1,4,-1
 54 0 l 1,0,-1
EndSplineSet
Validated: 5
EndChar

StartChar: comma
Encoding: 44 44 185
Width: 219
GlyphClass: 1
Flags: W
LayerCount: 2
Fore
SplineSet
54 -132 m 1,0,-1
 54 -132 l 1,1,-1
 54 114 l 1,2,-1
 173 114 l 1,3,-1
 173 1 l 2,4,5
 173 -31 173 -31 157.5 -58 c 128,-1,6
 142 -85 142 -85 115 -105 c 128,-1,7
 88 -125 88 -125 54 -132 c 1,0,-1
EndSplineSet
Validated: 5
EndChar

StartChar: colon
Encoding: 58 58 186
Width: 231
GlyphClass: 1
Flags: W
LayerCount: 2
Fore
SplineSet
54 464 m 1,0,-1
 54 464 l 1,1,-1
 54 584 l 1,2,-1
 173 584 l 1,3,-1
 173 464 l 1,4,-1
 54 464 l 1,0,-1
54 0 m 1,5,-1
 54 0 l 1,6,-1
 54 119 l 1,7,-1
 173 119 l 1,8,-1
 173 0 l 1,9,-1
 54 0 l 1,5,-1
EndSplineSet
Validated: 5
EndChar

StartChar: semicolon
Encoding: 59 59 187
Width: 231
GlyphClass: 1
Flags: W
LayerCount: 2
Fore
SplineSet
52 -132 m 1,0,-1
 52 -132 l 1,1,-1
 52 114 l 1,2,-1
 171 114 l 1,3,-1
 171 1 l 2,4,5
 171 -31 171 -31 155.5 -58 c 128,-1,6
 140 -85 140 -85 113 -105 c 128,-1,7
 86 -125 86 -125 52 -132 c 1,0,-1
51 464 m 1,8,-1
 51 464 l 1,9,-1
 51 584 l 1,10,-1
 171 584 l 1,11,-1
 171 464 l 1,12,-1
 51 464 l 1,8,-1
EndSplineSet
Validated: 5
EndChar

StartChar: ellipsis
Encoding: 8230 8230 188
Width: 574
GlyphClass: 1
Flags: W
LayerCount: 2
Fore
SplineSet
54 0 m 1,0,-1
 54 0 l 1,1,-1
 54 119 l 1,2,-1
 174 119 l 1,3,-1
 174 0 l 1,4,-1
 54 0 l 1,0,-1
245 0 m 1,5,-1
 245 0 l 1,6,-1
 245 119 l 1,7,-1
 365 119 l 1,8,-1
 365 0 l 1,9,-1
 245 0 l 1,5,-1
435 0 m 1,10,-1
 435 0 l 1,11,-1
 435 119 l 1,12,-1
 555 119 l 1,13,-1
 555 0 l 1,14,-1
 435 0 l 1,10,-1
EndSplineSet
Validated: 5
EndChar

StartChar: exclam
Encoding: 33 33 189
Width: 220
GlyphClass: 1
Flags: W
LayerCount: 2
Fore
SplineSet
58 202 m 1,0,-1
 58 202 l 1,1,-1
 58 720 l 1,2,-1
 177 720 l 1,3,-1
 177 202 l 1,4,-1
 58 202 l 1,0,-1
58 0 m 1,5,-1
 58 0 l 1,6,-1
 58 119 l 1,7,-1
 177 119 l 1,8,-1
 177 0 l 1,9,-1
 58 0 l 1,5,-1
EndSplineSet
Validated: 5
EndChar

StartChar: exclamdown
Encoding: 161 161 190
Width: 210
GlyphClass: 1
Flags: W
LayerCount: 2
Fore
SplineSet
53 0 m 1,0,-1
 53 0 l 1,1,-1
 53 522 l 1,2,-1
 172 522 l 1,3,-1
 172 0 l 1,4,-1
 53 0 l 1,0,-1
53 597 m 1,5,-1
 53 597 l 1,6,-1
 53 716 l 1,7,-1
 172 716 l 1,8,-1
 172 597 l 1,9,-1
 53 597 l 1,5,-1
EndSplineSet
Validated: 5
EndChar

StartChar: question
Encoding: 63 63 191
Width: 678
GlyphClass: 1
Flags: W
LayerCount: 2
Fore
SplineSet
140 197 m 1,0,-1
 140 197 l 1,1,-1
 140 258 l 2,2,3
 140 296 140 296 158 326 c 128,-1,4
 176 356 176 356 206.5 374 c 128,-1,5
 237 392 237 392 273 392 c 2,6,-1
 523 392 l 2,7,8
 530 392 530 392 535.5 397.5 c 128,-1,9
 541 403 541 403 541 410 c 2,10,-1
 541 581 l 2,11,12
 541 589 541 589 535.5 594.5 c 128,-1,13
 530 600 530 600 523 600 c 2,14,-1
 31 600 l 1,15,-1
 31 720 l 1,16,-1
 526 720 l 2,17,18
 563 720 563 720 593.5 701.5 c 128,-1,19
 624 683 624 683 642.5 653 c 128,-1,20
 661 623 661 623 661 585 c 2,21,-1
 661 406 l 2,22,23
 661 370 661 370 642.5 339.5 c 128,-1,24
 624 309 624 309 593.5 290.5 c 128,-1,25
 563 272 563 272 526 272 c 2,26,-1
 278 272 l 2,27,28
 271 272 271 272 265.5 266.5 c 128,-1,29
 260 261 260 261 260 254 c 2,30,-1
 260 197 l 1,31,-1
 140 197 l 1,0,-1
140 0 m 1,32,-1
 140 0 l 1,33,-1
 140 119 l 1,34,-1
 260 119 l 1,35,-1
 260 0 l 1,36,-1
 140 0 l 1,32,-1
EndSplineSet
Validated: 5
Substitution2: "'salt' Stylistic Alternatives in Latin lookup 3 subtable" question.alt
Substitution2: "'aalt' Access All Alternates in Latin lookup 0 subtable" question.alt
EndChar

StartChar: questiondown
Encoding: 191 191 192
Width: 675
GlyphClass: 1
Flags: W
LayerCount: 2
Fore
SplineSet
153 0 m 1,0,1
 116 0 116 0 85.5 18.5 c 128,-1,2
 55 37 55 37 37 67 c 128,-1,3
 19 97 19 97 19 134 c 2,4,-1
 19 313 l 2,5,6
 19 351 19 351 37 381 c 128,-1,7
 55 411 55 411 85.5 429.5 c 128,-1,8
 116 448 116 448 153 448 c 2,9,-1
 401 448 l 2,10,11
 409 448 409 448 414.5 453 c 128,-1,12
 420 458 420 458 420 466 c 2,13,-1
 420 528 l 1,14,-1
 539 528 l 1,15,-1
 539 462 l 2,16,17
 539 424 539 424 521 394 c 128,-1,18
 503 364 503 364 473 345.5 c 128,-1,19
 443 327 443 327 405 327 c 2,20,-1
 157 327 l 2,21,22
 149 327 149 327 143.5 321.5 c 128,-1,23
 138 316 138 316 138 309 c 2,24,-1
 138 138 l 2,25,26
 138 130 138 130 143.5 124.5 c 128,-1,27
 149 119 149 119 157 119 c 2,28,-1
 648 119 l 1,29,-1
 649 0 l 1,30,-1
 153 0 l 1,31,-1
 153 0 l 1,0,1
420 597 m 1,32,-1
 420 597 l 1,33,-1
 420 716 l 1,34,-1
 539 716 l 1,35,-1
 539 597 l 1,36,-1
 420 597 l 1,32,-1
EndSplineSet
Validated: 5
EndChar

StartChar: bullet
Encoding: 8226 8226 193
Width: 371
GlyphClass: 1
Flags: W
LayerCount: 2
Fore
SplineSet
173 301 m 1,0,1
 125 301 125 301 125 348 c 2,2,-1
 125 368 l 2,3,4
 125 416 125 416 173 416 c 2,5,-1
 196 416 l 2,6,7
 245 416 245 416 245 368 c 2,8,-1
 245 348 l 2,9,10
 245 301 245 301 196 301 c 2,11,-1
 173 301 l 1,12,-1
 173 301 l 1,0,1
EndSplineSet
Validated: 5
EndChar

StartChar: asterisk
Encoding: 42 42 194
Width: 504
GlyphClass: 1
Flags: W
LayerCount: 2
Fore
SplineSet
170 287 m 1,0,-1
 170 287 l 1,1,-1
 73 356 l 1,2,-1
 152 465 l 1,3,-1
 25 505 l 1,4,-1
 61 621 l 1,5,-1
 188 578 l 1,6,-1
 188 712 l 1,7,-1
 308 712 l 1,8,-1
 308 579 l 1,9,-1
 435 621 l 1,10,-1
 472 505 l 1,11,-1
 345 465 l 1,12,-1
 424 357 l 1,13,-1
 328 287 l 1,14,-1
 248 394 l 1,15,-1
 170 287 l 1,0,-1
EndSplineSet
Validated: 5
EndChar

StartChar: numbersign
Encoding: 35 35 195
Width: 797
GlyphClass: 1
Flags: W
LayerCount: 2
Fore
SplineSet
69 0 m 1,0,-1
 69 0 l 1,1,-1
 119 164 l 1,2,-1
 32 164 l 1,3,-1
 32 284 l 1,4,-1
 156 284 l 1,5,-1
 207 443 l 1,6,-1
 62 443 l 1,7,-1
 62 563 l 1,8,-1
 245 563 l 1,9,-1
 297 720 l 1,10,-1
 419 720 l 1,11,-1
 365 563 l 1,12,-1
 561 563 l 1,13,-1
 613 720 l 1,14,-1
 734 720 l 1,15,-1
 680 563 l 1,16,-1
 761 563 l 1,17,-1
 761 443 l 1,18,-1
 643 443 l 1,19,-1
 592 284 l 1,20,-1
 731 284 l 1,21,-1
 731 164 l 1,22,-1
 553 164 l 1,23,-1
 504 0 l 1,24,-1
 384 0 l 1,25,-1
 434 164 l 1,26,-1
 238 164 l 1,27,-1
 189 0 l 1,28,-1
 69 0 l 1,0,-1
277 284 m 1,29,-1
 277 284 l 1,30,-1
 471 284 l 1,31,-1
 523 443 l 1,32,-1
 328 443 l 1,33,-1
 277 284 l 1,29,-1
EndSplineSet
Validated: 5
EndChar

StartChar: slash
Encoding: 47 47 196
Width: 521
GlyphClass: 1
Flags: W
LayerCount: 2
Fore
SplineSet
6 0 m 1,0,-1
 6 0 l 1,1,-1
 6 132 l 1,2,-1
 485 716 l 1,3,-1
 517 720 l 1,4,-1
 517 590 l 1,5,-1
 39 5 l 1,6,-1
 6 0 l 1,0,-1
EndSplineSet
Validated: 5
EndChar

StartChar: backslash
Encoding: 92 92 197
Width: 520
GlyphClass: 1
Flags: W
LayerCount: 2
Fore
SplineSet
486 0 m 1,0,-1
 486 0 l 1,1,-1
 5 592 l 1,2,-1
 5 720 l 1,3,-1
 37 720 l 1,4,-1
 516 132 l 1,5,-1
 517 0 l 1,6,-1
 486 0 l 1,0,-1
EndSplineSet
Validated: 5
EndChar

StartChar: question.alt
Encoding: 65594 -1 198
Width: 667
GlyphClass: 1
Flags: W
LayerCount: 2
Fore
SplineSet
190 172 m 1,0,-1
 190 172 l 1,1,-1
 190 259 l 2,2,3
 190 296 190 296 208.5 326.5 c 128,-1,4
 227 357 227 357 257.5 374.5 c 128,-1,5
 288 392 288 392 324 392 c 2,6,-1
 506 392 l 2,7,8
 514 392 514 392 519 397.5 c 128,-1,9
 524 403 524 403 524 411 c 2,10,-1
 524 582 l 2,11,12
 524 589 524 589 519 594.5 c 128,-1,13
 514 600 514 600 506 600 c 2,14,-1
 146 600 l 1,15,-1
 146 495 l 1,16,-1
 27 495 l 1,17,-1
 27 608 l 1,18,19
 33 639 33 639 52 664 c 128,-1,20
 71 689 71 689 99 704.5 c 128,-1,21
 127 720 127 720 159 720 c 2,22,-1
 510 720 l 2,23,24
 547 720 547 720 577 702 c 128,-1,25
 607 684 607 684 625.5 653.5 c 128,-1,26
 644 623 644 623 644 586 c 2,27,-1
 644 407 l 2,28,29
 644 370 644 370 625.5 339.5 c 128,-1,30
 607 309 607 309 576.5 290.5 c 128,-1,31
 546 272 546 272 510 272 c 2,32,-1
 329 272 l 2,33,34
 322 272 322 272 316.5 267 c 128,-1,35
 311 262 311 262 311 254 c 2,36,-1
 311 172 l 1,37,-1
 190 172 l 1,0,-1
190 0 m 1,38,-1
 190 0 l 1,39,-1
 190 119 l 1,40,-1
 311 119 l 1,41,-1
 311 0 l 1,42,-1
 190 0 l 1,38,-1
EndSplineSet
Validated: 5
EndChar

StartChar: parenleft
Encoding: 40 40 199
Width: 286
GlyphClass: 1
Flags: W
LayerCount: 2
Fore
SplineSet
186 0 m 1,0,1
 149 0 149 0 118.5 18.5 c 128,-1,2
 88 37 88 37 70 67 c 128,-1,3
 52 97 52 97 52 134 c 2,4,-1
 52 586 l 2,5,6
 52 623 52 623 70 653.5 c 128,-1,7
 88 684 88 684 118.5 702 c 128,-1,8
 149 720 149 720 186 720 c 2,9,-1
 234 720 l 1,10,-1
 234 600 l 1,11,-1
 190 600 l 2,12,13
 182 600 182 600 176.5 594.5 c 128,-1,14
 171 589 171 589 171 582 c 2,15,-1
 171 138 l 2,16,17
 171 130 171 130 176.5 124.5 c 128,-1,18
 182 119 182 119 190 119 c 2,19,-1
 234 119 l 1,20,-1
 234 0 l 1,21,-1
 186 0 l 1,22,-1
 186 0 l 1,0,1
EndSplineSet
Validated: 5
EndChar

StartChar: parenright
Encoding: 41 41 200
Width: 288
GlyphClass: 1
Flags: W
LayerCount: 2
Fore
SplineSet
56 0 m 1,0,-1
 56 0 l 1,1,-1
 56 119 l 1,2,-1
 100 119 l 2,3,4
 107 119 107 119 112.5 124.5 c 128,-1,5
 118 130 118 130 118 138 c 2,6,-1
 118 582 l 2,7,8
 118 589 118 589 112.5 594.5 c 128,-1,9
 107 600 107 600 100 600 c 2,10,-1
 56 600 l 1,11,-1
 56 720 l 1,12,-1
 105 720 l 2,13,14
 141 720 141 720 171.5 702 c 128,-1,15
 202 684 202 684 220.5 653.5 c 128,-1,16
 239 623 239 623 239 586 c 2,17,-1
 239 134 l 2,18,19
 239 97 239 97 220.5 67 c 128,-1,20
 202 37 202 37 171.5 18.5 c 128,-1,21
 141 0 141 0 105 0 c 2,22,-1
 56 0 l 1,0,-1
EndSplineSet
Validated: 5
EndChar

StartChar: braceleft
Encoding: 123 123 201
Width: 289
GlyphClass: 1
Flags: W
LayerCount: 2
Fore
SplineSet
200 0 m 1,0,1
 164 0 164 0 133.5 18.5 c 128,-1,2
 103 37 103 37 84.5 67 c 128,-1,3
 66 97 66 97 66 134 c 2,4,-1
 66 282 l 1,5,-1
 23 308 l 1,6,-1
 23 422 l 1,7,-1
 66 446 l 1,8,-1
 66 586 l 2,9,10
 66 623 66 623 84.5 653.5 c 128,-1,11
 103 684 103 684 133.5 702 c 128,-1,12
 164 720 164 720 200 720 c 2,13,-1
 248 720 l 1,14,-1
 248 600 l 1,15,-1
 204 600 l 2,16,17
 197 600 197 600 191.5 594.5 c 128,-1,18
 186 589 186 589 186 582 c 2,19,-1
 186 416 l 1,20,-1
 122 364 l 1,21,-1
 186 312 l 1,22,-1
 186 138 l 2,23,24
 186 130 186 130 191.5 124.5 c 128,-1,25
 197 119 197 119 204 119 c 2,26,-1
 248 119 l 1,27,-1
 248 0 l 1,28,-1
 200 0 l 1,29,-1
 200 0 l 1,0,1
EndSplineSet
Validated: 5
EndChar

StartChar: braceright
Encoding: 125 125 202
Width: 289
GlyphClass: 1
Flags: W
LayerCount: 2
Fore
SplineSet
51 0 m 1,0,-1
 51 0 l 1,1,-1
 51 119 l 1,2,-1
 95 119 l 2,3,4
 103 119 103 119 108.5 124.5 c 128,-1,5
 114 130 114 130 114 138 c 2,6,-1
 114 311 l 1,7,-1
 177 364 l 1,8,-1
 114 415 l 1,9,-1
 114 582 l 2,10,11
 114 589 114 589 108.5 594.5 c 128,-1,12
 103 600 103 600 95 600 c 2,13,-1
 51 600 l 1,14,-1
 51 720 l 1,15,-1
 99 720 l 2,16,17
 136 720 136 720 166.5 702 c 128,-1,18
 197 684 197 684 215 653.5 c 128,-1,19
 233 623 233 623 233 586 c 2,20,-1
 233 446 l 1,21,-1
 276 421 l 1,22,-1
 276 308 l 1,23,-1
 233 281 l 1,24,-1
 233 134 l 2,25,26
 233 97 233 97 214.5 67 c 128,-1,27
 196 37 196 37 166 18.5 c 128,-1,28
 136 0 136 0 99 0 c 2,29,-1
 51 0 l 1,0,-1
EndSplineSet
Validated: 5
EndChar

StartChar: bracketleft
Encoding: 91 91 203
Width: 275
GlyphClass: 1
Flags: W
LayerCount: 2
Fore
SplineSet
54 0 m 1,0,-1
 54 0 l 1,1,-1
 54 720 l 1,2,-1
 236 720 l 1,3,-1
 236 601 l 1,4,-1
 173 601 l 1,5,-1
 173 119 l 1,6,-1
 236 119 l 1,7,-1
 236 0 l 1,8,-1
 54 0 l 1,0,-1
EndSplineSet
Validated: 5
EndChar

StartChar: bracketright
Encoding: 93 93 204
Width: 276
GlyphClass: 1
Flags: W
LayerCount: 2
Fore
SplineSet
51 0 m 1,0,-1
 51 0 l 1,1,-1
 51 119 l 1,2,-1
 113 119 l 1,3,-1
 113 601 l 1,4,-1
 51 601 l 1,5,-1
 51 720 l 1,6,-1
 233 720 l 1,7,-1
 233 0 l 1,8,-1
 51 0 l 1,0,-1
EndSplineSet
Validated: 5
EndChar

StartChar: hyphen
Encoding: 45 45 205
Width: 517
GlyphClass: 1
Flags: W
LayerCount: 2
Fore
SplineSet
59 236 m 1,0,-1
 59 236 l 1,1,-1
 59 355 l 1,2,-1
 463 355 l 1,3,-1
 463 236 l 1,4,-1
 59 236 l 1,0,-1
EndSplineSet
Validated: 5
EndChar

StartChar: endash
Encoding: 8211 8211 206
Width: 708
GlyphClass: 1
Flags: W
LayerCount: 2
Fore
SplineSet
54 235 m 1,0,-1
 54 235 l 1,1,-1
 54 354 l 1,2,-1
 653 354 l 1,3,-1
 653 235 l 1,4,-1
 54 235 l 1,0,-1
EndSplineSet
Validated: 5
EndChar

StartChar: emdash
Encoding: 8212 8212 207
Width: 822
GlyphClass: 1
Flags: W
LayerCount: 2
Fore
SplineSet
54 235 m 1,0,-1
 54 235 l 1,1,-1
 54 354 l 1,2,-1
 765 354 l 1,3,-1
 765 235 l 1,4,-1
 54 235 l 1,0,-1
EndSplineSet
Validated: 5
EndChar

StartChar: underscore
Encoding: 95 95 208
Width: 828
GlyphClass: 1
Flags: W
LayerCount: 2
Fore
SplineSet
54 -120 m 1,0,-1
 54 -120 l 1,1,-1
 54 -1 l 1,2,-1
 771 -1 l 1,3,-1
 771 -120 l 1,4,-1
 54 -120 l 1,0,-1
EndSplineSet
Validated: 5
EndChar

StartChar: quotedblleft
Encoding: 8220 8220 209
Width: 417
GlyphClass: 1
Flags: W
LayerCount: 2
Fore
SplineSet
46 468 m 1,0,-1
 46 468 l 1,1,-1
 46 581 l 2,2,3
 46 613 46 613 61.5 641 c 128,-1,4
 77 669 77 669 104.5 688 c 128,-1,5
 132 707 132 707 166 714 c 1,6,-1
 166 468 l 1,7,-1
 46 468 l 1,0,-1
245 468 m 1,8,-1
 245 468 l 1,9,-1
 245 580 l 2,10,11
 245 613 245 613 260.5 640.5 c 128,-1,12
 276 668 276 668 303 687 c 128,-1,13
 330 706 330 706 364 713 c 1,14,-1
 364 468 l 1,15,-1
 245 468 l 1,8,-1
EndSplineSet
Validated: 5
EndChar

StartChar: quotedblright
Encoding: 8221 8221 210
Width: 417
GlyphClass: 1
Flags: W
LayerCount: 2
Fore
SplineSet
54 468 m 1,0,-1
 54 468 l 1,1,-1
 54 713 l 1,2,-1
 174 713 l 1,3,-1
 174 601 l 2,4,5
 174 569 174 569 158.5 541.5 c 128,-1,6
 143 514 143 514 115.5 494.5 c 128,-1,7
 88 475 88 475 54 468 c 1,0,-1
253 468 m 1,8,-1
 253 468 l 1,9,-1
 253 713 l 1,10,-1
 372 713 l 1,11,-1
 372 601 l 2,12,13
 372 569 372 569 356.5 541.5 c 128,-1,14
 341 514 341 514 314 494.5 c 128,-1,15
 287 475 287 475 253 468 c 1,8,-1
EndSplineSet
Validated: 5
EndChar

StartChar: quoteleft
Encoding: 8216 8216 211
Width: 206
GlyphClass: 1
Flags: W
LayerCount: 2
Fore
SplineSet
34 468 m 1,0,-1
 34 468 l 1,1,-1
 34 581 l 2,2,3
 34 613 34 613 49.5 640.5 c 128,-1,4
 65 668 65 668 92 687.5 c 128,-1,5
 119 707 119 707 153 714 c 1,6,-1
 153 468 l 1,7,-1
 34 468 l 1,0,-1
EndSplineSet
Validated: 5
EndChar

StartChar: quoteright
Encoding: 8217 8217 212
Width: 204
GlyphClass: 1
Flags: W
LayerCount: 2
Fore
SplineSet
54 468 m 1,0,-1
 54 468 l 1,1,-1
 54 713 l 1,2,-1
 173 713 l 1,3,-1
 173 601 l 2,4,5
 173 569 173 569 157.5 541.5 c 128,-1,6
 142 514 142 514 115 494.5 c 128,-1,7
 88 475 88 475 54 468 c 1,0,-1
EndSplineSet
Validated: 5
EndChar

StartChar: quotedbl
Encoding: 34 34 213
Width: 385
GlyphClass: 1
Flags: W
LayerCount: 2
Fore
SplineSet
216 540 m 1,0,-1
 216 540 l 1,1,-1
 216 713 l 1,2,-1
 334 713 l 1,3,-1
 334 540 l 1,4,-1
 216 540 l 1,0,-1
47 540 m 1,5,-1
 47 540 l 1,6,-1
 47 713 l 1,7,-1
 166 713 l 1,8,-1
 166 540 l 1,9,-1
 47 540 l 1,5,-1
EndSplineSet
Validated: 5
EndChar

StartChar: quotesingle
Encoding: 39 39 214
Width: 238
GlyphClass: 1
Flags: W
LayerCount: 2
Fore
SplineSet
59 540 m 1,0,-1
 59 540 l 1,1,-1
 59 713 l 1,2,-1
 178 713 l 1,3,-1
 178 540 l 1,4,-1
 59 540 l 1,0,-1
EndSplineSet
Validated: 5
EndChar

StartChar: Euro
Encoding: 8364 8364 217
Width: 799
GlyphClass: 1
Flags: W
LayerCount: 2
Fore
SplineSet
266 0 m 1,0,1
 229 0 229 0 198.5 18.5 c 128,-1,2
 168 37 168 37 150 67 c 128,-1,3
 132 97 132 97 132 134 c 2,4,-1
 132 207 l 1,5,-1
 35 207 l 1,6,-1
 35 327 l 1,7,-1
 132 327 l 1,8,-1
 132 394 l 1,9,-1
 35 394 l 1,10,-1
 35 514 l 1,11,-1
 132 514 l 1,12,-1
 132 586 l 2,13,14
 132 624 132 624 150 654 c 128,-1,15
 168 684 168 684 198.5 702 c 128,-1,16
 229 720 229 720 266 720 c 2,17,-1
 749 720 l 1,18,-1
 749 601 l 1,19,-1
 270 601 l 2,20,21
 263 601 263 601 257.5 595.5 c 128,-1,22
 252 590 252 590 252 582 c 2,23,-1
 252 514 l 1,24,-1
 644 514 l 1,25,-1
 644 394 l 1,26,-1
 252 394 l 1,27,-1
 252 327 l 1,28,-1
 644 327 l 1,29,-1
 644 207 l 1,30,-1
 252 207 l 1,31,-1
 252 138 l 2,32,33
 252 130 252 130 257.5 124.5 c 128,-1,34
 263 119 263 119 270 119 c 2,35,-1
 749 119 l 1,36,-1
 749 0 l 1,37,-1
 266 0 l 1,38,-1
 266 0 l 1,0,1
EndSplineSet
Validated: 5
EndChar

StartChar: cent
Encoding: 162 162 218
Width: 636
GlyphClass: 1
Flags: W
LayerCount: 2
Fore
SplineSet
289 -107 m 1,0,-1
 289 -107 l 1,1,-1
 289 0 l 1,2,-1
 167 0 l 2,3,4
 130 0 130 0 99.5 18.5 c 128,-1,5
 69 37 69 37 51 67 c 128,-1,6
 33 97 33 97 33 134 c 2,7,-1
 33 456 l 2,8,9
 33 493 33 493 51 523.5 c 128,-1,10
 69 554 69 554 99.5 572 c 128,-1,11
 130 590 130 590 167 590 c 2,12,-1
 289 590 l 1,13,-1
 289 715 l 1,14,-1
 409 715 l 1,15,-1
 409 590 l 1,16,-1
 621 590 l 1,17,-1
 621 470 l 1,18,-1
 409 470 l 1,19,-1
 409 119 l 1,20,-1
 621 119 l 1,21,-1
 621 0 l 1,22,-1
 409 0 l 1,23,-1
 409 -107 l 1,24,-1
 289 -107 l 1,0,-1
171 119 m 2,25,-1
 289 119 l 1,26,-1
 289 470 l 1,27,-1
 171 470 l 2,28,29
 163 470 163 470 157.5 464.5 c 128,-1,30
 152 459 152 459 152 451 c 2,31,-1
 152 138 l 2,32,33
 152 130 152 130 157.5 124.5 c 128,-1,34
 163 119 163 119 171 119 c 2,25,-1
EndSplineSet
Validated: 5
EndChar

StartChar: dollar
Encoding: 36 36 219
Width: 788
GlyphClass: 1
Flags: W
LayerCount: 2
Fore
SplineSet
333 -106 m 1,0,-1
 333 -106 l 1,1,-1
 333 0 l 1,2,-1
 169 0 l 2,3,4
 130 0 130 0 99.5 18 c 128,-1,5
 69 36 69 36 51.5 67 c 128,-1,6
 34 98 34 98 34 135 c 2,7,-1
 34 181 l 1,8,-1
 153 181 l 1,9,-1
 153 137 l 2,10,11
 153 130 153 130 158.5 124.5 c 128,-1,12
 164 119 164 119 171 119 c 2,13,-1
 332 119 l 1,14,-1
 332 298 l 1,15,-1
 169 298 l 2,16,17
 131 298 131 298 100.5 316.5 c 128,-1,18
 70 335 70 335 52 365.5 c 128,-1,19
 34 396 34 396 34 434 c 2,20,-1
 34 585 l 2,21,22
 34 623 34 623 51.5 653.5 c 128,-1,23
 69 684 69 684 99.5 702 c 128,-1,24
 130 720 130 720 169 720 c 2,25,-1
 333 720 l 1,26,-1
 333 826 l 1,27,-1
 452 826 l 1,28,-1
 452 720 l 1,29,-1
 615 720 l 2,30,31
 653 720 653 720 684 702 c 128,-1,32
 715 684 715 684 732.5 653.5 c 128,-1,33
 750 623 750 623 750 585 c 2,34,-1
 749 538 l 1,35,-1
 631 538 l 1,36,-1
 631 582 l 2,37,38
 631 590 631 590 625.5 595.5 c 128,-1,39
 620 601 620 601 612 601 c 2,40,-1
 452 601 l 1,41,-1
 452 418 l 1,42,-1
 615 418 l 2,43,44
 653 418 653 418 684 400 c 128,-1,45
 715 382 715 382 732.5 351.5 c 128,-1,46
 750 321 750 321 750 286 c 2,47,-1
 750 135 l 2,48,49
 750 98 750 98 732.5 67 c 128,-1,50
 715 36 715 36 684 18 c 128,-1,51
 653 0 653 0 616 0 c 2,52,-1
 452 0 l 1,53,-1
 452 -106 l 1,54,-1
 333 -106 l 1,0,-1
171 418 m 2,55,-1
 332 418 l 1,56,-1
 332 601 l 1,57,-1
 171 601 l 2,58,59
 164 601 164 601 158.5 595.5 c 128,-1,60
 153 590 153 590 153 583 c 2,61,-1
 153 436 l 2,62,63
 153 428 153 428 158.5 423 c 128,-1,64
 164 418 164 418 171 418 c 2,55,-1
452 119 m 1,65,-1
 452 119 l 1,66,-1
 613 119 l 2,67,68
 620 119 620 119 625.5 124.5 c 128,-1,69
 631 130 631 130 631 138 c 2,70,-1
 631 280 l 2,71,72
 631 288 631 288 625 293.5 c 128,-1,73
 619 299 619 299 612 299 c 2,74,-1
 452 299 l 1,75,-1
 452 119 l 1,65,-1
EndSplineSet
Validated: 5
EndChar

StartChar: sterling
Encoding: 163 163 220
Width: 734
GlyphClass: 1
Flags: W
LayerCount: 2
Fore
SplineSet
39 0 m 1,0,-1
 39 0 l 1,1,-1
 39 119 l 1,2,-1
 136 119 l 1,3,-1
 136 299 l 1,4,-1
 39 299 l 1,5,-1
 39 418 l 1,6,-1
 136 418 l 1,7,-1
 136 586 l 2,8,9
 136 623 136 623 154.5 653.5 c 128,-1,10
 173 684 173 684 203.5 702 c 128,-1,11
 234 720 234 720 270 720 c 2,12,-1
 551 720 l 2,13,14
 588 720 588 720 618.5 702 c 128,-1,15
 649 684 649 684 667 653.5 c 128,-1,16
 685 623 685 623 685 586 c 2,17,-1
 685 549 l 1,18,-1
 565 549 l 1,19,-1
 565 587 l 2,20,21
 565 594 565 594 559.5 599.5 c 128,-1,22
 554 605 554 605 546 605 c 2,23,-1
 274 605 l 2,24,25
 267 605 267 605 261.5 599.5 c 128,-1,26
 256 594 256 594 256 587 c 2,27,-1
 256 418 l 1,28,-1
 582 418 l 1,29,-1
 582 299 l 1,30,-1
 256 299 l 1,31,-1
 256 119 l 1,32,-1
 685 119 l 1,33,-1
 685 0 l 1,34,-1
 39 0 l 1,0,-1
EndSplineSet
Validated: 5
EndChar

StartChar: plus
Encoding: 43 43 221
Width: 445
GlyphClass: 1
Flags: W
LayerCount: 2
Fore
SplineSet
157 93 m 1,0,-1
 157 93 l 1,1,-1
 157 236 l 1,2,-1
 17 236 l 1,3,-1
 17 355 l 1,4,-1
 157 355 l 1,5,-1
 157 497 l 1,6,-1
 277 497 l 1,7,-1
 277 355 l 1,8,-1
 421 355 l 1,9,-1
 421 236 l 1,10,-1
 277 236 l 1,11,-1
 277 93 l 1,12,-1
 157 93 l 1,0,-1
EndSplineSet
Validated: 5
EndChar

StartChar: minus
Encoding: 8722 8722 222
Width: 517
GlyphClass: 1
Flags: W
LayerCount: 2
Fore
SplineSet
59 236 m 1,0,-1
 59 236 l 1,1,-1
 59 355 l 1,2,-1
 463 355 l 1,3,-1
 463 236 l 1,4,-1
 59 236 l 1,0,-1
EndSplineSet
Validated: 5
EndChar

StartChar: multiply
Encoding: 215 215 223
Width: 546
GlyphClass: 1
Flags: W
LayerCount: 2
Fore
SplineSet
53 88 m 1,0,-1
 53 88 l 1,1,-1
 56 118 l 1,2,-1
 196 300 l 1,3,-1
 54 483 l 1,4,-1
 53 511 l 1,5,-1
 187 511 l 1,6,-1
 273 394 l 1,7,-1
 359 511 l 1,8,-1
 493 511 l 1,9,-1
 491 483 l 1,10,-1
 350 300 l 1,11,-1
 490 118 l 1,12,-1
 493 88 l 1,13,-1
 359 88 l 1,14,-1
 273 205 l 1,15,-1
 187 88 l 1,16,-1
 53 88 l 1,0,-1
EndSplineSet
Validated: 5
EndChar

StartChar: divide
Encoding: 247 247 224
Width: 514
GlyphClass: 1
Flags: W
LayerCount: 2
Fore
SplineSet
12 247 m 1,0,-1
 12 247 l 1,1,-1
 12 367 l 1,2,-1
 495 367 l 1,3,-1
 495 247 l 1,4,-1
 12 247 l 1,0,-1
198 0 m 1,5,-1
 198 0 l 1,6,-1
 198 120 l 1,7,-1
 318 120 l 1,8,-1
 318 0 l 1,9,-1
 198 0 l 1,5,-1
198 479 m 1,10,-1
 198 479 l 1,11,-1
 198 599 l 1,12,-1
 318 599 l 1,13,-1
 318 479 l 1,14,-1
 198 479 l 1,10,-1
EndSplineSet
Validated: 5
EndChar

StartChar: equal
Encoding: 61 61 225
Width: 638
GlyphClass: 1
Flags: W
LayerCount: 2
Fore
SplineSet
59 340 m 1,0,-1
 59 340 l 1,1,-1
 59 460 l 1,2,-1
 581 460 l 1,3,-1
 581 340 l 1,4,-1
 59 340 l 1,0,-1
59 139 m 1,5,-1
 59 139 l 1,6,-1
 59 259 l 1,7,-1
 581 259 l 1,8,-1
 581 139 l 1,9,-1
 59 139 l 1,5,-1
EndSplineSet
Validated: 5
EndChar

StartChar: greater
Encoding: 62 62 226
Width: 475
GlyphClass: 1
Flags: W
LayerCount: 2
Fore
SplineSet
59 -3 m 1,0,-1
 59 -3 l 1,1,-1
 59 135 l 1,2,-1
 333 294 l 1,3,-1
 59 452 l 1,4,-1
 59 590 l 1,5,-1
 475 351 l 1,6,-1
 475 237 l 1,7,-1
 59 -3 l 1,0,-1
EndSplineSet
Validated: 5
EndChar

StartChar: less
Encoding: 60 60 227
Width: 473
GlyphClass: 1
Flags: W
LayerCount: 2
Fore
SplineSet
420 -1 m 1,0,-1
 420 -1 l 1,1,-1
 5 239 l 1,2,-1
 5 352 l 1,3,-1
 420 592 l 1,4,-1
 420 455 l 1,5,-1
 146 296 l 1,6,-1
 420 137 l 1,7,-1
 420 -1 l 1,0,-1
EndSplineSet
Validated: 5
EndChar

StartChar: asciitilde
Encoding: 126 126 228
Width: 404
GlyphClass: 1
Flags: W
LayerCount: 2
Fore
SplineSet
299 227 m 1,0,1
 263 227 263 227 201 260 c 0,2,3
 138 292 138 292 100 292 c 256,4,5
 62 292 62 292 24 268 c 1,6,-1
 24 355 l 1,7,8
 65 371 65 371 103 371 c 0,9,10
 142 371 142 371 211 339 c 0,11,12
 279 305 279 305 304 305 c 0,13,14
 336 305 336 305 382 332 c 1,15,-1
 382 246 l 1,16,17
 334 227 334 227 299 227 c 1,18,-1
 299 227 l 1,0,1
EndSplineSet
Validated: 5
EndChar

StartChar: percent
Encoding: 37 37 229
Width: 966
GlyphClass: 1
Flags: W
LayerCount: 2
Fore
SplineSet
135 0 m 1,0,-1
 135 0 l 1,1,-1
 135 134 l 1,2,-1
 820 715 l 1,3,-1
 852 720 l 1,4,-1
 852 587 l 1,5,-1
 170 7 l 1,6,-1
 135 0 l 1,0,-1
177 380 m 1,7,8
 140 380 140 380 111 397 c 128,-1,9
 82 414 82 414 65 443.5 c 128,-1,10
 48 473 48 473 48 509 c 2,11,-1
 48 587 l 2,12,13
 48 624 48 624 65 653 c 128,-1,14
 82 682 82 682 111 699 c 128,-1,15
 140 716 140 716 177 716 c 2,16,-1
 265 716 l 2,17,18
 302 716 302 716 331 699 c 128,-1,19
 360 682 360 682 377 653 c 128,-1,20
 394 624 394 624 394 587 c 2,21,-1
 394 509 l 2,22,23
 394 473 394 473 377 443.5 c 128,-1,24
 360 414 360 414 331 397 c 128,-1,25
 302 380 302 380 265 380 c 2,26,-1
 177 380 l 1,27,-1
 177 380 l 1,7,8
160 476 m 1,28,-1
 160 476 l 1,29,-1
 281 476 l 2,30,31
 289 476 289 476 294 481 c 128,-1,32
 299 486 299 486 299 493 c 2,33,-1
 299 603 l 2,34,35
 299 611 299 611 294 616 c 128,-1,36
 289 621 289 621 281 621 c 2,37,-1
 160 621 l 2,38,39
 153 621 153 621 148 616 c 128,-1,40
 143 611 143 611 143 603 c 2,41,-1
 143 493 l 2,42,43
 143 486 143 486 148 481 c 128,-1,44
 153 476 153 476 160 476 c 1,28,-1
703 4 m 1,45,46
 667 4 667 4 638 21 c 128,-1,47
 609 38 609 38 592 67 c 128,-1,48
 575 96 575 96 575 133 c 2,49,-1
 575 211 l 2,50,51
 575 248 575 248 592 277 c 128,-1,52
 609 306 609 306 638 323 c 128,-1,53
 667 340 667 340 703 340 c 2,54,-1
 791 340 l 2,55,56
 828 340 828 340 857 323 c 128,-1,57
 886 306 886 306 903 277 c 128,-1,58
 920 248 920 248 920 211 c 2,59,-1
 920 133 l 2,60,61
 920 96 920 96 903 67 c 128,-1,62
 886 38 886 38 857 21 c 128,-1,63
 828 4 828 4 791 4 c 2,64,-1
 703 4 l 1,65,-1
 703 4 l 1,45,46
687 99 m 1,66,-1
 687 99 l 1,67,-1
 808 99 l 2,68,69
 815 99 815 99 820 104 c 128,-1,70
 825 109 825 109 825 116 c 2,71,-1
 825 228 l 2,72,73
 825 235 825 235 820 240 c 128,-1,74
 815 245 815 245 808 245 c 2,75,-1
 687 245 l 2,76,77
 680 245 680 245 675 240 c 128,-1,78
 670 235 670 235 670 228 c 2,79,-1
 670 116 l 2,80,81
 670 109 670 109 675 104 c 128,-1,82
 680 99 680 99 687 99 c 1,66,-1
EndSplineSet
Validated: 5
EndChar

StartChar: at
Encoding: 64 64 230
Width: 823
GlyphClass: 1
Flags: W
LayerCount: 2
Fore
SplineSet
188 0 m 1,0,1
 151 0 151 0 120.5 18.5 c 128,-1,2
 90 37 90 37 72 67 c 128,-1,3
 54 97 54 97 54 134 c 2,4,-1
 54 586 l 2,5,6
 54 623 54 623 72 653.5 c 128,-1,7
 90 684 90 684 120.5 702 c 128,-1,8
 151 720 151 720 188 720 c 2,9,-1
 636 720 l 2,10,11
 673 720 673 720 703.5 702 c 128,-1,12
 734 684 734 684 752 653.5 c 128,-1,13
 770 623 770 623 770 586 c 2,14,-1
 770 205 l 1,15,-1
 374 205 l 2,16,17
 337 205 337 205 309 220.5 c 128,-1,18
 281 236 281 236 265.5 263.5 c 128,-1,19
 250 291 250 291 250 328 c 2,20,-1
 250 396 l 2,21,22
 250 433 250 433 265.5 460.5 c 128,-1,23
 281 488 281 488 309 503.5 c 128,-1,24
 337 519 337 519 374 519 c 2,25,-1
 451 519 l 2,26,27
 488 519 488 519 516 503.5 c 128,-1,28
 544 488 544 488 559 460.5 c 128,-1,29
 574 433 574 433 574 396 c 2,30,-1
 574 295 l 1,31,-1
 651 295 l 1,32,-1
 651 582 l 2,33,34
 651 589 651 589 645.5 594.5 c 128,-1,35
 640 600 640 600 633 600 c 2,36,-1
 192 600 l 2,37,38
 184 600 184 600 178.5 594.5 c 128,-1,39
 173 589 173 589 173 582 c 2,40,-1
 173 138 l 2,41,42
 173 130 173 130 178.5 124.5 c 128,-1,43
 184 119 184 119 192 119 c 2,44,-1
 770 119 l 1,45,-1
 770 0 l 1,46,-1
 188 0 l 1,47,-1
 188 0 l 1,0,1
353 295 m 2,48,-1
 490 295 l 1,49,-1
 490 416 l 2,50,51
 490 423 490 423 484.5 428.5 c 128,-1,52
 479 434 479 434 471 434 c 2,53,-1
 353 434 l 2,54,55
 346 434 346 434 340.5 428.5 c 128,-1,56
 335 423 335 423 335 416 c 2,57,-1
 335 313 l 2,58,59
 335 305 335 305 340.5 300 c 128,-1,60
 346 295 346 295 353 295 c 2,48,-1
EndSplineSet
Validated: 5
EndChar

StartChar: ampersand
Encoding: 38 38 231
Width: 938
GlyphClass: 1
Flags: W
LayerCount: 2
Fore
SplineSet
187 0 m 2,0,1
 150 0 150 0 120 18 c 128,-1,2
 90 36 90 36 71.5 66 c 128,-1,3
 53 96 53 96 53 134 c 2,4,-1
 53 333 l 2,5,6
 53 355 53 355 71.5 377.5 c 128,-1,7
 90 400 90 400 122 408 c 1,8,9
 92 437 92 437 92 481 c 2,10,-1
 92 585 l 2,11,12
 92 623 92 623 110.5 653 c 128,-1,13
 129 683 129 683 159 701 c 128,-1,14
 189 719 189 719 225 719 c 2,15,-1
 606 719 l 2,16,17
 638 719 638 719 666 704 c 128,-1,18
 694 689 694 689 714 663.5 c 128,-1,19
 734 638 734 638 740 608 c 1,20,-1
 740 536 l 1,21,-1
 620 536 l 1,22,-1
 620 580 l 2,23,24
 620 587 620 587 614.5 592.5 c 128,-1,25
 609 598 609 598 602 598 c 2,26,-1
 230 598 l 2,27,28
 222 598 222 598 216.5 592.5 c 128,-1,29
 211 587 211 587 211 580 c 2,30,-1
 211 457 l 1,31,-1
 650 236 l 1,32,-1
 650 352 l 1,33,-1
 769 352 l 1,34,-1
 769 189 l 1,35,-1
 893 115 l 1,36,-1
 893 -2 l 1,37,-1
 754 77 l 1,38,39
 736 43 736 43 704 21.5 c 128,-1,40
 672 0 672 0 635 0 c 2,41,-1
 187 0 l 2,0,1
191 119 m 2,42,-1
 572 119 l 2,43,44
 583 119 583 119 593 124 c 128,-1,45
 603 129 603 129 612 136 c 1,46,-1
 207 341 l 1,47,-1
 192 345 l 2,48,49
 183 345 183 345 177.5 335.5 c 128,-1,50
 172 326 172 326 172 302 c 2,51,-1
 172 138 l 2,52,53
 172 130 172 130 177.5 124.5 c 128,-1,54
 183 119 183 119 191 119 c 2,42,-1
EndSplineSet
Validated: 1
EndChar

StartChar: paragraph
Encoding: 182 182 232
Width: 833
GlyphClass: 1
Flags: W
LayerCount: 2
Fore
SplineSet
444 0 m 1,0,-1
 444 0 l 1,1,-1
 444 250 l 1,2,-1
 190 250 l 2,3,4
 153 250 153 250 122.5 268.5 c 128,-1,5
 92 287 92 287 74 317.5 c 128,-1,6
 56 348 56 348 56 384 c 2,7,-1
 56 578 l 2,8,9
 56 614 56 614 74 645 c 128,-1,10
 92 676 92 676 122.5 694.5 c 128,-1,11
 153 713 153 713 190 713 c 2,12,-1
 783 713 l 1,13,-1
 783 0 l 1,14,-1
 664 0 l 1,15,-1
 664 250 l 1,16,-1
 564 250 l 1,17,-1
 564 0 l 1,18,-1
 444 0 l 1,0,-1
194 370 m 2,19,-1
 444 370 l 1,20,-1
 444 592 l 1,21,-1
 194 592 l 2,22,23
 186 592 186 592 180.5 586.5 c 128,-1,24
 175 581 175 581 175 574 c 2,25,-1
 175 389 l 2,26,27
 175 381 175 381 180.5 375.5 c 128,-1,28
 186 370 186 370 194 370 c 2,19,-1
564 370 m 1,29,-1
 564 370 l 1,30,-1
 664 370 l 1,31,-1
 664 592 l 1,32,-1
 564 592 l 1,33,-1
 564 370 l 1,29,-1
EndSplineSet
Validated: 5
EndChar

StartChar: degree
Encoding: 176 176 233
Width: 439
GlyphClass: 1
Flags: W
LayerCount: 2
Fore
SplineSet
180 370 m 5,0,1
 142 370 142 370 112 388.5 c 132,-1,2
 82 407 82 407 63.5 437.5 c 132,-1,3
 45 468 45 468 45 505 c 6,4,-1
 45 582 l 6,5,6
 45 620 45 620 63.5 650 c 132,-1,7
 82 680 82 680 112 698 c 132,-1,8
 142 716 142 716 180 716 c 6,9,-1
 267 716 l 6,10,11
 303 716 303 716 333.5 698 c 132,-1,12
 364 680 364 680 382.5 650 c 132,-1,13
 401 620 401 620 401 582 c 6,14,-1
 401 505 l 6,15,16
 401 468 401 468 382.5 437.5 c 132,-1,17
 364 407 364 407 333.5 388.5 c 132,-1,18
 303 370 303 370 267 370 c 6,19,-1
 180 370 l 5,20,-1
 180 370 l 5,0,1
163 471 m 6,21,-1
 282 471 l 6,22,23
 290 471 290 471 295.5 476.5 c 132,-1,24
 301 482 301 482 301 489 c 6,25,-1
 301 597 l 6,26,27
 301 605 301 605 295.5 610.5 c 132,-1,28
 290 616 290 616 282 616 c 6,29,-1
 163 616 l 6,30,31
 156 616 156 616 150.5 610.5 c 132,-1,32
 145 605 145 605 145 597 c 6,33,-1
 145 489 l 6,34,35
 145 482 145 482 150.5 476.5 c 132,-1,36
 156 471 156 471 163 471 c 6,21,-1
EndSplineSet
Validated: 5
EndChar

StartChar: bar
Encoding: 124 124 234
Width: 214
GlyphClass: 1
Flags: W
LayerCount: 2
Fore
SplineSet
54 -107 m 1,0,-1
 54 -107 l 1,1,-1
 54 822 l 1,2,-1
 173 822 l 1,3,-1
 173 -107 l 1,4,-1
 54 -107 l 1,0,-1
EndSplineSet
Validated: 5
EndChar

StartChar: uni0308
Encoding: 776 776 235
Width: 0
GlyphClass: 4
Flags: W
AnchorPoint: "Anchor-0" 0 580 mark 0
LayerCount: 2
Fore
SplineSet
39 640 m 1,0,-1
 39 640 l 1,1,-1
 39 760 l 1,2,-1
 160 760 l 1,3,-1
 160 640 l 1,4,-1
 39 640 l 1,0,-1
-159 640 m 1,5,-1
 -159 640 l 1,6,-1
 -159 760 l 1,7,-1
 -39 760 l 1,8,-1
 -39 640 l 1,9,-1
 -159 640 l 1,5,-1
EndSplineSet
Validated: 5
EndChar

StartChar: uni0307
Encoding: 775 775 236
Width: 0
GlyphClass: 4
Flags: W
AnchorPoint: "Anchor-0" 0 580 mark 0
LayerCount: 2
Fore
SplineSet
-60 640 m 1,0,-1
 -60 760 l 1,1,-1
 60 760 l 1,2,-1
 60 640 l 1,3,-1
 -60 640 l 1,0,-1
EndSplineSet
Validated: 1
EndChar

StartChar: gravecomb
Encoding: 768 768 237
Width: 0
GlyphClass: 4
Flags: W
AnchorPoint: "Anchor-0" 0 580 mark 0
LayerCount: 2
Fore
SplineSet
-53 640 m 1,0,-1
 -53 640 l 1,1,-1
 -96 813 l 1,2,-1
 25 813 l 1,3,-1
 68 640 l 1,4,-1
 -53 640 l 1,0,-1
EndSplineSet
Validated: 5
EndChar

StartChar: acutecomb
Encoding: 769 769 238
Width: 0
GlyphClass: 4
Flags: W
AnchorPoint: "Anchor-0" 0 580 mark 0
LayerCount: 2
Fore
SplineSet
-67 640 m 1,0,-1
 -67 640 l 1,1,-1
 -23 813 l 1,2,-1
 97 813 l 1,3,-1
 54 640 l 1,4,-1
 -67 640 l 1,0,-1
EndSplineSet
Validated: 5
EndChar

StartChar: uni0302
Encoding: 770 770 239
Width: 0
GlyphClass: 4
Flags: W
AnchorPoint: "Anchor-0" 0 580 mark 0
LayerCount: 2
Fore
SplineSet
-140 654 m 1,0,-1
 -140 654 l 1,1,-1
 -44 816 l 1,2,-1
 46 816 l 1,3,-1
 143 654 l 1,4,-1
 43 654 l 1,5,-1
 0 727 l 1,6,-1
 -41 654 l 1,7,-1
 -140 654 l 1,0,-1
EndSplineSet
Validated: 5
EndChar

StartChar: uni030C
Encoding: 780 780 240
Width: 0
GlyphClass: 4
Flags: W
AnchorPoint: "Anchor-0" 0 580 mark 0
LayerCount: 2
Fore
SplineSet
-40 640 m 1,0,-1
 -40 640 l 1,1,-1
 -132 792 l 1,2,-1
 -43 792 l 1,3,-1
 -1 729 l 1,4,-1
 41 792 l 1,5,-1
 132 792 l 1,6,-1
 41 640 l 1,7,-1
 -40 640 l 1,0,-1
EndSplineSet
Validated: 5
EndChar

StartChar: uni030A
Encoding: 778 778 241
Width: 0
GlyphClass: 4
Flags: W
AnchorPoint: "Anchor-0" 0 580 mark 0
LayerCount: 2
Fore
SplineSet
-26 650 m 2,0,1
 -53 650 -53 650 -73 669 c 128,-1,2
 -93 688 -93 688 -93 715 c 2,3,-1
 -93 766 l 2,4,5
 -93 793 -93 793 -73 812.5 c 128,-1,6
 -53 832 -53 832 -26 832 c 2,7,-1
 27 832 l 2,8,9
 54 832 54 832 73.5 812.5 c 128,-1,10
 93 793 93 793 93 766 c 2,11,-1
 93 715 l 2,12,13
 93 688 93 688 73.5 669 c 128,-1,14
 54 650 54 650 27 650 c 2,15,-1
 -26 650 l 2,0,1
-29 705 m 2,16,-1
 29 705 l 2,17,18
 31 705 31 705 32 706.5 c 128,-1,19
 33 708 33 708 33 710 c 2,20,-1
 33 767 l 2,21,22
 33 769 33 769 32 770.5 c 128,-1,23
 31 772 31 772 29 772 c 2,24,-1
 -29 772 l 2,25,26
 -31 772 -31 772 -32 770.5 c 128,-1,27
 -33 769 -33 769 -33 767 c 2,28,-1
 -33 710 l 2,29,30
 -33 708 -33 708 -32 706.5 c 128,-1,31
 -31 705 -31 705 -29 705 c 2,16,-1
EndSplineSet
Validated: 1
EndChar

StartChar: tildecomb
Encoding: 771 771 242
Width: 0
GlyphClass: 4
Flags: W
AnchorPoint: "Anchor-0" 0 580 mark 0
LayerCount: 2
Fore
SplineSet
97 663 m 1,0,1
 42 663 42 663 -19 706 c 0,2,3
 -78 749 -78 749 -121 749 c 2,4,-1
 -179 749 l 1,5,-1
 -179 841 l 1,6,-1
 -105 841 l 2,7,8
 -56 841 -56 841 1 797 c 0,9,10
 59 753 59 753 105 753 c 2,11,-1
 179 753 l 1,12,-1
 179 663 l 1,13,-1
 97 663 l 1,14,-1
 97 663 l 1,0,1
EndSplineSet
Validated: 5
EndChar

StartChar: uni0327
Encoding: 807 807 243
Width: 0
GlyphClass: 4
Flags: W
AnchorPoint: "Anchor-1" 441 0 mark 0
LayerCount: 2
Fore
SplineSet
346 -148 m 1,0,-1
 392 15 l 1,1,-1
 512 15 l 1,2,-1
 467 -148 l 1,3,-1
 346 -148 l 1,0,-1
EndSplineSet
Validated: 1
EndChar

StartChar: breve
Encoding: 728 728 250
Width: 287
GlyphClass: 1
Flags: W
LayerCount: 2
Fore
SplineSet
125 806 m 1,0,1
 86 806 86 806 63 831 c 128,-1,2
 40 856 40 856 40 907 c 1,3,-1
 109 908 l 1,4,5
 109 892 109 892 111.5 884.5 c 128,-1,6
 114 877 114 877 119 876 c 2,7,-1
 181 876 l 2,8,9
 184 877 184 877 185.5 884.5 c 128,-1,10
 187 892 187 892 187 908 c 1,11,-1
 255 908 l 1,12,13
 255 856 255 856 232 831 c 128,-1,14
 209 806 209 806 175 806 c 2,15,-1
 125 806 l 1,16,-1
 125 806 l 1,0,1
EndSplineSet
Validated: 5
EndChar

StartChar: macron
Encoding: 175 175 253
Width: 500
GlyphClass: 1
Flags: W
LayerCount: 2
Fore
SplineSet
87 638 m 1,0,-1
 87 638 l 1,1,-1
 87 720 l 1,2,-1
 411 720 l 1,3,-1
 411 638 l 1,4,-1
 87 638 l 1,0,-1
EndSplineSet
Validated: 5
EndChar

StartChar: ogonek
Encoding: 731 731 255
Width: 500
GlyphClass: 1
Flags: W
LayerCount: 2
Fore
SplineSet
189 -250 m 1,0,-1
 189 -250 l 1,1,-1
 189 -17 l 1,2,-1
 311 -17 l 1,3,-1
 311 -250 l 1,4,-1
 189 -250 l 1,0,-1
EndSplineSet
Validated: 5
EndChar

StartChar: uniE002
Encoding: 57346 57346 256
Width: 771
GlyphClass: 1
Flags: W
LayerCount: 2
Fore
SplineSet
48 0 m 1,0,-1
 48 0 l 1,1,-1
 48 27 l 1,2,-1
 527 601 l 1,3,-1
 46 601 l 1,4,-1
 46 720 l 1,5,-1
 761 720 l 1,6,-1
 761 693 l 1,7,-1
 181 0 l 1,8,-1
 48 0 l 1,0,-1
EndSplineSet
Validated: 5
EndChar

StartChar: uniE003
Encoding: 57347 57347 257
Width: 784
GlyphClass: 1
Flags: W
LayerCount: 2
Fore
SplineSet
610 0 m 1,0,-1
 610 255 l 2,1,2
 610 271 610 271 607.5 278.5 c 128,-1,3
 605 286 605 286 597 288.5 c 128,-1,4
 589 291 589 291 574 291 c 2,5,-1
 147 291 l 2,6,7
 109 291 109 291 79 309 c 128,-1,8
 49 327 49 327 30.5 357.5 c 128,-1,9
 12 388 12 388 12 425 c 2,10,-1
 12 584 l 2,11,12
 12 622 12 622 30.5 652 c 128,-1,13
 49 682 49 682 79 700.5 c 128,-1,14
 109 719 109 719 147 719 c 2,15,-1
 595 719 l 2,16,17
 632 719 632 719 662.5 700.5 c 128,-1,18
 693 682 693 682 711 652 c 128,-1,19
 729 622 729 622 729 584 c 2,20,-1
 729 0 l 1,21,-1
 610 0 l 1,0,-1
151 410 m 2,22,-1
 610 410 l 1,23,-1
 610 580 l 2,24,25
 610 588 610 588 604.5 593.5 c 128,-1,26
 599 599 599 599 591 599 c 2,27,-1
 151 599 l 2,28,29
 143 599 143 599 137.5 593.5 c 128,-1,30
 132 588 132 588 132 580 c 2,31,-1
 132 429 l 2,32,33
 132 421 132 421 137.5 415.5 c 128,-1,34
 143 410 143 410 151 410 c 2,22,-1
EndSplineSet
Validated: 1
EndChar

StartChar: uniE005
Encoding: 57349 57349 258
Width: 815
GlyphClass: 1
Flags: W
LayerCount: 2
Fore
SplineSet
182 0 m 1,0,1
 134 0 134 0 97.5 30.5 c 128,-1,2
 61 61 61 61 50 104 c 1,3,-1
 49 230 l 1,4,-1
 645 542 l 1,5,-1
 645 600 l 1,6,-1
 188 600 l 2,7,8
 180 600 180 600 174.5 594.5 c 128,-1,9
 169 589 169 589 169 582 c 2,10,-1
 169 525 l 1,11,-1
 49 525 l 1,12,-1
 49 586 l 2,13,14
 49 623 49 623 67.5 653.5 c 128,-1,15
 86 684 86 684 116 702 c 128,-1,16
 146 720 146 720 184 720 c 2,17,-1
 632 720 l 2,18,19
 664 720 664 720 691.5 705 c 128,-1,20
 719 690 719 690 738.5 664.5 c 128,-1,21
 758 639 758 639 764 609 c 1,22,-1
 764 470 l 1,23,-1
 169 157 l 1,24,-1
 169 119 l 1,25,-1
 764 119 l 1,26,-1
 764 0 l 1,27,-1
 182 0 l 1,28,-1
 182 0 l 1,0,1
EndSplineSet
Validated: 5
EndChar

StartChar: uniE006
Encoding: 57350 57350 259
Width: 667
GlyphClass: 1
Flags: W
LayerCount: 2
Fore
SplineSet
190 172 m 1,0,-1
 190 259 l 2,1,2
 190 296 190 296 208.5 326.5 c 128,-1,3
 227 357 227 357 257.5 374.5 c 128,-1,4
 288 392 288 392 324 392 c 2,5,-1
 506 392 l 2,6,7
 514 392 514 392 519 397.5 c 128,-1,8
 524 403 524 403 524 411 c 2,9,-1
 524 582 l 2,10,11
 524 589 524 589 519 594.5 c 128,-1,12
 514 600 514 600 506 600 c 2,13,-1
 146 600 l 1,14,-1
 146 495 l 1,15,-1
 27 495 l 1,16,-1
 27 608 l 1,17,18
 33 639 33 639 52 664 c 128,-1,19
 71 689 71 689 99 704.5 c 128,-1,20
 127 720 127 720 159 720 c 2,21,-1
 510 720 l 2,22,23
 547 720 547 720 577 702 c 128,-1,24
 607 684 607 684 625.5 653.5 c 128,-1,25
 644 623 644 623 644 586 c 2,26,-1
 644 407 l 2,27,28
 644 370 644 370 625.5 339.5 c 128,-1,29
 607 309 607 309 576.5 290.5 c 128,-1,30
 546 272 546 272 510 272 c 2,31,-1
 329 272 l 2,32,33
 322 272 322 272 316.5 267 c 128,-1,34
 311 262 311 262 311 254 c 2,35,-1
 311 172 l 1,36,-1
 190 172 l 1,0,-1
190 0 m 1,37,-1
 190 119 l 1,38,-1
 311 119 l 1,39,-1
 311 0 l 1,40,-1
 190 0 l 1,37,-1
EndSplineSet
Validated: 1
EndChar

StartChar: uniE007
Encoding: 57351 57351 260
Width: 723
GlyphClass: 1
Flags: W
LayerCount: 2
Fore
SplineSet
474 0 m 1,0,-1
 474 0 l 1,1,-1
 474 181 l 1,2,-1
 9 181 l 1,3,-1
 9 296 l 1,4,-1
 370 719 l 1,5,-1
 485 719 l 1,6,-1
 485 661 l 1,7,-1
 159 301 l 1,8,-1
 474 301 l 1,9,-1
 474 447 l 1,10,-1
 593 447 l 1,11,-1
 593 301 l 1,12,-1
 697 301 l 1,13,-1
 697 181 l 1,14,-1
 593 181 l 1,15,-1
 593 0 l 1,16,-1
 474 0 l 1,0,-1
EndSplineSet
Validated: 5
EndChar

StartChar: uniE008
Encoding: 57352 57352 261
Width: 1148
GlyphClass: 1
Flags: W
LayerCount: 2
Fore
SplineSet
585 0 m 1,0,-1
 585 0 l 1,1,-1
 -1 692 l 1,2,-1
 -1 720 l 1,3,-1
 135 720 l 1,4,-1
 600 170 l 1,5,-1
 600 427 l 1,6,-1
 373 692 l 1,7,-1
 373 720 l 1,8,-1
 507 720 l 1,9,-1
 973 169 l 1,10,-1
 973 720 l 1,11,-1
 1094 720 l 1,12,-1
 1094 0 l 1,13,-1
 958 0 l 1,14,-1
 721 281 l 1,15,-1
 721 0 l 1,16,-1
 585 0 l 1,0,-1
EndSplineSet
Validated: 5
EndChar

StartChar: uniE009
Encoding: 57353 57353 262
Width: 1159
GlyphClass: 1
Flags: W
LayerCount: 2
Fore
SplineSet
65 0 m 1,0,-1
 65 0 l 1,1,-1
 65 720 l 1,2,-1
 186 720 l 1,3,-1
 186 169 l 1,4,-1
 652 720 l 1,5,-1
 786 720 l 1,6,-1
 786 692 l 1,7,-1
 559 427 l 1,8,-1
 559 169 l 1,9,-1
 1024 720 l 1,10,-1
 1159 720 l 1,11,-1
 1159 692 l 1,12,-1
 575 0 l 1,13,-1
 438 0 l 1,14,-1
 438 281 l 1,15,-1
 203 0 l 1,16,-1
 65 0 l 1,0,-1
EndSplineSet
Validated: 5
EndChar

StartChar: uniE00A
Encoding: 57354 57354 263
Width: 774
GlyphClass: 1
Flags: W
LayerCount: 2
Fore
SplineSet
54 0 m 1,0,-1
 54 0 l 1,1,-1
 54 720 l 1,2,-1
 174 720 l 1,3,-1
 174 167 l 1,4,-1
 636 720 l 1,5,-1
 769 720 l 1,6,-1
 769 686 l 1,7,-1
 190 0 l 1,8,-1
 54 0 l 1,0,-1
EndSplineSet
Validated: 5
EndChar

StartChar: uniE00B
Encoding: 57355 57355 264
Width: 774
GlyphClass: 1
Flags: W
LayerCount: 2
Fore
SplineSet
2 0 m 1,0,-1
 2 0 l 1,1,-1
 2 27 l 1,2,-1
 581 720 l 1,3,-1
 716 720 l 1,4,-1
 716 0 l 1,5,-1
 596 0 l 1,6,-1
 596 187 l 1,7,-1
 292 187 l 1,8,-1
 135 0 l 1,9,-1
 2 0 l 1,0,-1
393 307 m 1,10,-1
 393 307 l 1,11,-1
 596 307 l 1,12,-1
 596 546 l 1,13,-1
 393 307 l 1,10,-1
EndSplineSet
Validated: 5
EndChar

StartChar: uniE00C
Encoding: 57356 57356 265
Width: 774
GlyphClass: 1
Flags: W
LayerCount: 2
Fore
SplineSet
54 0 m 1,0,-1
 54 0 l 1,1,-1
 54 720 l 1,2,-1
 190 720 l 1,3,-1
 769 27 l 1,4,-1
 769 0 l 1,5,-1
 635 0 l 1,6,-1
 477 187 l 1,7,-1
 174 187 l 1,8,-1
 174 0 l 1,9,-1
 54 0 l 1,0,-1
174 307 m 1,10,-1
 174 307 l 1,11,-1
 378 307 l 1,12,-1
 174 546 l 1,13,-1
 174 307 l 1,10,-1
EndSplineSet
Validated: 5
EndChar

StartChar: Ccaron
Encoding: 268 268 266
Width: 822
Flags: W
AnchorPoint: "Anchor-1" 441 0 basechar 0
AnchorPoint: "Anchor-0" 441 720 basechar 0
LayerCount: 2
Fore
SplineSet
191 0 m 2
 154 0 154 0 123 18 c 0
 92 36 92 36 74 67 c 0
 56 98 56 98 56 135 c 2
 56 585 l 2
 56 622 56 622 74 653 c 0
 92 684 92 684 123 702 c 0
 154 720 154 720 191 720 c 2
 774 720 l 1
 774 599 l 1
 212 599 l 2
 196 599 196 599 186 589.5 c 0
 176 580 176 580 176 564 c 2
 176 156 l 2
 176 140 176 140 186 130.5 c 0
 196 121 196 121 212 121 c 2
 774 121 l 1
 774 0 l 1
 191 0 l 2
EndSplineSet
Refer: 240 780 S 1 0 0 1 414 140 2
Validated: 5
EndChar

StartChar: ccaron
Encoding: 269 269 268
Width: 695
Flags: W
AnchorPoint: "Anchor-1" 364 0 basechar 0
AnchorPoint: "Anchor-0" 367 580 basechar 0
LayerCount: 2
Fore
SplineSet
185 0 m 1
 148 0 148 0 118 18.5 c 0
 88 37 88 37 69.5 67 c 0
 51 97 51 97 51 134 c 2
 51 446 l 2
 51 483 51 483 69.5 513 c 0
 88 543 88 543 118 561.5 c 0
 148 580 148 580 185 580 c 2
 639 580 l 1
 639 461 l 1
 189 461 l 2
 181 461 181 461 175.5 455.5 c 0
 170 450 170 450 170 442 c 2
 170 138 l 2
 170 130 170 130 175.5 124.5 c 0
 181 119 181 119 189 119 c 2
 640 119 l 1
 640 0 l 1
 185 0 l 1
 185 0 l 1
EndSplineSet
Refer: 240 780 S 1 0 0 1 340 0 2
Validated: 5
EndChar

StartChar: Dcaron
Encoding: 270 270 269
Width: 834
Flags: W
LayerCount: 2
Fore
SplineSet
58 0 m 1
 58 720 l 1
 643 720 l 2
 680 720 680 720 710.5 702 c 0
 741 684 741 684 759.5 653 c 0
 778 622 778 622 778 585 c 2
 778 135 l 2
 778 98 778 98 759.5 67 c 0
 741 36 741 36 710.5 18 c 0
 680 0 680 0 643 0 c 2
 58 0 l 1
196 121 m 2
 638 121 l 2
 646 121 646 121 651.5 126 c 0
 657 131 657 131 657 139 c 2
 657 581 l 2
 657 589 657 589 651.5 594 c 0
 646 599 646 599 638 599 c 2
 196 599 l 2
 188 599 188 599 182.5 594 c 0
 177 589 177 589 177 581 c 2
 177 139 l 2
 177 131 177 131 182.5 126 c 0
 188 121 188 121 196 121 c 2
EndSplineSet
Refer: 240 780 S 1 0 0 1 414 140 2
Validated: 5
EndChar

StartChar: dcaron
Encoding: 271 271 270
Width: 841
Flags: W
LayerCount: 2
Fore
SplineSet
157 0 m 1
 120 0 120 0 89.5 18.5 c 0
 59 37 59 37 41 67 c 0
 23 97 23 97 23 134 c 2
 23 446 l 2
 23 483 23 483 41 513 c 0
 59 543 59 543 89.5 561.5 c 0
 120 580 120 580 157 580 c 2
 494 580 l 1
 494 770 l 1
 613 770 l 1
 613 0 l 1
 157 0 l 1
 157 0 l 1
162 119 m 2
 475 119 l 2
 483 119 483 119 488.5 124.5 c 0
 494 130 494 130 494 138 c 2
 494 442 l 2
 494 450 494 450 488.5 455.5 c 0
 483 461 483 461 475 461 c 2
 162 461 l 2
 154 461 154 461 148.5 455.5 c 0
 143 450 143 450 143 442 c 2
 143 138 l 2
 143 130 143 130 148.5 124.5 c 0
 154 119 154 119 162 119 c 2
EndSplineSet
Refer: 238 769 N 1 0 0 1 713 0 2
EndChar

StartChar: Ecaron
Encoding: 282 282 271
Width: 766
Flags: W
AnchorPoint: "Anchor-1" 399 0 basechar 0
AnchorPoint: "Anchor-0" 398 720 basechar 0
LayerCount: 2
Fore
SplineSet
58 0 m 1
 58 720 l 1
 719 720 l 1
 719 599 l 1
 179 599 l 1
 179 421 l 1
 614 421 l 1
 614 299 l 1
 179 299 l 1
 179 121 l 1
 719 121 l 1
 719 0 l 1
 58 0 l 1
EndSplineSet
Refer: 240 780 S 1 0 0 1 414 140 2
Validated: 5
EndChar

StartChar: ecaron
Encoding: 283 283 272
Width: 692
Flags: W
AnchorPoint: "Anchor-1" 346 0 basechar 0
AnchorPoint: "Anchor-0" 346 580 basechar 0
LayerCount: 2
Fore
SplineSet
185 0 m 1
 148 0 148 0 118 18.5 c 0
 88 37 88 37 69.5 67 c 0
 51 97 51 97 51 134 c 2
 51 446 l 2
 51 483 51 483 69.5 513 c 0
 88 543 88 543 118 561.5 c 0
 148 580 148 580 185 580 c 2
 506 580 l 2
 544 580 544 580 574 561.5 c 0
 604 543 604 543 622 513 c 0
 640 483 640 483 640 446 c 2
 640 230 l 1
 170 230 l 1
 170 138 l 2
 170 130 170 130 175.5 124.5 c 0
 181 119 181 119 189 119 c 2
 640 119 l 1
 640 0 l 1
 185 0 l 1
 185 0 l 1
170 339 m 1
 521 339 l 1
 521 442 l 2
 521 450 521 450 515.5 455.5 c 0
 510 461 510 461 502 461 c 2
 189 461 l 2
 181 461 181 461 175.5 455.5 c 0
 170 450 170 450 170 442 c 2
 170 339 l 1
EndSplineSet
Refer: 240 780 N 1 0 0 1 340 0 2
Validated: 5
EndChar

StartChar: Tcaron
Encoding: 356 356 273
Width: 759
Flags: W
LayerCount: 2
Fore
SplineSet
320 0 m 1
 320 0 l 1
 320 599 l 1
 20 599 l 1
 20 720 l 1
 740 720 l 1
 740 599 l 1
 441 599 l 1
 441 0 l 1
 320 0 l 1
EndSplineSet
Refer: 240 780 S 1 0 0 1 414 140 2
Validated: 5
EndChar

StartChar: tcaron
Encoding: 357 357 274
Width: 432
Flags: W
LayerCount: 2
Fore
SplineSet
187 0 m 1
 150 0 150 0 119.5 18.5 c 0
 89 37 89 37 71 67 c 0
 53 97 53 97 53 134 c 2
 53 761 l 1
 172 761 l 1
 172 580 l 1
 404 580 l 1
 404 461 l 1
 172 461 l 1
 172 138 l 2
 172 130 172 130 177.5 124.5 c 0
 183 119 183 119 191 119 c 2
 404 119 l 1
 404 0 l 1
 187 0 l 1
 187 0 l 1
EndSplineSet
Refer: 238 769 N 1 0 0 1 278 0 2
EndChar

StartChar: ncaron
Encoding: 328 328 275
Width: 696
Flags: W
AnchorPoint: "Anchor-1" 347 0 basechar 0
AnchorPoint: "Anchor-0" 341 580 basechar 0
LayerCount: 2
Fore
SplineSet
54 0 m 1
 54 0 l 1
 54 580 l 1
 510 580 l 2
 546 580 546 580 576.5 561.5 c 0
 607 543 607 543 625 513 c 0
 643 483 643 483 643 446 c 2
 643 0 l 1
 524 0 l 1
 524 442 l 2
 524 450 524 450 518.5 455.5 c 0
 513 461 513 461 506 461 c 2
 192 461 l 2
 185 461 185 461 179 455.5 c 0
 173 450 173 450 173 442 c 2
 173 0 l 1
 54 0 l 1
EndSplineSet
Refer: 240 780 S 1 0 0 1 340 0 2
Validated: 5
EndChar

StartChar: Ncaron
Encoding: 327 327 276
Width: 832
Flags: W
AnchorPoint: "Anchor-1" 403 0 basechar 0
AnchorPoint: "Anchor-0" 403 720 basechar 0
LayerCount: 2
Fore
SplineSet
56 0 m 1
 56 720 l 1
 193 720 l 1
 655 170 l 1
 655 720 l 1
 776 720 l 1
 776 0 l 1
 639 0 l 1
 176 551 l 1
 176 0 l 1
 56 0 l 1
EndSplineSet
Refer: 240 780 S 1 0 0 1 414 140 2
Validated: 5
EndChar

StartChar: Rcaron
Encoding: 344 344 277
Width: 825
Flags: W
LayerCount: 2
Fore
SplineSet
638 0 m 1
 417 264 l 1
 574 264 l 1
 773 28 l 1
 773 0 l 1
 638 0 l 1
56 0 m 1
 56 719 l 1
 641 719 l 2
 678 719 678 719 708.5 700.5 c 0
 739 682 739 682 757.5 651.5 c 0
 776 621 776 621 776 584 c 2
 776 386 l 2
 776 350 776 350 757.5 319 c 0
 739 288 739 288 708.5 270 c 0
 678 252 678 252 641 252 c 2
 176 251 l 1
 176 0 l 1
 56 0 l 1
194 373 m 2
 636 373 l 2
 644 373 644 373 649.5 378 c 0
 655 383 655 383 655 391 c 2
 655 581 l 2
 655 588 655 588 649.5 593.5 c 0
 644 599 644 599 636 599 c 2
 194 599 l 2
 187 599 187 599 181.5 593.5 c 0
 176 588 176 588 176 581 c 2
 176 391 l 2
 176 383 176 383 181.5 378 c 0
 187 373 187 373 194 373 c 2
EndSplineSet
Refer: 240 780 S 1 0 0 1 414 140 2
Validated: 5
EndChar

StartChar: rcaron
Encoding: 345 345 278
Width: 519
Flags: W
LayerCount: 2
Fore
SplineSet
52 0 m 1
 52 0 l 1
 52 446 l 2
 52 483 52 483 70.5 513 c 0
 89 543 89 543 119.5 561.5 c 0
 150 580 150 580 186 580 c 2
 509 580 l 1
 509 461 l 1
 190 461 l 2
 182 461 182 461 176.5 455.5 c 0
 171 450 171 450 171 442 c 2
 171 0 l 1
 52 0 l 1
EndSplineSet
Refer: 240 780 N 1 0 0 1 257 0 2
Validated: 5
EndChar

StartChar: uring
Encoding: 367 367 279
Width: 695
Flags: W
AnchorPoint: "Anchor-0" 348 579 basechar 0
LayerCount: 2
Fore
SplineSet
320.629882812 639.990234375 m 5
 304.099609375 639.990234375 304.099609375 639.990234375 291.049804688 648.037109375 c 4
 278 656.084960938 278 656.084960938 269.952148438 669.352539062 c 4
 261.905273438 682.620117188 261.905273438 682.620117188 261.905273438 698.71484375 c 6
 261.905273438 732.209960938 l 6
 261.905273438 748.740234375 261.905273438 748.740234375 269.952148438 761.790039062 c 4
 278 774.83984375 278 774.83984375 291.049804688 782.669921875 c 4
 304.099609375 790.5 304.099609375 790.5 320.629882812 790.5 c 6
 358.474609375 790.5 l 6
 374.134765625 790.5 374.134765625 790.5 387.40234375 782.669921875 c 4
 400.669921875 774.83984375 400.669921875 774.83984375 408.717773438 761.790039062 c 4
 416.764648438 748.740234375 416.764648438 748.740234375 416.764648438 732.209960938 c 6
 416.764648438 698.71484375 l 6
 416.764648438 682.620117188 416.764648438 682.620117188 408.717773438 669.352539062 c 4
 400.669921875 656.084960938 400.669921875 656.084960938 387.40234375 648.037109375 c 4
 374.134765625 639.990234375 374.134765625 639.990234375 358.474609375 639.990234375 c 6
 320.629882812 639.990234375 l 5
 320.629882812 639.990234375 l 5
313.235351562 683.924804688 m 6
 365 683.924804688 l 6
 368.48046875 683.924804688 368.48046875 683.924804688 370.872070312 686.317382812 c 4
 373.264648438 688.709960938 373.264648438 688.709960938 373.264648438 691.754882812 c 6
 373.264648438 738.735351562 l 6
 373.264648438 742.21484375 373.264648438 742.21484375 370.872070312 744.607421875 c 4
 368.48046875 747 368.48046875 747 365 747 c 6
 313.235351562 747 l 6
 310.190429688 747 310.190429688 747 307.797851562 744.607421875 c 4
 305.405273438 742.21484375 305.405273438 742.21484375 305.405273438 738.735351562 c 6
 305.405273438 691.754882812 l 6
 305.405273438 688.709960938 305.405273438 688.709960938 307.797851562 686.317382812 c 4
 310.190429688 683.924804688 310.190429688 683.924804688 313.235351562 683.924804688 c 6
EndSplineSet
Refer: 125 117 N 1 0 0 1 0 0 3
Validated: 1572869
EndChar

StartChar: Uring
Encoding: 366 366 280
Width: 828
Flags: W
AnchorPoint: "Anchor-1" 414 0 basechar 0
AnchorPoint: "Anchor-0" 488 797 basechar 0
LayerCount: 2
Fore
SplineSet
394.629882812 779.990234375 m 1
 378.099609375 779.990234375 378.099609375 779.990234375 365.049804688 788.037109375 c 0
 352 796.084960938 352 796.084960938 343.952148438 809.352539062 c 0
 335.905273438 822.620117188 335.905273438 822.620117188 335.905273438 838.71484375 c 2
 335.905273438 872.209960938 l 2
 335.905273438 888.740234375 335.905273438 888.740234375 343.952148438 901.790039062 c 0
 352 914.83984375 352 914.83984375 365.049804688 922.669921875 c 0
 378.099609375 930.5 378.099609375 930.5 394.629882812 930.5 c 2
 432.474609375 930.5 l 2
 448.134765625 930.5 448.134765625 930.5 461.40234375 922.669921875 c 0
 474.669921875 914.83984375 474.669921875 914.83984375 482.717773438 901.790039062 c 0
 490.764648438 888.740234375 490.764648438 888.740234375 490.764648438 872.209960938 c 2
 490.764648438 838.71484375 l 2
 490.764648438 822.620117188 490.764648438 822.620117188 482.717773438 809.352539062 c 0
 474.669921875 796.084960938 474.669921875 796.084960938 461.40234375 788.037109375 c 0
 448.134765625 779.990234375 448.134765625 779.990234375 432.474609375 779.990234375 c 2
 394.629882812 779.990234375 l 1
 394.629882812 779.990234375 l 1
387.235351562 823.924804688 m 2
 439 823.924804688 l 2
 442.48046875 823.924804688 442.48046875 823.924804688 444.872070312 826.317382812 c 0
 447.264648438 828.709960938 447.264648438 828.709960938 447.264648438 831.754882812 c 2
 447.264648438 878.735351562 l 2
 447.264648438 882.21484375 447.264648438 882.21484375 444.872070312 884.607421875 c 0
 442.48046875 887 442.48046875 887 439 887 c 2
 387.235351562 887 l 2
 384.190429688 887 384.190429688 887 381.797851562 884.607421875 c 0
 379.405273438 882.21484375 379.405273438 882.21484375 379.405273438 878.735351562 c 2
 379.405273438 831.754882812 l 2
 379.405273438 828.709960938 379.405273438 828.709960938 381.797851562 826.317382812 c 0
 384.190429688 823.924804688 384.190429688 823.924804688 387.235351562 823.924804688 c 2
EndSplineSet
Refer: 45 85 N 1 0 0 1 0 0 3
Validated: 524293
EndChar
